<?xml version="1.0" encoding="iso-8859-1"?>
<!-- Generator: Adobe Illustrator 27.0.0, SVG Export Plug-In . SVG Version: 6.00 Build 0)  -->
<svg version="1.1" id="Layer_1" xmlns="http://www.w3.org/2000/svg" xmlns:xlink="http://www.w3.org/1999/xlink" x="0px" y="0px"
	 viewBox="0 0 500 500" style="enable-background:new 0 0 500 500;" xml:space="preserve">
<g id="watermark_1_">
	<g>
		<g id="watermark" style="opacity:0.61;">
			<g>
				<g>
					<g>
						<g>
							<polygon style="fill:#FFFFFF;" points="213.765,461.172 208.204,474.017 205.268,474.017 199.726,461.172 202.938,461.172 
								206.846,470.347 210.81,461.172 							"/>
						</g>
						<g>
							<path style="fill:#FFFFFF;" d="M223.507,469.741h-7.469c0.275,1.23,1.321,1.982,2.826,1.982c1.046,0,1.798-0.312,2.477-0.954
								l1.523,1.651c-0.917,1.046-2.294,1.597-4.074,1.597c-3.413,0-5.634-2.147-5.634-5.083c0-2.954,2.257-5.083,5.267-5.083
								c2.899,0,5.138,1.945,5.138,5.12C223.562,469.191,223.526,469.503,223.507,469.741 M216.002,468.071h4.863
								c-0.202-1.248-1.138-2.055-2.422-2.055C217.139,466.016,216.204,466.805,216.002,468.071"/>
						</g>
						<g>
							<path style="fill:#FFFFFF;" d="M224.735,468.934c0-2.973,2.294-5.083,5.505-5.083c2.074,0,3.707,0.899,4.423,2.514
								l-2.22,1.193c-0.532-0.936-1.321-1.358-2.221-1.358c-1.45,0-2.587,1.009-2.587,2.734c0,1.725,1.138,2.734,2.587,2.734
								c0.899,0,1.688-0.404,2.221-1.358l2.22,1.211c-0.716,1.578-2.349,2.495-4.423,2.495
								C227.029,474.017,224.735,471.907,224.735,468.934"/>
						</g>
						<g>
							<path style="fill:#FFFFFF;" d="M242.828,473.393c-0.587,0.422-1.45,0.624-2.331,0.624c-2.33,0-3.688-1.193-3.688-3.542
								v-4.055h-1.523v-2.202h1.523v-2.404h2.863v2.404h2.459v2.202h-2.459v4.019c0,0.844,0.458,1.303,1.229,1.303
								c0.422,0,0.844-0.128,1.156-0.367L242.828,473.393z"/>
						</g>
					</g>
					<g>
						<path style="fill:#FFFFFF;" d="M262.474,463.997v2.643c-0.238-0.018-0.422-0.037-0.642-0.037
							c-1.578,0-2.624,0.862-2.624,2.753v4.661h-2.863v-9.873h2.734v1.303C259.776,464.493,260.951,463.997,262.474,463.997"/>
					</g>
					<g>
						<path style="fill:#FFFFFF;" d="M263.299,472.53l1.009-2.239c1.083,0.789,2.697,1.339,4.239,1.339
							c1.762,0,2.477-0.587,2.477-1.376c0-2.404-7.469-0.752-7.469-5.524c0-2.184,1.762-4,5.413-4c1.615,0,3.267,0.385,4.459,1.138
							l-0.918,2.257c-1.193-0.679-2.422-1.009-3.56-1.009c-1.761,0-2.44,0.66-2.44,1.468c0,2.367,7.468,0.734,7.468,5.45
							c0,2.147-1.78,3.982-5.45,3.982C266.492,474.017,264.437,473.411,263.299,472.53"/>
					</g>
					<g>
						<path style="fill:#FFFFFF;" d="M285.428,469.741h-7.469c0.275,1.23,1.321,1.982,2.826,1.982c1.046,0,1.798-0.312,2.477-0.954
							l1.523,1.651c-0.918,1.046-2.294,1.597-4.074,1.597c-3.413,0-5.634-2.147-5.634-5.083c0-2.954,2.257-5.083,5.267-5.083
							c2.9,0,5.138,1.945,5.138,5.12C285.484,469.191,285.447,469.503,285.428,469.741 M277.923,468.071h4.863
							c-0.202-1.248-1.138-2.055-2.422-2.055C279.061,466.016,278.125,466.805,277.923,468.071"/>
					</g>
					<g>
						<path style="fill:#FFFFFF;" d="M297.007,469.741h-7.469c0.275,1.23,1.321,1.982,2.826,1.982c1.046,0,1.798-0.312,2.477-0.954
							l1.523,1.651c-0.918,1.046-2.294,1.597-4.074,1.597c-3.413,0-5.634-2.147-5.634-5.083c0-2.954,2.257-5.083,5.267-5.083
							c2.899,0,5.138,1.945,5.138,5.12C297.062,469.191,297.025,469.503,297.007,469.741 M289.501,468.071h4.863
							c-0.202-1.248-1.138-2.055-2.422-2.055C290.639,466.016,289.703,466.805,289.501,468.071"/>
					</g>
					<g>
						<polygon style="fill:#FFFFFF;" points="303.208,470.145 301.831,471.503 301.831,474.017 298.969,474.017 298.969,460.401 
							301.831,460.401 301.831,468.108 306.016,464.144 309.429,464.144 305.318,468.328 309.796,474.017 306.327,474.017 						"/>
					</g>
					<g>
						<path style="fill:#FFFFFF;" d="M256.601,475.359L256.601,475.359l-2.86-2.86c-0.435,0.508-0.953,0.943-1.534,1.284
							c-0.092,0.069-0.186,0.136-0.283,0.199l3.027,3.027c0.456,0.456,1.195,0.456,1.65,0
							C257.057,476.554,257.057,475.815,256.601,475.359"/>
					</g>
					<g>
						<path style="fill:#FFFFFF;" d="M249.984,463.244c0.221-0.173,0.495-0.281,0.797-0.281c0.042,0,0.083,0.002,0.124,0.006
							c-0.214-0.156-0.478-0.249-0.764-0.249c-0.395,0-0.744,0.18-0.981,0.458c-0.051,0-0.1,0.006-0.151,0.008
							c0.039-0.077,0.064-0.162,0.064-0.255c0-0.234-0.143-0.434-0.346-0.519c0.087,0.126,0.138,0.279,0.138,0.445
							c0,0.122-0.031,0.237-0.081,0.341c-2.811,0.201-5.03,2.539-5.03,5.4c0,2.993,2.426,5.42,5.42,5.42
							c2.993,0,5.42-2.426,5.42-5.42C254.595,465.879,252.593,463.635,249.984,463.244 M247.983,464.656
							c0.435,0,0.844,0.112,1.199,0.309c0.374-0.245,0.82-0.387,1.299-0.387c0.711,0,1.348,0.312,1.784,0.806
							c-0.435-0.379-1.004-0.61-1.627-0.61c-0.449,0-0.87,0.12-1.234,0.329c-0.079,0.046-0.156,0.096-0.229,0.15
							c-0.065-0.048-0.133-0.093-0.204-0.134c-0.369-0.219-0.8-0.344-1.26-0.344c-0.3,0-0.588,0.054-0.854,0.152
							C247.196,464.754,247.578,464.656,247.983,464.656 M251.772,469.098c0.115,0.305,0.181,0.634,0.181,0.979
							c0,1.534-1.244,2.777-2.778,2.777c-1.534,0-2.777-1.243-2.777-2.777c0-0.345,0.066-0.674,0.181-0.979
							c-0.62-0.382-1.035-1.064-1.035-1.846c0-1.197,0.971-2.168,2.168-2.168c0.565,0,1.078,0.218,1.463,0.572
							c0.386-0.354,0.899-0.572,1.464-0.572c1.197,0,2.168,0.971,2.168,2.168C252.807,468.034,252.392,468.716,251.772,469.098"/>
					</g>
					<g>
						<path style="fill:#FFFFFF;" d="M251.666,467.061c0,0.497-0.404,0.901-0.901,0.901c-0.497,0-0.901-0.404-0.901-0.901
							s0.404-0.901,0.901-0.901c0.101,0,0.197,0.017,0.287,0.047c-0.03,0.062-0.045,0.132-0.045,0.204
							c0,0.273,0.221,0.494,0.494,0.494c0.05,0,0.099-0.008,0.146-0.022C251.66,466.941,251.666,467,251.666,467.061"/>
					</g>
					<g>
						<path style="fill:#FFFFFF;" d="M248.255,467.061c0,0.376-0.305,0.681-0.681,0.681c-0.376,0-0.681-0.305-0.681-0.681
							s0.305-0.681,0.681-0.681c0.076,0,0.149,0.013,0.217,0.035c-0.023,0.047-0.034,0.1-0.034,0.155
							c0,0.206,0.167,0.374,0.374,0.374c0.038,0,0.075-0.006,0.11-0.017C248.25,466.97,248.255,467.015,248.255,467.061"/>
					</g>
					<g>
						<g>
							<g>
								<rect x="242.908" y="467.83" style="fill:#FFFFFF;" width="0.616" height="0.616"/>
							</g>
							<g>
								<rect x="254.827" y="467.83" style="fill:#FFFFFF;" width="0.616" height="0.616"/>
							</g>
							<g>
								<path style="fill:#FFFFFF;" d="M255.205,468.082h-0.14c0-3.248-2.642-5.89-5.89-5.89c-3.248,0-5.89,2.642-5.89,5.89h-0.14
									c0-1.611,0.627-3.125,1.766-4.264c1.139-1.139,2.653-1.766,4.264-1.766c1.611,0,3.125,0.627,4.264,1.766
									C254.578,464.957,255.205,466.471,255.205,468.082"/>
							</g>
						</g>
						<g>
							<rect x="248.868" y="461.814" style="fill:#FFFFFF;" width="0.616" height="0.616"/>
						</g>
						<g>
							<rect x="244.95" y="462.052" style="fill:#FFFFFF;" width="8.45" height="0.14"/>
						</g>
						<g>
							<path style="fill:#FFFFFF;" d="M245.174,462.15c0,0.108-0.088,0.196-0.196,0.196c-0.108,0-0.196-0.088-0.196-0.196
								c0-0.108,0.088-0.196,0.196-0.196C245.086,461.954,245.174,462.042,245.174,462.15"/>
						</g>
						<g>
							<path style="fill:#FFFFFF;" d="M253.596,462.15c0,0.108-0.088,0.196-0.196,0.196c-0.108,0-0.196-0.088-0.196-0.196
								c0-0.108,0.088-0.196,0.196-0.196C253.509,461.954,253.596,462.042,253.596,462.15"/>
						</g>
					</g>
				</g>
				<g>
					<path style="fill:#FFFFFF;" d="M314.356,473.409c0,1.559-2.364,1.559-2.364,0C311.993,471.851,314.356,471.851,314.356,473.409
						z"/>
				</g>
				<g>
					<g>
						<g>
							<path style="fill:#FFFFFF;" d="M161.739,466.549l1.772,6.088l1.855-6.088h2.215l-2.823,8.14h-2.33l-0.837-2.396l-0.722-2.708
								l-0.722,2.708l-0.837,2.396h-2.33l-2.839-8.14h2.231l1.855,6.088l1.756-6.088H161.739z"/>
						</g>
						<g>
							<path style="fill:#FFFFFF;" d="M176.713,466.549l1.772,6.088l1.855-6.088h2.215l-2.823,8.14h-2.33l-0.837-2.396l-0.722-2.708
								l-0.722,2.708l-0.837,2.396h-2.33l-2.839-8.14h2.231l1.855,6.088l1.756-6.088H176.713z"/>
						</g>
						<g>
							<path style="fill:#FFFFFF;" d="M191.687,466.549l1.772,6.088l1.855-6.088h2.215l-2.823,8.14h-2.33l-0.837-2.396l-0.722-2.708
								l-0.722,2.708l-0.837,2.396h-2.33l-2.839-8.14h2.231l1.855,6.088l1.756-6.088H191.687z"/>
						</g>
					</g>
					<g>
						<path style="fill:#FFFFFF;" d="M200.908,473.52c0,1.559-2.364,1.559-2.364,0C198.545,471.962,200.908,471.962,200.908,473.52z
							"/>
					</g>
					<g>
						<path style="fill:#FFFFFF;" d="M322.71,473.409c-0.935,0.919-1.919,1.28-3.117,1.28c-2.346,0-4.3-1.411-4.3-4.282
							s1.953-4.284,4.3-4.284c1.149,0,2.035,0.329,2.921,1.199l-1.264,1.329c-0.476-0.428-1.066-0.64-1.623-0.64
							c-1.346,0-2.33,0.985-2.33,2.396c0,1.542,1.05,2.362,2.297,2.362c0.64,0,1.28-0.18,1.772-0.672L322.71,473.409z"/>
					</g>
					<g>
						<path style="fill:#FFFFFF;" d="M331.805,470.472c0,2.33-1.591,4.217-4.217,4.217c-2.626,0-4.201-1.887-4.201-4.217
							c0-2.314,1.609-4.217,4.185-4.217C330.149,466.255,331.805,468.158,331.805,470.472z M325.389,470.472
							c0,1.231,0.739,2.38,2.199,2.38c1.46,0,2.199-1.149,2.199-2.38c0-1.215-0.854-2.396-2.199-2.396
							C326.144,468.077,325.389,469.258,325.389,470.472z"/>
					</g>
					<g>
						<path style="fill:#FFFFFF;" d="M338.572,474.689v-4.332c0-1.068-0.559-2.035-1.658-2.035c-1.082,0-1.722,0.967-1.722,2.035
							v4.332h-2.003v-8.107h1.855l0.148,0.985c0.426-0.82,1.362-1.116,2.133-1.116c0.969,0,1.937,0.394,2.396,1.51
							c0.723-1.149,1.658-1.478,2.708-1.478c2.297,0,3.43,1.412,3.43,3.84v4.365h-2.003v-4.365c0-1.066-0.442-1.97-1.526-1.97
							c-1.082,0-1.756,0.935-1.756,2.003v4.332H338.572z"/>
					</g>
				</g>
			</g>
		</g>
		<g style="opacity:0.61;">
			<g>
				<g>
					<path style="fill:#FFFFFF;" d="M345.988,431.299c-0.006-1.224-0.959-2.121-2.189-2.14c-0.924-0.014-0.832,0.12-0.834-0.867
						c-0.003-1.097-0.007-2.194,0.003-3.292c0.003-0.379-0.112-0.691-0.362-0.976c-2.342-2.668-4.678-5.342-7.019-8.011
						c-0.12-0.137-0.275-0.244-0.414-0.366c-6.214,0-12.427,0-18.641,0c-0.794,0.293-1.14,0.868-1.138,1.709
						c0.01,3.748,0.004,7.496,0.004,11.243c0,0.556-0.003,0.589-0.55,0.551c-1.497-0.102-2.516,0.986-2.497,2.492
						c0.044,3.476,0.013,6.953,0.014,10.429c0.001,1.58,0.867,2.443,2.45,2.449c0.582,0.002,0.582,0.002,0.582,0.6
						c0,2.219-0.001,4.438,0.001,6.657c0.001,1.192,0.58,1.771,1.768,1.771c8.013,0.001,16.027,0.001,24.04,0
						c1.168,0,1.755-0.583,1.757-1.745c0.002-2.256,0-4.512,0.001-6.768c0-0.512,0.002-0.511,0.52-0.515
						c0.271-0.002,0.541,0.008,0.809-0.058c0.996-0.246,1.69-1.044,1.694-2.069C346.003,438.696,346.005,434.997,345.988,431.299z
						 M317.537,417.162c5.337,0,10.674,0,16.01,0c0.548,0,0.554,0.007,0.554,0.561c0.001,2.243-0.001,4.486,0.001,6.73
						c0.001,0.811,0.249,1.059,1.06,1.059c1.91,0.001,3.821,0,5.731,0.001c0.458,0,0.479,0.021,0.481,0.483
						c0.003,0.887,0.002,1.775,0,2.662c-0.001,0.477-0.024,0.498-0.504,0.499c-3.895,0.001-7.79,0-11.684,0
						c-3.882,0-7.765,0-11.647,0c-0.55,0-0.552-0.001-0.552-0.561c-0.001-3.624-0.001-7.247,0-10.871
						C316.987,417.166,316.991,417.162,317.537,417.162z M340.822,451.579c-3.883,0.001-7.766,0-11.65,0c-3.871,0-7.742,0-11.613,0
						c-0.572,0-0.574-0.002-0.574-0.579c-0.001-1.997-0.001-3.994,0.001-5.991c0-0.464,0.023-0.486,0.478-0.487
						c7.803-0.001,15.607-0.001,23.41,0c0.478,0,0.499,0.02,0.499,0.503c0.002,1.997,0.001,3.994,0,5.991
						C341.375,451.574,341.37,451.579,340.822,451.579z"/>
				</g>
				<g>
					<g>
						<rect x="327.418" y="417.053" style="fill:#FFFFFF;" width="1.757" height="1.054"/>
					</g>
					<g>
						<rect x="325.662" y="418.107" style="fill:#FFFFFF;" width="1.757" height="1.054"/>
					</g>
					<g>
						<rect x="327.418" y="419.161" style="fill:#FFFFFF;" width="1.757" height="1.054"/>
					</g>
					<g>
						<rect x="325.662" y="420.215" style="fill:#FFFFFF;" width="1.757" height="1.054"/>
					</g>
					<g>
						<rect x="327.418" y="421.269" style="fill:#FFFFFF;" width="1.757" height="1.054"/>
					</g>
					<g>
						<rect x="325.662" y="422.323" style="fill:#FFFFFF;" width="1.757" height="1.054"/>
					</g>
					<g>
						<rect x="327.418" y="423.378" style="fill:#FFFFFF;" width="1.757" height="1.054"/>
					</g>
					<g>
						<rect x="325.662" y="424.432" style="fill:#FFFFFF;" width="1.757" height="1.054"/>
					</g>
					<g>
						<rect x="327.418" y="425.486" style="fill:#FFFFFF;" width="1.757" height="1.054"/>
					</g>
					<g>
						<rect x="325.662" y="426.54" style="fill:#FFFFFF;" width="1.757" height="1.054"/>
					</g>
					<g>
						<rect x="327.418" y="427.594" style="fill:#FFFFFF;" width="1.757" height="1.054"/>
					</g>
					<g>
						<rect x="325.662" y="428.648" style="fill:#FFFFFF;" width="1.757" height="1.054"/>
					</g>
				</g>
			</g>
			<g>
				<path style="fill:#FFFFFF;" d="M187.637,431.299c-0.006-1.224-0.959-2.121-2.189-2.14c-0.924-0.014-0.832,0.12-0.834-0.867
					c-0.003-1.097-0.007-2.194,0.003-3.292c0.003-0.379-0.112-0.691-0.362-0.976c-2.342-2.668-4.678-5.342-7.019-8.011
					c-0.12-0.137-0.275-0.244-0.414-0.366c-6.214,0-12.427,0-18.641,0c-0.794,0.293-1.14,0.868-1.138,1.709
					c0.01,3.748,0.004,7.496,0.004,11.243c0,0.556-0.003,0.589-0.55,0.551c-1.497-0.102-2.516,0.986-2.497,2.492
					c0.044,3.476,0.013,6.953,0.014,10.429c0.001,1.58,0.867,2.443,2.45,2.449c0.582,0.002,0.582,0.002,0.582,0.6
					c0,2.219-0.001,4.438,0.001,6.657c0.001,1.192,0.58,1.771,1.768,1.771c8.013,0.001,16.027,0.001,24.04,0
					c1.168,0,1.755-0.583,1.757-1.745c0.002-2.256,0-4.512,0.001-6.768c0-0.512,0.002-0.511,0.52-0.515
					c0.271-0.002,0.541,0.008,0.809-0.058c0.996-0.246,1.69-1.044,1.694-2.069C187.652,438.696,187.655,434.997,187.637,431.299z
					 M159.187,417.162c5.337,0,10.674,0,16.01,0c0.548,0,0.554,0.007,0.554,0.561c0.001,2.243-0.001,4.486,0.001,6.73
					c0.001,0.811,0.249,1.059,1.06,1.059c1.91,0.001,3.821,0,5.731,0.001c0.458,0,0.479,0.021,0.481,0.483
					c0.003,0.887,0.002,1.775,0,2.662c-0.001,0.477-0.024,0.498-0.504,0.499c-3.895,0.001-7.79,0-11.684,0
					c-3.882,0-7.765,0-11.647,0c-0.55,0-0.552-0.001-0.552-0.561c-0.001-3.624-0.001-7.247,0-10.871
					C158.636,417.166,158.64,417.162,159.187,417.162z M182.472,451.579c-3.883,0.001-7.766,0-11.65,0c-3.871,0-7.742,0-11.613,0
					c-0.572,0-0.574-0.002-0.574-0.579c-0.001-1.997-0.001-3.994,0.001-5.991c0-0.464,0.023-0.486,0.478-0.487
					c7.803-0.001,15.607-0.001,23.41,0c0.478,0,0.499,0.02,0.499,0.503c0.002,1.997,0.001,3.994,0,5.991
					C183.024,451.574,183.019,451.579,182.472,451.579z"/>
			</g>
			<g>
				<path style="fill:#FFFFFF;" d="M159.779,440.669v-7.897h2.779c0.375,0,0.726,0.061,1.053,0.182
					c0.327,0.121,0.612,0.292,0.855,0.513c0.242,0.221,0.434,0.483,0.573,0.789c0.14,0.305,0.21,0.642,0.21,1.009
					c0,0.375-0.07,0.715-0.21,1.02c-0.14,0.305-0.331,0.568-0.573,0.789c-0.243,0.221-0.528,0.392-0.855,0.513
					c-0.327,0.121-0.678,0.182-1.053,0.182h-1.29v2.901H159.779z M162.58,436.356c0.39,0,0.684-0.111,0.882-0.331
					c0.199-0.22,0.298-0.474,0.298-0.761c0-0.14-0.024-0.276-0.072-0.408c-0.048-0.132-0.121-0.248-0.221-0.347
					c-0.099-0.099-0.223-0.178-0.37-0.237c-0.147-0.059-0.32-0.089-0.518-0.089h-1.312v2.173H162.58z"/>
				<path style="fill:#FFFFFF;" d="M166.308,432.771h1.731l3.177,5.294h0.088l-0.088-1.522v-3.772h1.478v7.897h-1.566l-3.353-5.592
					h-0.088l0.088,1.522v4.07h-1.467V432.771z"/>
				<path style="fill:#FFFFFF;" d="M177.922,436.334h3.872c0.022,0.089,0.04,0.195,0.055,0.32c0.014,0.125,0.022,0.25,0.022,0.375
					c0,0.507-0.077,0.985-0.231,1.434c-0.154,0.449-0.397,0.849-0.728,1.202c-0.353,0.375-0.776,0.666-1.268,0.871
					c-0.493,0.206-1.055,0.309-1.688,0.309c-0.574,0-1.114-0.103-1.622-0.309c-0.507-0.206-0.948-0.492-1.323-0.86
					c-0.375-0.367-0.673-0.803-0.894-1.307c-0.221-0.504-0.331-1.053-0.331-1.649c0-0.595,0.11-1.145,0.331-1.649
					c0.221-0.504,0.518-0.939,0.894-1.307c0.375-0.367,0.816-0.654,1.323-0.86c0.507-0.206,1.048-0.309,1.622-0.309
					c0.64,0,1.211,0.11,1.715,0.331c0.504,0.221,0.935,0.526,1.296,0.915l-1.025,1.004c-0.258-0.272-0.544-0.48-0.861-0.623
					c-0.316-0.143-0.695-0.215-1.136-0.215c-0.361,0-0.703,0.065-1.026,0.193c-0.324,0.129-0.607,0.311-0.85,0.546
					c-0.242,0.235-0.436,0.52-0.579,0.855c-0.143,0.335-0.215,0.708-0.215,1.119c0,0.412,0.072,0.785,0.215,1.12
					c0.143,0.335,0.338,0.62,0.584,0.855c0.246,0.235,0.531,0.418,0.855,0.546c0.323,0.129,0.669,0.193,1.037,0.193
					c0.419,0,0.773-0.061,1.064-0.182c0.29-0.121,0.538-0.278,0.744-0.469c0.148-0.132,0.275-0.3,0.381-0.502
					c0.106-0.202,0.189-0.428,0.248-0.678h-2.482V436.334z"/>
			</g>
			<g>
				<path style="fill:#FFFFFF;" d="M224.019,431.299c-0.006-1.224-0.959-2.121-2.189-2.14c-0.924-0.014-0.832,0.12-0.834-0.867
					c-0.003-1.097-0.007-2.194,0.003-3.292c0.003-0.379-0.112-0.691-0.362-0.976c-2.342-2.668-4.678-5.342-7.019-8.011
					c-0.12-0.137-0.275-0.244-0.414-0.366c-6.214,0-12.427,0-18.641,0c-0.794,0.293-1.14,0.868-1.138,1.709
					c0.01,3.748,0.004,7.496,0.004,11.243c0,0.556-0.003,0.589-0.55,0.551c-1.497-0.102-2.516,0.986-2.497,2.492
					c0.044,3.476,0.013,6.953,0.014,10.429c0.001,1.58,0.867,2.443,2.45,2.449c0.582,0.002,0.582,0.002,0.582,0.6
					c0,2.219-0.001,4.438,0.001,6.657c0.001,1.192,0.58,1.771,1.768,1.771c8.013,0.001,16.027,0.001,24.04,0
					c1.168,0,1.755-0.583,1.757-1.745c0.002-2.256,0-4.512,0.001-6.768c0-0.512,0.002-0.511,0.52-0.515
					c0.271-0.002,0.541,0.008,0.809-0.058c0.997-0.246,1.69-1.044,1.694-2.069C224.034,438.696,224.036,434.997,224.019,431.299z
					 M195.568,417.162c5.337,0,10.674,0,16.01,0c0.548,0,0.554,0.007,0.554,0.561c0.001,2.243-0.001,4.486,0.001,6.73
					c0.001,0.811,0.249,1.059,1.06,1.059c1.91,0.001,3.821,0,5.731,0.001c0.458,0,0.479,0.021,0.481,0.483
					c0.003,0.887,0.002,1.775,0,2.662c-0.001,0.477-0.024,0.498-0.504,0.499c-3.895,0.001-7.79,0-11.684,0
					c-3.882,0-7.765,0-11.647,0c-0.55,0-0.552-0.001-0.552-0.561c-0.001-3.624-0.001-7.247,0-10.871
					C195.018,417.166,195.022,417.162,195.568,417.162z M218.854,451.579c-3.883,0.001-7.766,0-11.65,0c-3.871,0-7.742,0-11.613,0
					c-0.572,0-0.574-0.002-0.574-0.579c-0.001-1.997-0.001-3.994,0.001-5.991c0-0.464,0.023-0.486,0.478-0.487
					c7.803-0.001,15.607-0.001,23.41,0c0.478,0,0.499,0.02,0.499,0.503c0.002,1.997,0.001,3.994,0,5.991
					C219.406,451.574,219.401,451.579,218.854,451.579z"/>
			</g>
			<g>
				<path style="fill:#FFFFFF;" d="M205.111,432.771h1.699l2.967,7.897h-1.644l-0.651-1.886h-3.044l-0.651,1.886h-1.643
					L205.111,432.771z M206.997,437.415l-0.706-1.974l-0.287-0.96h-0.088l-0.287,0.96l-0.706,1.974H206.997z"/>
				<path style="fill:#FFFFFF;" d="M211.331,434.536c-0.125,0-0.245-0.024-0.359-0.072c-0.114-0.048-0.213-0.114-0.298-0.199
					c-0.084-0.084-0.151-0.182-0.198-0.292c-0.048-0.11-0.072-0.232-0.072-0.364s0.024-0.254,0.072-0.364
					c0.048-0.11,0.114-0.208,0.198-0.292c0.084-0.084,0.184-0.151,0.298-0.198c0.114-0.048,0.233-0.072,0.359-0.072
					c0.257,0,0.478,0.09,0.662,0.27c0.184,0.181,0.276,0.399,0.276,0.656s-0.092,0.476-0.276,0.656
					C211.809,434.446,211.589,434.536,211.331,434.536z M210.615,440.669v-5.404h1.445v5.404H210.615z"/>
			</g>
			<g>
				<path style="fill:#FFFFFF;" d="M261.044,431.299c-0.006-1.224-0.959-2.121-2.189-2.14c-0.924-0.014-0.832,0.12-0.834-0.867
					c-0.003-1.097-0.007-2.194,0.003-3.292c0.003-0.379-0.112-0.691-0.362-0.976c-2.342-2.668-4.678-5.342-7.019-8.011
					c-0.12-0.137-0.275-0.244-0.414-0.366c-6.214,0-12.427,0-18.641,0c-0.794,0.293-1.14,0.868-1.138,1.709
					c0.01,3.748,0.004,7.496,0.004,11.243c0,0.556-0.003,0.589-0.55,0.551c-1.497-0.102-2.516,0.986-2.497,2.492
					c0.044,3.476,0.013,6.953,0.014,10.429c0.001,1.58,0.867,2.443,2.45,2.449c0.582,0.002,0.582,0.002,0.582,0.6
					c0,2.219-0.001,4.438,0.001,6.657c0.001,1.192,0.58,1.771,1.768,1.771c8.013,0.001,16.027,0.001,24.04,0
					c1.168,0,1.755-0.583,1.757-1.745c0.002-2.256,0-4.512,0.001-6.768c0-0.512,0.002-0.511,0.52-0.515
					c0.271-0.002,0.541,0.008,0.809-0.058c0.996-0.246,1.69-1.044,1.694-2.069C261.059,438.696,261.061,434.997,261.044,431.299z
					 M232.593,417.162c5.337,0,10.674,0,16.01,0c0.548,0,0.554,0.007,0.554,0.561c0.001,2.243-0.001,4.486,0.001,6.73
					c0.001,0.811,0.249,1.059,1.06,1.059c1.91,0.001,3.821,0,5.731,0.001c0.458,0,0.479,0.021,0.481,0.483
					c0.003,0.887,0.002,1.775,0,2.662c-0.001,0.477-0.024,0.498-0.504,0.499c-3.895,0.001-7.79,0-11.684,0
					c-3.882,0-7.765,0-11.647,0c-0.55,0-0.552-0.001-0.552-0.561c-0.001-3.624-0.001-7.247,0-10.871
					C232.042,417.166,232.047,417.162,232.593,417.162z M255.878,451.579c-3.883,0.001-7.766,0-11.65,0c-3.871,0-7.742,0-11.613,0
					c-0.572,0-0.574-0.002-0.574-0.579c-0.001-1.997-0.001-3.994,0.001-5.991c0-0.464,0.023-0.486,0.478-0.487
					c7.803-0.001,15.607-0.001,23.41,0c0.478,0,0.499,0.02,0.499,0.503c0.002,1.997,0.001,3.994,0,5.991
					C256.431,451.574,256.426,451.579,255.878,451.579z"/>
			</g>
			<g>
				<path style="fill:#FFFFFF;" d="M236.361,440.845c-0.338,0-0.662-0.048-0.971-0.143c-0.309-0.095-0.592-0.239-0.849-0.43
					c-0.257-0.191-0.481-0.425-0.673-0.7c-0.191-0.276-0.342-0.597-0.452-0.965l1.401-0.551c0.103,0.397,0.283,0.726,0.54,0.987
					c0.257,0.261,0.596,0.392,1.015,0.392c0.154,0,0.303-0.02,0.447-0.061c0.143-0.04,0.272-0.099,0.386-0.176
					s0.204-0.175,0.27-0.292c0.066-0.118,0.099-0.254,0.099-0.408c0-0.147-0.026-0.279-0.077-0.397
					c-0.051-0.117-0.138-0.227-0.259-0.331c-0.121-0.103-0.28-0.202-0.475-0.298c-0.195-0.095-0.435-0.195-0.722-0.298l-0.485-0.176
					c-0.213-0.073-0.429-0.173-0.645-0.298c-0.217-0.125-0.413-0.276-0.59-0.452c-0.177-0.176-0.322-0.384-0.436-0.623
					c-0.114-0.239-0.171-0.509-0.171-0.81c0-0.309,0.06-0.597,0.182-0.866c0.121-0.268,0.294-0.503,0.518-0.706
					c0.224-0.202,0.492-0.36,0.805-0.474s0.66-0.171,1.042-0.171c0.397,0,0.74,0.053,1.031,0.16
					c0.291,0.107,0.537,0.243,0.739,0.408c0.202,0.165,0.366,0.348,0.491,0.546c0.125,0.199,0.217,0.386,0.276,0.563l-1.312,0.551
					c-0.074-0.221-0.208-0.419-0.402-0.596c-0.195-0.176-0.462-0.265-0.8-0.265c-0.324,0-0.592,0.075-0.805,0.226
					c-0.213,0.151-0.32,0.348-0.32,0.59c0,0.235,0.103,0.436,0.309,0.601c0.206,0.165,0.533,0.325,0.982,0.48l0.497,0.165
					c0.316,0.111,0.605,0.237,0.866,0.381c0.261,0.143,0.485,0.314,0.673,0.513c0.187,0.199,0.331,0.425,0.43,0.678
					c0.1,0.254,0.149,0.546,0.149,0.877c0,0.412-0.083,0.767-0.248,1.064c-0.165,0.298-0.377,0.542-0.634,0.734
					c-0.258,0.191-0.548,0.335-0.872,0.43C236.986,440.797,236.67,440.845,236.361,440.845z"/>
				<path style="fill:#FFFFFF;" d="M239.516,432.771h1.61l1.633,4.754l0.287,1.015h0.088l0.309-1.015l1.699-4.754h1.61l-2.879,7.897
					h-1.566L239.516,432.771z"/>
				<path style="fill:#FFFFFF;" d="M251.097,436.334h3.871c0.022,0.089,0.04,0.195,0.055,0.32c0.015,0.125,0.023,0.25,0.023,0.375
					c0,0.507-0.078,0.985-0.232,1.434c-0.154,0.449-0.397,0.849-0.728,1.202c-0.353,0.375-0.775,0.666-1.268,0.871
					c-0.493,0.206-1.055,0.309-1.688,0.309c-0.574,0-1.114-0.103-1.621-0.309c-0.507-0.206-0.949-0.492-1.324-0.86
					c-0.375-0.367-0.673-0.803-0.894-1.307c-0.22-0.504-0.331-1.053-0.331-1.649c0-0.595,0.11-1.145,0.331-1.649
					c0.221-0.504,0.518-0.939,0.894-1.307c0.375-0.367,0.816-0.654,1.324-0.86c0.507-0.206,1.047-0.309,1.621-0.309
					c0.64,0,1.211,0.11,1.715,0.331c0.504,0.221,0.936,0.526,1.296,0.915l-1.026,1.004c-0.257-0.272-0.544-0.48-0.861-0.623
					c-0.316-0.143-0.694-0.215-1.136-0.215c-0.36,0-0.702,0.065-1.026,0.193c-0.323,0.129-0.607,0.311-0.849,0.546
					c-0.243,0.235-0.436,0.52-0.579,0.855c-0.143,0.335-0.215,0.708-0.215,1.119c0,0.412,0.072,0.785,0.215,1.12
					c0.143,0.335,0.338,0.62,0.585,0.855c0.246,0.235,0.531,0.418,0.854,0.546c0.324,0.129,0.669,0.193,1.037,0.193
					c0.419,0,0.774-0.061,1.064-0.182c0.29-0.121,0.539-0.278,0.745-0.469c0.147-0.132,0.274-0.3,0.38-0.502
					c0.107-0.202,0.189-0.428,0.248-0.678h-2.482V436.334z"/>
			</g>
			<g>
				<path style="fill:#FFFFFF;" d="M297.3,431.299c-0.006-1.224-0.959-2.121-2.189-2.14c-0.924-0.014-0.832,0.12-0.834-0.867
					c-0.003-1.097-0.007-2.194,0.003-3.292c0.003-0.379-0.112-0.691-0.362-0.976c-2.342-2.668-4.678-5.342-7.019-8.011
					c-0.12-0.137-0.275-0.244-0.414-0.366c-6.214,0-12.427,0-18.641,0c-0.794,0.293-1.14,0.868-1.138,1.709
					c0.01,3.748,0.004,7.496,0.004,11.243c0,0.556-0.003,0.589-0.55,0.551c-1.497-0.102-2.516,0.986-2.497,2.492
					c0.044,3.476,0.013,6.953,0.014,10.429c0.001,1.58,0.867,2.443,2.45,2.449c0.582,0.002,0.582,0.002,0.582,0.6
					c0,2.219-0.001,4.438,0.001,6.657c0.001,1.192,0.58,1.771,1.768,1.771c8.013,0.001,16.027,0.001,24.04,0
					c1.168,0,1.755-0.583,1.757-1.745c0.002-2.256,0-4.512,0.001-6.768c0-0.512,0.002-0.511,0.52-0.515
					c0.271-0.002,0.541,0.008,0.809-0.058c0.996-0.246,1.69-1.044,1.694-2.069C297.315,438.696,297.318,434.997,297.3,431.299z
					 M268.85,417.162c5.337,0,10.674,0,16.01,0c0.548,0,0.554,0.007,0.554,0.561c0.001,2.243-0.001,4.486,0.001,6.73
					c0.001,0.811,0.249,1.059,1.06,1.059c1.91,0.001,3.821,0,5.731,0.001c0.458,0,0.479,0.021,0.481,0.483
					c0.003,0.887,0.002,1.775,0,2.662c-0.001,0.477-0.024,0.498-0.504,0.499c-3.895,0.001-7.79,0-11.684,0
					c-3.882,0-7.765,0-11.647,0c-0.55,0-0.552-0.001-0.552-0.561c-0.001-3.624-0.001-7.247,0-10.871
					C268.299,417.166,268.303,417.162,268.85,417.162z M292.135,451.579c-3.883,0.001-7.766,0-11.65,0c-3.871,0-7.742,0-11.613,0
					c-0.572,0-0.574-0.002-0.574-0.579c-0.001-1.997-0.001-3.994,0.001-5.991c0-0.464,0.023-0.486,0.478-0.487
					c7.803-0.001,15.607-0.001,23.41,0c0.478,0,0.499,0.02,0.499,0.503c0.001,1.997,0.001,3.994,0,5.991
					C292.687,451.574,292.682,451.579,292.135,451.579z"/>
			</g>
			<g>
				<path style="fill:#FFFFFF;" d="M272.966,434.183v1.831h3.165v1.412h-3.165v1.831h3.518v1.412h-5.007v-7.897h5.007v1.412H272.966
					z"/>
				<path style="fill:#FFFFFF;" d="M277.852,440.669v-7.897h2.779c0.375,0,0.726,0.061,1.053,0.182
					c0.327,0.121,0.612,0.292,0.855,0.513c0.243,0.221,0.434,0.483,0.574,0.789c0.14,0.305,0.209,0.642,0.209,1.009
					c0,0.375-0.07,0.715-0.209,1.02c-0.14,0.305-0.331,0.568-0.574,0.789c-0.243,0.221-0.528,0.392-0.855,0.513
					c-0.327,0.121-0.678,0.182-1.053,0.182h-1.29v2.901H277.852z M280.653,436.356c0.389,0,0.684-0.111,0.882-0.331
					c0.199-0.22,0.298-0.474,0.298-0.761c0-0.14-0.024-0.276-0.072-0.408c-0.048-0.132-0.121-0.248-0.221-0.347
					c-0.099-0.099-0.222-0.178-0.37-0.237c-0.147-0.059-0.32-0.089-0.518-0.089h-1.312v2.173H280.653z"/>
				<path style="fill:#FFFFFF;" d="M286.797,440.845c-0.338,0-0.662-0.048-0.971-0.143c-0.309-0.095-0.592-0.239-0.849-0.43
					c-0.257-0.191-0.482-0.425-0.673-0.7c-0.191-0.276-0.342-0.597-0.452-0.965l1.401-0.551c0.103,0.397,0.283,0.726,0.541,0.987
					c0.257,0.261,0.595,0.392,1.015,0.392c0.154,0,0.303-0.02,0.447-0.061c0.143-0.04,0.272-0.099,0.386-0.176
					c0.114-0.077,0.204-0.175,0.27-0.292c0.066-0.118,0.1-0.254,0.1-0.408c0-0.147-0.026-0.279-0.077-0.397
					c-0.051-0.117-0.138-0.227-0.259-0.331c-0.121-0.103-0.279-0.202-0.474-0.298c-0.195-0.095-0.436-0.195-0.723-0.298
					l-0.485-0.176c-0.213-0.073-0.428-0.173-0.645-0.298c-0.217-0.125-0.414-0.276-0.59-0.452c-0.176-0.176-0.322-0.384-0.436-0.623
					c-0.114-0.239-0.171-0.509-0.171-0.81c0-0.309,0.061-0.597,0.182-0.866c0.121-0.268,0.294-0.503,0.518-0.706
					c0.224-0.202,0.493-0.36,0.805-0.474c0.312-0.114,0.66-0.171,1.042-0.171c0.397,0,0.741,0.053,1.031,0.16
					c0.29,0.107,0.537,0.243,0.739,0.408c0.202,0.165,0.365,0.348,0.491,0.546c0.125,0.199,0.217,0.386,0.276,0.563l-1.312,0.551
					c-0.074-0.221-0.208-0.419-0.403-0.596c-0.195-0.176-0.462-0.265-0.799-0.265c-0.324,0-0.592,0.075-0.805,0.226
					c-0.213,0.151-0.32,0.348-0.32,0.59c0,0.235,0.103,0.436,0.309,0.601c0.206,0.165,0.533,0.325,0.982,0.48l0.496,0.165
					c0.316,0.111,0.605,0.237,0.866,0.381c0.261,0.143,0.485,0.314,0.673,0.513c0.187,0.199,0.331,0.425,0.43,0.678
					c0.099,0.254,0.149,0.546,0.149,0.877c0,0.412-0.083,0.767-0.248,1.064c-0.165,0.298-0.377,0.542-0.634,0.734
					c-0.258,0.191-0.548,0.335-0.872,0.43C287.422,440.797,287.105,440.845,286.797,440.845z"/>
			</g>
			<g>
				<path style="fill:#FFFFFF;" d="M321.394,439.168l4.004-4.985h-3.827v-1.412h5.559v1.5l-3.96,4.985h4.004v1.412h-5.779V439.168z"
					/>
				<path style="fill:#FFFFFF;" d="M328.409,432.771h1.489v7.897h-1.489V432.771z"/>
				<path style="fill:#FFFFFF;" d="M331.486,440.669v-7.897h2.779c0.375,0,0.726,0.061,1.053,0.182
					c0.327,0.121,0.612,0.292,0.855,0.513s0.434,0.483,0.574,0.789c0.14,0.305,0.209,0.642,0.209,1.009
					c0,0.375-0.07,0.715-0.209,1.02c-0.14,0.305-0.331,0.568-0.574,0.789c-0.243,0.221-0.528,0.392-0.855,0.513
					c-0.327,0.121-0.678,0.182-1.053,0.182h-1.29v2.901H331.486z M334.288,436.356c0.389,0,0.684-0.111,0.882-0.331
					c0.199-0.22,0.298-0.474,0.298-0.761c0-0.14-0.024-0.276-0.072-0.408c-0.048-0.132-0.121-0.248-0.221-0.347
					c-0.099-0.099-0.222-0.178-0.37-0.237c-0.147-0.059-0.32-0.089-0.518-0.089h-1.312v2.173H334.288z"/>
			</g>
		</g>
		<g style="opacity:0.61;">
			<path style="fill:#FFFFFF;" d="M300.133,433.27h9.067v2.242h-9.067V433.27z M300.133,437.136h9.067v2.243h-9.067V437.136z"/>
		</g>
	</g>
	<g style="opacity:0.61;">
		<path style="fill:#FFFFFF;" d="M156.756,478.878h1.607c1.263,0,2.114,0.812,2.114,1.974c0,1.161-0.851,1.973-2.114,1.973h-1.607
			V478.878z M158.34,482.464c1.049,0,1.725-0.665,1.725-1.612c0-0.947-0.677-1.613-1.725-1.613h-1.167v3.225H158.34z"/>
		<path style="fill:#FFFFFF;" d="M165.139,480.851c0-1.15,0.879-2.007,2.075-2.007c1.184,0,2.069,0.851,2.069,2.007
			c0,1.156-0.885,2.007-2.069,2.007C166.019,482.858,165.139,482.002,165.139,480.851z M168.866,480.851
			c0-0.942-0.705-1.635-1.652-1.635c-0.953,0-1.663,0.693-1.663,1.635c0,0.941,0.71,1.635,1.663,1.635
			C168.162,482.486,168.866,481.793,168.866,480.851z"/>
		<path style="fill:#FFFFFF;" d="M179.596,478.878l-1.331,3.947h-0.44l-1.156-3.366l-1.161,3.366h-0.434l-1.331-3.947h0.429
			l1.139,3.394l1.178-3.394h0.389l1.161,3.411l1.156-3.411H179.596z"/>
		<path style="fill:#FFFFFF;" d="M187.731,478.878v3.947h-0.344l-2.537-3.202v3.202h-0.417v-3.947h0.344l2.543,3.203v-3.203H187.731
			z"/>
		<path style="fill:#FFFFFF;" d="M193.093,478.878h0.417v3.586h2.21v0.361h-2.627V478.878z"/>
		<path style="fill:#FFFFFF;" d="M200.061,480.851c0-1.15,0.879-2.007,2.075-2.007c1.184,0,2.069,0.851,2.069,2.007
			c0,1.156-0.885,2.007-2.069,2.007C200.941,482.858,200.061,482.002,200.061,480.851z M203.788,480.851
			c0-0.942-0.705-1.635-1.652-1.635c-0.953,0-1.663,0.693-1.663,1.635c0,0.941,0.71,1.635,1.663,1.635
			C203.083,482.486,203.788,481.793,203.788,480.851z"/>
		<path style="fill:#FFFFFF;" d="M211.636,481.77h-2.199l-0.474,1.054h-0.434l1.804-3.947h0.412l1.804,3.947h-0.44L211.636,481.77z
			 M211.484,481.432l-0.947-2.12l-0.947,2.12H211.484z"/>
		<path style="fill:#FFFFFF;" d="M217.28,478.878h1.607c1.263,0,2.114,0.812,2.114,1.974c0,1.161-0.851,1.973-2.114,1.973h-1.607
			V478.878z M218.864,482.464c1.049,0,1.725-0.665,1.725-1.612c0-0.947-0.677-1.613-1.725-1.613h-1.167v3.225H218.864z"/>
		<path style="fill:#FFFFFF;" d="M234.041,481.77h-2.199l-0.474,1.054h-0.434l1.804-3.947h0.412l1.804,3.947h-0.44L234.041,481.77z
			 M233.889,481.432l-0.947-2.12l-0.947,2.12H233.889z"/>
		<path style="fill:#FFFFFF;" d="M239.685,478.878h0.417v3.586h2.21v0.361h-2.627V478.878z"/>
		<path style="fill:#FFFFFF;" d="M247.082,478.878h0.417v3.586h2.21v0.361h-2.627V478.878z"/>
		<path style="fill:#FFFFFF;" d="M260.449,479.239v1.551h2.041v0.361h-2.041v1.675h-0.417v-3.947h2.706v0.361H260.449z"/>
		<path style="fill:#FFFFFF;" d="M267.678,478.878h0.417v3.947h-0.417V478.878z"/>
		<path style="fill:#FFFFFF;" d="M273.456,478.878h0.417v3.586h2.21v0.361h-2.627V478.878z"/>
		<path style="fill:#FFFFFF;" d="M283.644,482.464v0.361h-2.791v-3.947h2.706v0.361h-2.289v1.404h2.041v0.355h-2.041v1.466H283.644z
			"/>
		<path style="fill:#FFFFFF;" d="M294.672,479.239v1.551h2.041v0.361h-2.041v1.675h-0.417v-3.947h2.706v0.361H294.672z"/>
		<path style="fill:#FFFFFF;" d="M301.5,480.851c0-1.15,0.879-2.007,2.075-2.007c1.184,0,2.069,0.851,2.069,2.007
			c0,1.156-0.885,2.007-2.069,2.007C302.379,482.858,301.5,482.002,301.5,480.851z M305.226,480.851
			c0-0.942-0.705-1.635-1.652-1.635c-0.953,0-1.663,0.693-1.663,1.635c0,0.941,0.71,1.635,1.663,1.635
			C304.522,482.486,305.226,481.793,305.226,480.851z"/>
		<path style="fill:#FFFFFF;" d="M313.351,482.825l-0.902-1.269c-0.102,0.011-0.203,0.017-0.316,0.017h-1.06v1.252h-0.417v-3.947
			h1.477c1.004,0,1.613,0.507,1.613,1.353c0,0.62-0.327,1.054-0.902,1.24l0.964,1.353H313.351z M313.328,480.231
			c0-0.632-0.417-0.992-1.207-0.992h-1.048v1.979h1.048C312.911,481.218,313.328,480.851,313.328,480.231z"/>
		<path style="fill:#FFFFFF;" d="M322.907,478.878v3.947h-0.4v-3.158l-1.551,2.656h-0.197l-1.551-2.639v3.14h-0.4v-3.947h0.344
			l1.714,2.926l1.697-2.926H322.907z"/>
		<path style="fill:#FFFFFF;" d="M330.744,481.77h-2.199l-0.473,1.054h-0.434l1.804-3.947h0.411l1.804,3.947h-0.44L330.744,481.77z
			 M330.592,481.432l-0.947-2.12l-0.947,2.12H330.592z"/>
		<path style="fill:#FFFFFF;" d="M336.957,479.239h-1.387v-0.361h3.192v0.361h-1.387v3.586h-0.417V479.239z"/>
		<path style="fill:#FFFFFF;" d="M343.063,482.346l0.164-0.321c0.282,0.276,0.784,0.479,1.302,0.479c0.739,0,1.06-0.31,1.06-0.699
			c0-1.083-2.43-0.417-2.43-1.877c0-0.581,0.451-1.083,1.455-1.083c0.446,0,0.908,0.13,1.224,0.35l-0.141,0.333
			c-0.338-0.22-0.733-0.327-1.083-0.327c-0.722,0-1.043,0.321-1.043,0.716c0,1.083,2.43,0.429,2.43,1.866
			c0,0.581-0.462,1.077-1.472,1.077C343.937,482.858,343.356,482.65,343.063,482.346z"/>
	</g>
</g>
<g>
</g>
<g>
	<path d="M30.591,250.569V201.17h18.83c4.073,0,7.665,0.657,10.773,1.971c3.11,1.314,5.694,3.065,7.796,5.299
		s3.679,4.817,4.729,7.839c1.052,2.978,1.62,6.175,1.62,9.59c0,3.767-0.612,7.139-1.795,10.204
		c-1.182,3.022-2.846,5.649-5.036,7.795c-2.19,2.146-4.817,3.81-7.883,4.993c-3.065,1.182-6.481,1.795-10.247,1.795H30.591V250.569z
		 M61.421,225.782c0-2.015-0.263-3.854-0.789-5.474c-0.525-1.664-1.313-3.066-2.32-4.248c-1.008-1.182-2.234-2.102-3.679-2.759
		c-1.445-0.657-3.109-1.007-4.905-1.007h-6.437v27.108h6.393c1.84,0,3.504-0.351,4.993-1.008c1.445-0.7,2.715-1.62,3.678-2.846
		c1.007-1.226,1.752-2.672,2.277-4.336C61.158,229.549,61.421,227.753,61.421,225.782"/>
	<path d="M30.591,299.223v-43.18h16.466c3.547,0,6.7,0.569,9.415,1.708c2.716,1.139,4.992,2.672,6.832,4.643
		c1.839,1.926,3.197,4.248,4.116,6.831c0.92,2.628,1.402,5.386,1.402,8.365c0,3.284-0.526,6.262-1.533,8.89
		c-1.051,2.67-2.496,4.904-4.423,6.832c-1.927,1.882-4.204,3.328-6.876,4.379c-2.671,1.05-5.649,1.532-8.933,1.532H30.591z
		 M57.523,277.546c0-1.752-0.219-3.328-0.701-4.817c-0.481-1.446-1.138-2.672-2.014-3.723c-0.876-1.007-1.971-1.839-3.241-2.408
		c-1.27-0.57-2.715-0.876-4.291-0.876h-5.562v23.691h5.605c1.621,0,3.066-0.305,4.336-0.875c1.27-0.613,2.365-1.445,3.241-2.497
		c0.876-1.051,1.532-2.32,1.97-3.766C57.304,280.83,57.523,279.254,57.523,277.546"/>
	<path d="M168.144,250.569V201.17h19.006c3.898,0,7.489,0.657,10.598,1.971c3.109,1.314,5.693,3.065,7.795,5.299
		c2.102,2.234,3.679,4.817,4.73,7.839c1.051,2.978,1.62,6.175,1.62,9.59c0,3.767-0.613,7.139-1.795,10.204
		c-1.183,3.022-2.847,5.649-5.037,7.795c-2.189,2.146-4.817,3.81-7.882,4.993c-3.066,1.182-6.482,1.795-10.248,1.795h-18.787
		V250.569z M198.974,225.782c0-2.015-0.263-3.854-0.788-5.474c-0.525-1.664-1.314-3.066-2.321-4.248s-2.233-2.102-3.679-2.759
		c-1.445-0.657-3.109-1.007-4.904-1.007h-6.394v27.108h6.394c1.839,0,3.503-0.351,4.992-1.008c1.445-0.7,2.715-1.62,3.679-2.846
		c1.007-1.226,1.751-2.672,2.277-4.336C198.711,229.549,198.974,227.753,198.974,225.782"/>
	<polygon points="114.016,239.446 109.637,250.613 78.85,250.613 78.85,201.171 114.104,201.171 114.104,212.339 91.375,212.339 
		91.375,219.958 112.045,219.958 112.045,230.95 91.375,230.95 91.375,239.446 	"/>
	<path d="M134.292,201.171h13.182l18.831,49.398h-13.094l-3.547-9.546h-17.956l-3.459,9.546h-12.7L134.292,201.171z M145.81,230.381
		l-5.08-13.838l-5.08,13.838H145.81z"/>
	<path d="M83.755,256.043h11.517l16.467,43.179h-11.474l-3.109-8.32H81.478l-3.022,8.32h-11.08L83.755,256.043z M93.827,281.574
		l-4.423-12.087l-4.423,12.087H93.827z"/>
	<polygon points="284.545,201.259 294.881,220.528 305.26,201.259 318.967,201.259 301.012,233.14 301.012,250.613 288.093,250.613 
		288.093,233.009 270.575,201.302 284.545,201.302 	"/>
	<polygon points="148.393,299.222 148.393,256.042 159.735,256.042 159.735,289.456 178.128,289.456 174.275,299.222 	"/>
	<rect x="181.895" y="256.043" width="11.342" height="43.18"/>
	<polygon points="278.327,256.043 278.327,299.223 266.984,299.223 266.984,282.144 250.299,282.144 250.299,299.223 
		238.957,299.223 238.957,256.043 250.299,256.043 250.299,272.422 266.984,272.422 266.984,256.043 	"/>
	<polygon points="314.937,265.721 305.434,265.721 305.434,299.222 294.091,299.222 294.091,265.721 282.224,265.721 
		282.224,256.042 318.834,256.042 	"/>
	<polygon points="115.549,256 124.614,272.903 133.679,256 145.679,256 129.957,283.939 129.957,299.223 118.658,299.223 
		118.658,283.808 103.287,256 	"/>
	<path d="M269.831,229.592c-1.664-2.058-3.898-3.503-6.745-4.335c2.366-1.051,4.161-2.671,5.343-4.774
		c1.183-2.102,1.796-4.335,1.796-6.656c0-1.577-0.264-3.11-0.789-4.642c-0.525-1.489-1.313-2.847-2.277-4.029
		c-0.963-1.183-2.19-2.146-3.547-2.89c-1.402-0.745-2.978-1.096-4.686-1.096h-26.232v49.443h21.852c2.41,0,4.731-0.263,6.876-0.745
		c2.19-0.482,4.073-1.226,5.694-2.277c1.62-1.007,2.933-2.321,3.853-3.941c0.92-1.621,1.402-3.504,1.402-5.737
		C272.283,234.453,271.451,231.65,269.831,229.592 M243.599,211.593h10.159c0.832,0,1.84,0.35,2.453,1.051
		c0.613,0.701,1.226,1.883,1.226,3.504c0,1.839-0.656,3.109-1.357,3.722c-0.701,0.613-1.796,0.92-2.671,0.92h-9.766v-9.197H243.599z
		 M257.481,239.358c-0.788,0.657-1.971,1.007-2.891,1.007h-10.816v-9.853h11.255c0.876,0,2.015,0.394,2.671,1.138
		c0.657,0.745,1.314,2.015,1.314,3.767C259.014,237.387,258.269,238.701,257.481,239.358"/>
	<path d="M235.847,275.006h-15.634l-3.941,9.24h10.597v2.847c-2.145,1.708-4.685,2.89-7.225,2.89c-1.664,0-3.153-0.307-4.511-0.875
		c-1.357-0.57-2.496-1.402-3.459-2.454c-0.964-1.05-1.708-2.32-2.278-3.765c-0.525-1.446-0.788-3.11-0.788-4.905
		c0-1.752,0.263-3.373,0.788-4.861c0.526-1.489,1.27-2.76,2.234-3.854c0.963-1.095,2.058-1.927,3.372-2.496
		c0.087-0.044,0.175-0.088,0.262-0.131c1.139-0.526,2.584-0.876,4.205-0.876c0.262,0,0.525,0,0.788,0.044
		c0.132,0,0.263,0,0.394,0.043h0.044c0.482,0.044,0.964,0.132,1.401,0.263c1.489,0.306,2.847,0.701,4.161,1.27
		c1.488,0.613,2.846,1.401,4.116,2.277l3.81-9.065c-1.139-1.007-2.365-1.883-3.722-2.627c-1.533-0.832-3.241-1.489-5.036-1.928
		c-1.84-0.437-3.723-0.656-5.694-0.656c-3.196,0-6.131,0.569-8.889,1.708c-2.76,1.139-5.124,2.671-7.183,4.641
		c-2.014,1.971-3.634,4.292-4.773,6.963c-1.139,2.672-1.751,5.562-1.751,8.671c0,3.592,0.569,6.788,1.751,9.591
		c1.139,2.803,2.715,5.168,4.642,7.139c1.927,1.927,4.204,3.416,6.832,4.423c2.584,1.006,5.342,1.532,8.189,1.532
		c6.656,0,12.788-1.883,17.298-7.094V275.006z"/>
	<path d="M408.785,206.907l-1.007-1.138c-0.044-0.044-0.044-0.044-0.088-0.044l-3.065-0.351h-0.088l-1.707,0.701
		c0,0-0.044,0-0.044,0.044l-0.832,0.876c-0.088,0.087-0.044,0.263,0.087,0.263h0.35c0.044,0,0.088,0,0.088,0.044l0.394,0.394
		c0.044,0.043,0.088,0.043,0.132,0.043l2.628-0.35c0.131,0,0.174-0.219,0.087-0.307c-0.131-0.087-0.044-0.262,0.087-0.306
		l1.49-0.088h0.044l1.269,0.438C408.742,207.214,408.873,207.038,408.785,206.907"/>
	<path d="M360.525,220.396l-1.27,0.175c-0.043,0-0.087,0.044-0.087,0.044l-1.095,1.051c-0.087,0.087-0.087,0.219,0,0.307
		l0.394,0.306c0.044,0.044,0.088,0.044,0.175,0.044l0.964-0.132c0.044,0,0.044,0,0.087-0.043l0.789-0.482
		c0.043-0.044,0.087-0.087,0.087-0.131l0.22-0.876C360.789,220.484,360.701,220.352,360.525,220.396"/>
	<path d="M358.336,219.388v-0.043c-0.044-0.088-0.131-0.132-0.219-0.088l-1.138,0.175c-0.088,0-0.131,0.044-0.131,0.131
		l-0.395,0.876c-0.044,0.088-0.175,0.132-0.263,0.088l-2.189-0.964c-0.176-0.087-0.351,0.088-0.263,0.263v0.044
		c0,0.044,0.044,0.044,0.044,0.087l2.54,2.015c0.043,0.044,0.175,0.044,0.219,0l0.613-0.394c0.043-0.044,0.087-0.088,0.087-0.175
		l0.044-1.008c0-0.044,0.044-0.131,0.088-0.175l0.876-0.613C358.336,219.607,358.38,219.476,358.336,219.388"/>
	<path d="M353.825,214.352l3.854,0.044c0.131,0,0.219-0.087,0.219-0.219v-0.394c0-0.132,0.175-0.263,0.307-0.175l0.876,0.437
		c0.043,0.044,0.087,0.044,0.131,0l0.175-0.043c0.131-0.044,0.219-0.219,0.087-0.351l-1.269-1.182
		c-0.044-0.044-0.088-0.044-0.132-0.044l-1.62-0.219c-0.088,0-0.175-0.087-0.175-0.219c0-0.087-0.088-0.175-0.176-0.218
		l-1.401-0.088c-0.044,0-0.087,0-0.087,0.044l-2.102,1.094c-0.044,0.044-0.088,0.088-0.088,0.132l-0.175,0.788
		c-0.044,0.132,0.088,0.263,0.219,0.263l0.438-0.044c0.043,0,0.087,0,0.087-0.044l0.307-0.263c0.131-0.087,0.306,0,0.306,0.132
		v0.262C353.65,214.265,353.738,214.352,353.825,214.352"/>
	<path d="M383.867,204.017l-0.044-0.044l-2.058-0.788h-0.087l-1.358,0.044c-0.088,0-0.175,0.087-0.175,0.175v0.569
		c0,0.088,0.043,0.131,0.131,0.175l1.095,0.307h0.044l0.481,0.219c0.044,0,0.044,0.044,0.044,0.044l0.439,0.656
		c0.043,0.044,0.131,0.088,0.175,0.044l0.919-0.306h0.131l0.439,0.306h0.043l0.745,0.219h0.131l0.262-0.175
		c0.088-0.044,0.088-0.175,0-0.262L383.867,204.017z"/>
	<path d="M431.513,223.505l0.044-0.35c0-0.044,0-0.088-0.044-0.132l-0.744-1.226c-0.044-0.044-0.044-0.087-0.132-0.087l-1.795-0.614
		h-0.044h-0.35c-0.131,0-0.219,0.088-0.219,0.22v0.744c0,0.044,0,0.088,0.044,0.088l0.437,0.744l0.351,0.526
		c0.044,0.043,0.044,0.043,0.088,0.087l0.525,0.175h0.088l1.488-0.044C431.382,223.724,431.469,223.636,431.513,223.505"/>
	<path d="M428.536,219.388c-0.044,0-0.088-0.043-0.088-0.043l-2.452-0.044c-0.044,0-0.132,0.044-0.175,0.087l-0.613,0.657
		c-0.132,0.132-0.044,0.307,0.131,0.35l0.482,0.088h0.087l0.745-0.088l0.919-0.175c0.088,0,0.176-0.087,0.176-0.219v-0.044
		c0-0.131,0.087-0.218,0.219-0.218h0.525C428.624,219.739,428.711,219.476,428.536,219.388"/>
	<path d="M468.694,271.108c-1.445-0.701-3.153,0.349-4.248-1.139c-1.095-1.489-4.336-2.496-4.336-2.496s-1.664-1.095-3.284-0.613
		c-1.62,0.481-2.847-1.271-2.847-1.271s-1.62,0.483-2.452-0.612c-0.832-1.096-6.744-2.191-6.744-2.191s-2.978,0.483-3.284-0.7
		c-0.263-1.182-0.746-1.796-1.183-1.533c-0.481,0.263-0.263,0.789-1.445,0.613c-1.183-0.174-2.584-0.35-3.723-1.007
		c-1.139-0.657-2.189-0.657-3.065-0.438c-0.482,0.132-1.358-0.175-2.058-0.438l0.043-1.926l0.832-2.19l0.088-11.868l1.008-2.277
		l0.612,10.247l1.008-22.728l-0.832-1.445l1.051-1.971l-0.526-0.613l0.131-2.496l-1.883-4.029l-2.452-1.27l-0.832-0.832
		l-0.876-7.533l-1.27,7.752l-0.438,0.394l-0.351-0.438l-0.7-4.511l-0.569,5.868l-0.525-1.795l-0.789,2.891l-1.095,0.919
		l-0.788,4.073l0.131,0.788l0.57,1.839v1.445v3.241l-0.657,2.058v7.095l1.05,6.35l0.483-4.555l0.7,2.102l-0.7,8.627l0.175,4.643
		c-0.395-0.22-0.832-0.482-1.183-0.745c0,0-0.963,0.132-2.146-0.613c-1.182-0.745-1.226,0.175-2.496-0.263
		c-1.27-0.438-0.262-1.795-1.401-1.751c-1.139,0-2.321,0.393-5.693-0.439c0,0-0.438-0.13-1.139-0.306v-2.408l0.263-1.752
		l0.044-13.751c0,0,0.613-3.066,0.701-3.066c0.087,0,0.043,14.058,0.043,14.058l0.613-1.445l0.876-20.276l-1.095-3.504l0.219-7.357
		l1.314-4.16l-0.919-4.555l-1.402-0.525l-1.182-3.11l-0.614,1.577l-2.364-1.095l-0.701-3.503l-0.92,4.248l-0.832-7.226l-1.27,8.364
		l-1.926,2.321l-0.176,1.664l-0.832,2.278l0.35,2.583l-0.613,2.19l0.788,1.401l0.439,11.649v0.088l0.218,0.657l-0.044,1.095
		l-0.174,7.094l0.963,3.722l0.044,9.722l0.043,0.526c-0.569-0.219-0.963-0.394-1.182-0.526c-1.226-0.876-2.146-2.671-4.511-2.846
		c-0.832-0.394-0.832-0.832-1.883-1.226c-1.051-0.394-3.24-1.665-4.072-1.577c-0.876,0.088-1.928,0.307-1.928,0.307l-0.437-0.132
		l0.219-10.116l-0.614-2.54l0.176-9.284l0.569-2.321l0.394,9.985l0.482-13.926l0.963-2.584l-0.219-2.365l-0.087-2.234l-0.175-3.021
		l-0.482-2.715l-0.832-0.219l-0.613-6.438l-0.964,5.343l-0.306-4.949l-0.701,3.197l-0.613-8.057l-2.059,8.32l-2.67,0.964
		l-3.767,0.963l-1.97,3.766l0.043,7.576l1.489,3.898l-0.087,6.744l1.839,4.992l-1.094,2.365l0.437,9.459l0.044,0.526
		c-0.088,0-0.175-0.044-0.219-0.044c-1.226-0.35-1.007-1.533-1.752-1.927c0,0-1.838,1.139-4.422,0.482
		c-2.584-0.657-7.839-2.453-7.839-2.453s-0.219-0.043-0.57-0.175v-2.715v-2.671l1.007-2.672l0.132-5.43l0.35-0.832l-0.131-2.233
		l0.788-1.489l0.613-2.234l-1.445-6.744l-0.569,2.803l-1.007-11.386l-1.84,9.459l-0.963-5.737l-0.964,4.029l-3.021-0.175
		l-3.285,2.628v1.883l-0.963,1.97l0.218,2.672l-0.218,1.97l0.043,4.117l-1.138,4.116l1.532,6.526v0.087
		c-2.846,0.175-8.408-0.481-9.896-1.313c-1.49-0.876-2.059-1.928-3.723-1.928s-1.489-0.481-2.847-1.401
		c-1.357-0.963-2.933-1.927-3.153-1.971c-0.656-0.087-1.007-0.569-1.444-0.832c-0.702-0.394-1.796-0.525-2.497-0.657
		c-0.394-0.087-0.833-0.175-1.226,0c-0.307,0.132-0.482,0.351-0.701,0.57c-0.263,0.306-0.57,0.569-0.832,0.876
		c-0.307,0.306-4.379,1.576-4.73,3.678c-0.306,1.752-2.54,2.934,1.708,8.014c3.022,3.635,11.562,2.759,12.131,3.81
		c0.569,1.095,2.934,0.438,3.591,0.876s4.073,3.548,5.387,3.591c1.313,0.044,1.489-0.481,2.145,0c0.657,0.482,3.46,1.139,3.46,1.139
		s1.227,0.7,2.803,0.788v2.364l0.35,1.49l0.482,22.859l0.92-18.611l0.525,1.795l0.131,15.591l1.052,4.641l-0.176,5.256l0.351,1.927
		l0.044,4.948l1.225,11.868l1.227-11.868l-0.132-6.263l0.833-2.758l0.043-8.846l0.701,14.495l1.051-22.466l-0.175-1.489l1.751-5.079
		l-0.043-5.036l0.656-1.359v-2.496l0.92,0.132c0,0,5.868,0.394,6,1.708c0.131,1.313,2.146,3.021,5.999,3.635
		c2.321,0.087,2.672,1.532,2.672,1.532s0.044,0.132,0.175,0.307v0.218l-0.088,5.036l0.92,4.03l-0.088,4.729l0.438,2.584
		l0.526,18.962l0.613-8.715l0.131,12.613l0.657,9.065l1.708-20.276l-0.219-5.955l1.051-3.416l0.263-13.663l0.657-4.95
		c0.087,0,0.175-0.044,0.263-0.044l0.131,17.955l1.445-18.086c0.701-0.087,1.183-0.174,1.183-0.174s2.101-0.745,2.758,0.525
		c0.658,1.27,1.271,2.759,1.796,2.583c0.57-0.219,1.577-0.7,2.014,0.395c0.482,1.094,0.789,1.138-0.919,1.313
		c-0.132,0-0.132,0.525,0.744,0.876c0.876,0.351,1.095,0.439,1.708,0c2.584-1.752,4.204-1.357,4.204-1.357s2.102-0.526,2.715,0.174
		c0.044,0.044,0.088,0.132,0.176,0.176l0.087,7.226l-0.656,3.109l1.532,13.839l0.569-11.255l0.92,1.358l0.438,19.356l0.963-8.233
		v-4.248l1.007-2.583v-13.358l0.964-3.24c0.57,0.175,1.051,0.437,1.27,0.744c0.657,1.008,4.161-0.131,5.08,0
		c0.92,0.132,4.729,1.051,4.729,1.051s-0.306,0.789,0.614,0.657c0.919-0.088,3.985-2.059,5.168-1.927
		c0.262,0.044,0.525,0.044,0.744,0.044l0.174,1.27l0.044,6.35l-0.612,5.343l1.27,2.803l0.788,18.787l1.051-11.912l0.832-2.54
		l0.35-10.467l0.657,14.32l1.051-19.531l-0.657-3.766c4.073,0.701,10.423,1.97,11.168,3.109c1.095,1.708,2.408,1.533,2.058,0
		c-0.219-1.007-1.27-1.883-2.102-2.408c-1.095-0.658,4.555,0.657,4.555,0.657c2.452,0.744,6.087,1.664,6.787,1.576
		c0.964-0.088,1.401,0.088,1.927,0.657c0.526,0.526,0.745,1.795,2.671,1.489c1.927-0.307,2.759-0.788,4.686,0
		c1.971,0.788,4.467,0.525,5.912,0.525C469.175,272.772,470.139,271.852,468.694,271.108 M355.007,252.714l-0.613-22.334
		l-0.219-2.277l-0.306-2.496c-0.044-0.307-0.482-0.35-0.57-0.044v0.088l0.483,19.75l-1.446-20.626v-0.044l-0.35-1.576
		c-0.044-0.132,0.044-0.307,0.219-0.351l0.394-0.087c0.131-0.044,0.219-0.132,0.219-0.263l0.088-0.833
		c0-0.174,0.175-0.306,0.349-0.262l0.351,0.088c0.132,0.043,0.219,0.131,0.219,0.262l0.176,1.796c0,0.087,0.043,0.175,0.13,0.218
		l1.139,0.745c0.088,0.044,0.132,0.131,0.132,0.263L355.007,252.714z M360.35,223.593c-0.044,0-0.088,0.044-0.088,0.088L360,224.249
		v0.088l-0.219,6.656c0,0.263-0.394,0.263-0.394,0l-0.701-6.525v-0.044l-0.525-1.051c-0.044-0.087-0.132-0.131-0.219-0.131
		l-0.439,0.087c-0.086,0-0.174,0.088-0.174,0.176l-0.132,2.233c0,0.219-0.35,0.263-0.394,0l-0.35-2.102c0-0.044,0-0.044-0.044-0.087
		l-0.526-0.658l-0.044-0.043l-3.328-2.891c-0.088-0.043-0.175-0.043-0.262,0l-0.131,0.088c-0.088,0.044-0.132,0.175-0.044,0.263
		l0.349,0.569c0.044,0.088,0,0.263-0.087,0.307l-0.218,0.087c-0.044,0.044-0.132,0-0.176-0.044l-1.051-0.788
		c-0.044-0.044-0.088-0.088-0.088-0.175l-0.044-2.365c0-0.044,0-0.087-0.043-0.131l-0.613-0.657
		c-0.044-0.044-0.088-0.131-0.044-0.219l1.139-2.496v-0.088l-0.044-1.226c0-0.088,0.044-0.132,0.088-0.175l2.189-1.314h0.044
		l1.576-0.482h0.088l2.803,0.526c0.044,0,0.044,0,0.087,0.043l2.672,1.84c0.044,0,0.044,0.044,0.044,0.044l1.445,2.408
		c0,0.044,0,0.044,0.043,0.088l0.307,2.146v0.087l-0.263,1.402c0,0.044,0,0.044-0.044,0.088l-0.919,1.357
		c0,0.044-0.044,0.044-0.044,0.087l-0.088,1.314v0.088l0.088,0.306c0.044,0.088,0,0.176-0.088,0.219L360.35,223.593z
		 M374.758,207.827l0.57-0.745c0.044-0.087,0.174-0.087,0.262-0.044c0.131,0.044,0.175,0.176,0.087,0.307l-0.218,0.438l-0.263,0.394
		c-0.088,0.131-0.219,0.131-0.351,0.044l-0.131-0.131C374.714,208.046,374.714,207.915,374.758,207.827 M385.312,208.002
		c-0.088-0.131-0.263-0.088-0.307,0.044l-0.35,1.664c-0.043,0.175-0.306,0.175-0.306-0.044l-0.132-2.19
		c0-0.131-0.174-0.218-0.262-0.131l-0.57,0.438c-0.044,0-0.044,0.044-0.088,0.044l-0.174,0.044c-0.088,0-0.132-0.044-0.175-0.088
		l-0.439-1.27l-0.088,0.219v0.044l-0.043,0.35v0.044l0.219,1.095v0.043l0.263,0.526v0.088l-0.088,0.876v0.043l-0.351,0.789v0.044
		l-0.525,31.136l-0.437-17.692c0-0.219-0.307-0.219-0.307,0c0,0.219-0.307,0.219-0.307,0l-0.132-13.751
		c0-0.044-0.043-0.131-0.086-0.131l-0.483-0.22c-0.043,0-0.043-0.043-0.087-0.087l-0.438-0.569c0-0.044-0.043-0.044-0.087-0.088
		l-0.876-0.306c0,0,0.262,0.394,0.262,0.438c0,0.043,0.219,0.481,0.307,0.612v0.088l-0.219,5.036c0,0.219-0.306,0.219-0.306,0
		l-0.307-5.299c0-0.087-0.044-0.131-0.132-0.131l-1.138-0.306h-0.131l-0.263,0.174c-0.044,0.044-0.088,0.044-0.088,0.088
		c-0.044,0.307-0.263,1.445-0.263,1.489s-0.306-0.569-0.394-0.832c-0.043-0.044-0.087-0.087-0.131-0.087h-0.788l-0.745,0.043
		l-0.438,0.044l0.394-0.613c0-0.044,0.044-0.044,0.088-0.044l0.964-0.35c0.044,0,0.087-0.044,0.087-0.132l0.131-0.481
		c0.044-0.131,0.219-0.175,0.307-0.044l0.219,0.307c0.044,0.043,0.088,0.087,0.132,0.087l0.656-0.044
		c0.088,0,0.132-0.087,0.132-0.175l-0.044-1.314c0-0.044-0.044-0.087-0.044-0.131l-0.219-0.175c-0.088-0.044-0.088-0.176,0-0.263
		l0.657-0.657v-0.044l0.35-0.569c0.044-0.087,0.176-0.087,0.263-0.044l0.92,0.876c0.043,0.044,0.043,0.131,0,0.219l-0.395,0.526
		v0.044l-0.043,0.131c0,0.043,0,0.131,0.043,0.175l0.876,0.964c0.044,0.043,0.044,0.043,0.088,0.043l1.489,0.219
		c0.044,0,0.087,0,0.131-0.044l0.525-0.525c0.044-0.044,0.044-0.088,0.044-0.131l-0.218-1.49c0-0.043,0-0.043-0.044-0.087
		l-1.139-1.445c-0.044-0.044-0.087-0.044-0.131-0.044l-1.796-0.132c-0.088,0-1.007-0.174-1.007-0.218
		c0-0.044,0.219-0.614,0.263-0.832c0-0.044,0.087-0.088,0.131-0.088l1.27-0.175c0.044,0,0.087-0.044,0.131-0.088l0.263-0.525
		c0.044-0.044,0.088-0.088,0.132-0.088l2.277-0.394h0.087l2.103,0.657h0.044l1.488,0.832c0.044,0,0.044,0.044,0.044,0.044
		l1.533,2.452c0,0.044,0.044,0.044,0.044,0.088l-0.263,6.525l-0.132,1.576l-0.393-5.08c0-0.044,0-0.044-0.044-0.087L385.312,208.002
		z M408.085,217.988l0.043,1.752v0.044l-0.306,0.963v0.043l-0.395,18.7l-0.656-21.721c0-0.044,0.043-0.131,0.087-0.131l1.095-0.526
		c0.044-0.044,0.088-0.088,0.088-0.131v-0.438c0-0.044-0.044-0.132-0.088-0.132l-0.963-0.525c-0.044-0.044-0.088-0.088-0.088-0.132
		l-0.131-1.313l-0.307,0.613h-0.175l-0.131-3.767c0-0.218-0.307-0.218-0.307,0l-0.263,3.986c0,0.043-0.044,0.087-0.044,0.131
		l-0.394,0.307c-0.087,0.043-0.175,0.043-0.219-0.044l-0.481-0.613l-0.044-0.044l-0.263-0.832c0-0.088-0.088-0.132-0.175-0.132
		h-0.044c-0.088,0-0.175,0.088-0.175,0.176v0.569c0,0.088-0.087,0.175-0.175,0.175l-0.482-0.044c-0.044,0-0.088-0.043-0.088-0.043
		l-0.262-0.307c-0.044-0.044-0.088-0.044-0.132-0.044l-1.971-0.087c-0.087,0-0.175,0.043-0.175,0.131l-0.13,0.832
		c0,0.044,0,0.131,0.043,0.131l1.051,0.876c0.043,0.044,0.087,0.044,0.131,0.044l0.788-0.044h0.044l1.139-0.525h0.088l0.569,0.087
		c0.044,0,0.087,0.044,0.131,0.088l0.657,1.314c0.044,0.043,0.088,0.087,0.131,0.087l0.832,0.132c0.088,0,0.132,0.087,0.132,0.175
		c-0.044,1.971-0.482,24.524-0.526,30.743c-0.087-5.256-0.438-22.072-0.569-27.502c0-0.176-0.306-0.22-0.306,0l-0.175,0.963
		c-0.044,0.175-0.307,0.175-0.307,0l-0.307-2.189c0-0.044,0-0.044-0.044-0.044l-0.394-0.614c0-0.043-0.043-0.043-0.043-0.087v-0.307
		c0-0.131,0.131-0.175,0.219-0.131l0.569,0.263c0.087,0.044,0.175,0,0.219-0.088l0.263-0.569v-0.131l-0.614-1.314
		c-0.044-0.088-0.175-0.132-0.262-0.044l-0.658,0.569c-0.043,0.044-0.043,0.044-0.043,0.088l-0.262,1.533
		c0,0.043-0.044,0.087-0.044,0.087l-0.526,0.482c-0.044,0.043-0.044,0.087-0.044,0.131l-0.306,9.153
		c0,0.175-0.263,0.219-0.307,0.044l-0.307-1.489v-0.044l-0.044-9.547c0-0.087-0.087-0.175-0.174-0.175h-0.395
		c-0.088,0-0.131-0.044-0.175-0.132l-0.131-0.875c0-0.044,0-0.088-0.044-0.088l-0.963-0.92c-0.044-0.043-0.044-0.087-0.044-0.131
		l0.132-2.627c0-0.088,0.043-0.132,0.13-0.132l0.307-0.044c0.088,0,0.175,0.044,0.175,0.132l0.132,0.569
		c0,0.087,0.088,0.131,0.175,0.131l0.788-0.131c0.131-0.044,0.175-0.175,0.087-0.263l-0.832-0.832
		c-0.043-0.044-0.043-0.088-0.043-0.131l0.087-0.657c0-0.044,0-0.088-0.044-0.132l-0.481-0.569
		c-0.044-0.043-0.044-0.087-0.044-0.087l0.044-2.496c0-0.044,0-0.088,0.044-0.088l1.488-2.014c0-0.044,0.044-0.044,0.088-0.044
		l2.059-0.701c0.087-0.044,0.131-0.087,0.087-0.175v-0.263c0-0.087,0.088-0.175,0.175-0.175l3.022,0.088
		c0.044,0,0.088,0,0.088,0.043l1.225,0.964l1.534,1.751l0.044,0.044l0.744,2.321v0.044v1.007c0,0.044,0,0.088-0.044,0.132
		l-0.963,0.963l-1.008,1.051c-0.044,0.044-0.044,0.088-0.044,0.131l-0.043,1.752c0,0.044,0,0.088-0.044,0.131l-0.481,0.482
		c-0.088,0.088-0.044,0.175,0,0.263l0.525,0.35c0,0,0.044,0,0.044,0.044l0.656,0.175c0.088,0.044,0.132,0.132,0.088,0.175
		l-0.263,0.964c0,0.044-0.043,0.088-0.087,0.088l-0.876,0.481C408.128,217.899,408.085,217.943,408.085,217.988 M423.587,257.576
		l0.263-2.714l0.482-5.518l0.35,8.67C424.332,257.883,423.981,257.75,423.587,257.576 M428.317,228.761c0,0.044,0,0.087-0.044,0.131
		l-0.219,0.219c-0.044,0.044-0.044,0.088-0.044,0.132l-0.044,2.014c0,0.263-0.35,0.263-0.394,0.044l-0.263-1.577
		c0-0.087-0.087-0.175-0.175-0.175c-0.132,0-0.218,0.088-0.218,0.175l-0.088,1.84v0.043l-0.175,0.614v0.043l-0.351,23.911
		l-0.613-25.881c0-0.088-0.044-0.176-0.131-0.176l-0.22-0.087c-0.086-0.044-0.13-0.088-0.13-0.175v-0.526
		c0-0.044-0.044-0.087-0.044-0.131l-0.044-0.044c-0.088-0.088-0.088-0.219,0-0.307l0.525-0.438c0.044,0,0.044-0.043,0.044-0.087
		l0.263-0.569c0.044-0.088,0.088-0.132,0.175-0.132h1.314c0.088,0,0.175,0.044,0.175,0.132l0.044,0.131
		c0,0.044,0.088,0.087,0.132,0.131l0.262,0.088c0.043,0,0.087,0.044,0.131,0.131l0.132,0.351v0.087V228.761z M429.981,224.95
		l-0.395-0.351c-0.087-0.043-0.174-0.087-0.262-0.043l-0.57,0.306c-0.087,0.044-0.13,0.175-0.087,0.307l0.263,0.438
		c0,0.044,0.043,0.087,0.043,0.131l-0.087,0.92c0,0.131-0.088,0.219-0.219,0.175h-0.087c-0.088,0-0.176-0.044-0.176-0.132
		l-0.263-0.876c-0.044-0.087-0.087-0.131-0.175-0.131l-1.796-0.043c-0.043,0-0.086,0-0.13,0.043l-0.395,0.263
		c-0.044,0.044-0.044,0.044-0.088,0.088l-0.087,0.218c-0.044,0.088-0.088,0.132-0.176,0.132h-0.042c-0.132,0-0.22-0.088-0.22-0.219
		v-0.394c0-0.044,0.044-0.088,0.044-0.131l0.613-0.614c0.044-0.044,0.044-0.087,0.044-0.131l0.088-0.613
		c0-0.088,0.087-0.175,0.175-0.175l0.35-0.044c0.087,0,0.131-0.044,0.175-0.131l0.132-0.351c0.043-0.087,0.087-0.131,0.175-0.131
		h0.088c0.086,0,0.174,0.044,0.218,0.131l0.131,0.307c0.044,0.088,0.088,0.131,0.176,0.131h0.131c0.132,0,0.22-0.131,0.22-0.263
		l-0.044-0.394c0-0.044,0-0.044-0.044-0.087l-0.526-0.701c-0.044-0.044-0.088-0.088-0.132-0.088h-0.13
		c-0.088,0-0.176,0.044-0.22,0.132l-0.175,0.394c-0.044,0.088-0.131,0.132-0.219,0.132h-0.132c-0.086,0-0.174-0.088-0.174-0.22
		v-1.182v-0.088l-0.132-0.306c-0.043-0.088-0.131-0.132-0.263-0.132l-0.919,0.22c-0.044,0-0.044,0-0.044,0.043l-1.051,0.701
		c-0.043,0.044-0.087,0.088-0.087,0.131l-0.307,1.007v0.044c0,0.088-0.088,0.482,0,0.482c0.088,0,0.92-0.044,1.183-0.088
		c0.043,0,0.086-0.044,0.13-0.087l0.176-0.175c0.044-0.044,0.131-0.088,0.175-0.088l0.307,0.044c0.13,0,0.174,0.131,0.174,0.219
		l-0.043,0.263c0,0.044-0.043,0.131-0.087,0.131l-0.57,0.482c-0.044,0.043-0.088,0.087-0.088,0.175l0.044,0.788v0.044l-0.437,3.679
		v0.043l-0.351,1.577l0.044-5.343c0-0.044,0-0.088-0.044-0.131l-0.306-0.395c-0.132-0.131-0.351-0.087-0.351,0.088
		c-0.088,0.307-0.175,0.657-0.175,0.657c0-0.044-0.219-1.007-0.263-1.314c0-0.043-0.043-0.131-0.087-0.131
		c-0.175-0.088-0.614-0.306-0.614-0.394c0-0.088,0.044-1.095,0.044-1.358c0-0.044,0-0.087,0.044-0.131l0.744-0.963
		c0.044-0.044,0.088-0.044,0.132-0.088l0.57-0.132c0.043,0,0.086-0.043,0.086-0.043l0.789-0.832
		c0.087-0.088,0.087-0.175,0.043-0.263l-0.043-0.088c-0.087-0.087-0.043-0.218,0.087-0.306l1.227-0.745
		c0.044,0,0.044-0.043,0.088-0.043l3.021-0.132c0.044,0,0.088,0,0.131,0.044l1.095,0.7l0.088,0.088l0.438,1.008
		c0,0.043,0.043,0.043,0.043,0.087l1.708,1.577c0.044,0.043,0.044,0.043,0.044,0.087l0.263,0.701v0.088l-0.044,0.788
		c0,0.087-0.087,0.175-0.175,0.175l-0.175,0.043c-0.131,0-0.219,0.132-0.175,0.263l0.131,0.351v0.131l-0.394,1.095l-0.219,0.657
		v0.043l-0.175,8.54c0,0.263-0.394,0.263-0.438,0l-0.656-7.488l-0.264-2.672C430.068,225.037,430.025,224.994,429.981,224.95"/>
	<polygon points="322.557,259.765 322.557,256.437 321.33,256.437 321.33,255.999 324.309,255.999 324.309,256.437 323.082,256.437 
		323.082,259.765 	"/>
	<path d="M324.791,259.765v-3.766h0.744l0.876,2.671c0.088,0.263,0.132,0.439,0.176,0.57c0.043-0.131,0.131-0.351,0.219-0.614
		l0.919-2.627h0.657v3.766H327.9v-3.153l-1.094,3.153h-0.439l-1.095-3.196v3.196H324.791z"/>
</g>
</svg>
