<?xml version="1.0" encoding="UTF-8" standalone="no"?>
<!-- Generator: Adobe Illustrator 27.0.0, SVG Export Plug-In . SVG Version: 6.00 Build 0)  -->

<svg version="1.1" id="Layer_1" x="0px" y="0px" viewBox="0 0 1000 763.61932" xml:space="preserve"
	sodipodi:docname="Dead by Daylight Logo 4x1.svg" width="1000" height="763.61932"
	inkscape:version="1.2 (dc2aeda, 2022-05-15)" inkscape:export-filename="Dead by Daylight Logo 4x1.png"
	inkscape:export-xdpi="384" inkscape:export-ydpi="384" xmlns:inkscape="http://www.inkscape.org/namespaces/inkscape"
	xmlns:sodipodi="http://sodipodi.sourceforge.net/DTD/sodipodi-0.dtd" xmlns:xlink="http://www.w3.org/1999/xlink"
	xmlns="http://www.w3.org/2000/svg" xmlns:svg="http://www.w3.org/2000/svg">
	<defs id="defs1141">
























		<clipPath clipPathUnits="userSpaceOnUse" id="clipPath1619">
			<use x="0" y="0" xlink:href="#g1615" id="use1621" />
		</clipPath>
	</defs>
	<sodipodi:namedview id="namedview1139" pagecolor="#505050" bordercolor="#ffffff" borderopacity="1"
		inkscape:showpageshadow="0" inkscape:pageopacity="0" inkscape:pagecheckerboard="1" inkscape:deskcolor="#505050"
		showgrid="false" inkscape:zoom="0.58337612" inkscape:cx="604.24139" inkscape:cy="266.55188"
		inkscape:window-width="1536" inkscape:window-height="850" inkscape:window-x="-1" inkscape:window-y="25"
		inkscape:window-maximized="0" inkscape:current-layer="Layer_1" />

	<g id="g1086" transform="translate(-3.2833054e-5)">
	</g>
	<g transform="matrix(2,0,0,2,-6.1893976e-5,9.3806334e-6)" id="g5572">
		<g inkscape:label="Clip" id="g1615">
			<g id="g1596" clip-path="none">
				<g inkscape:label="Clip" id="g1594">
					<g id="g1362" transform="matrix(3.3075154,0,0,3.3075154,-1052.5762,-635.97237)">
						<path
							d="m 408.785,206.907 -1.007,-1.138 c -0.044,-0.044 -0.044,-0.044 -0.088,-0.044 l -3.065,-0.351 h -0.088 l -1.707,0.701 c 0,0 -0.044,0 -0.044,0.044 l -0.832,0.876 c -0.088,0.087 -0.044,0.263 0.087,0.263 h 0.35 c 0.044,0 0.088,0 0.088,0.044 l 0.394,0.394 c 0.044,0.043 0.088,0.043 0.132,0.043 l 2.628,-0.35 c 0.131,0 0.174,-0.219 0.087,-0.307 -0.131,-0.087 -0.044,-0.262 0.087,-0.306 l 1.49,-0.088 h 0.044 l 1.269,0.438 c 0.132,0.088 0.263,-0.088 0.175,-0.219"
							id="path1116" />
						<path
							d="m 360.525,220.396 -1.27,0.175 c -0.043,0 -0.087,0.044 -0.087,0.044 l -1.095,1.051 c -0.087,0.087 -0.087,0.219 0,0.307 l 0.394,0.306 c 0.044,0.044 0.088,0.044 0.175,0.044 l 0.964,-0.132 c 0.044,0 0.044,0 0.087,-0.043 l 0.789,-0.482 c 0.043,-0.044 0.087,-0.087 0.087,-0.131 l 0.22,-0.876 c 0,-0.175 -0.088,-0.307 -0.264,-0.263"
							id="path1118" />
						<path
							d="m 358.336,219.388 v -0.043 c -0.044,-0.088 -0.131,-0.132 -0.219,-0.088 l -1.138,0.175 c -0.088,0 -0.131,0.044 -0.131,0.131 l -0.395,0.876 c -0.044,0.088 -0.175,0.132 -0.263,0.088 l -2.189,-0.964 c -0.176,-0.087 -0.351,0.088 -0.263,0.263 v 0.044 c 0,0.044 0.044,0.044 0.044,0.087 l 2.54,2.015 c 0.043,0.044 0.175,0.044 0.219,0 l 0.613,-0.394 c 0.043,-0.044 0.087,-0.088 0.087,-0.175 l 0.044,-1.008 c 0,-0.044 0.044,-0.131 0.088,-0.175 l 0.876,-0.613 c 0.087,0 0.131,-0.131 0.087,-0.219"
							id="path1120" />
						<path
							d="m 353.825,214.352 3.854,0.044 c 0.131,0 0.219,-0.087 0.219,-0.219 v -0.394 c 0,-0.132 0.175,-0.263 0.307,-0.175 l 0.876,0.437 c 0.043,0.044 0.087,0.044 0.131,0 l 0.175,-0.043 c 0.131,-0.044 0.219,-0.219 0.087,-0.351 l -1.269,-1.182 c -0.044,-0.044 -0.088,-0.044 -0.132,-0.044 l -1.62,-0.219 c -0.088,0 -0.175,-0.087 -0.175,-0.219 0,-0.087 -0.088,-0.175 -0.176,-0.218 l -1.401,-0.088 c -0.044,0 -0.087,0 -0.087,0.044 l -2.102,1.094 c -0.044,0.044 -0.088,0.088 -0.088,0.132 l -0.175,0.788 c -0.044,0.132 0.088,0.263 0.219,0.263 l 0.438,-0.044 c 0.043,0 0.087,0 0.087,-0.044 l 0.307,-0.263 c 0.131,-0.087 0.306,0 0.306,0.132 v 0.262 c 0.044,0.22 0.132,0.307 0.219,0.307"
							id="path1122" />
						<path
							d="m 383.867,204.017 -0.044,-0.044 -2.058,-0.788 h -0.087 l -1.358,0.044 c -0.088,0 -0.175,0.087 -0.175,0.175 v 0.569 c 0,0.088 0.043,0.131 0.131,0.175 l 1.095,0.307 h 0.044 l 0.481,0.219 c 0.044,0 0.044,0.044 0.044,0.044 l 0.439,0.656 c 0.043,0.044 0.131,0.088 0.175,0.044 l 0.919,-0.306 h 0.131 l 0.439,0.306 h 0.043 l 0.745,0.219 h 0.131 l 0.262,-0.175 c 0.088,-0.044 0.088,-0.175 0,-0.262 z"
							id="path1124" />
						<path
							d="m 431.513,223.505 0.044,-0.35 c 0,-0.044 0,-0.088 -0.044,-0.132 l -0.744,-1.226 c -0.044,-0.044 -0.044,-0.087 -0.132,-0.087 l -1.795,-0.614 h -0.044 -0.35 c -0.131,0 -0.219,0.088 -0.219,0.22 v 0.744 c 0,0.044 0,0.088 0.044,0.088 l 0.437,0.744 0.351,0.526 c 0.044,0.043 0.044,0.043 0.088,0.087 l 0.525,0.175 h 0.088 l 1.488,-0.044 c 0.132,0.088 0.219,0 0.263,-0.131"
							id="path1126" />
						<path
							d="m 428.536,219.388 c -0.044,0 -0.088,-0.043 -0.088,-0.043 l -2.452,-0.044 c -0.044,0 -0.132,0.044 -0.175,0.087 l -0.613,0.657 c -0.132,0.132 -0.044,0.307 0.131,0.35 l 0.482,0.088 h 0.087 l 0.745,-0.088 0.919,-0.175 c 0.088,0 0.176,-0.087 0.176,-0.219 v -0.044 c 0,-0.131 0.087,-0.218 0.219,-0.218 h 0.525 c 0.132,0 0.219,-0.263 0.044,-0.351"
							id="path1128" />
						<path
							d="m 468.694,271.108 c -1.445,-0.701 -3.153,0.349 -4.248,-1.139 -1.095,-1.489 -4.336,-2.496 -4.336,-2.496 0,0 -1.664,-1.095 -3.284,-0.613 -1.62,0.481 -2.847,-1.271 -2.847,-1.271 0,0 -1.62,0.483 -2.452,-0.612 -0.832,-1.096 -6.744,-2.191 -6.744,-2.191 0,0 -2.978,0.483 -3.284,-0.7 -0.263,-1.182 -0.746,-1.796 -1.183,-1.533 -0.481,0.263 -0.263,0.789 -1.445,0.613 -1.183,-0.174 -2.584,-0.35 -3.723,-1.007 -1.139,-0.657 -2.189,-0.657 -3.065,-0.438 -0.482,0.132 -1.358,-0.175 -2.058,-0.438 l 0.043,-1.926 0.832,-2.19 0.088,-11.868 1.008,-2.277 0.612,10.247 1.008,-22.728 -0.832,-1.445 1.051,-1.971 -0.526,-0.613 0.131,-2.496 -1.883,-4.029 -2.452,-1.27 -0.832,-0.832 -0.876,-7.533 -1.27,7.752 -0.438,0.394 -0.351,-0.438 -0.7,-4.511 -0.569,5.868 -0.525,-1.795 -0.789,2.891 -1.095,0.919 -0.788,4.073 0.131,0.788 0.57,1.839 v 1.445 3.241 l -0.657,2.058 v 7.095 l 1.05,6.35 0.483,-4.555 0.7,2.102 -0.7,8.627 0.175,4.643 c -0.395,-0.22 -0.832,-0.482 -1.183,-0.745 0,0 -0.963,0.132 -2.146,-0.613 -1.182,-0.745 -1.226,0.175 -2.496,-0.263 -1.27,-0.438 -0.262,-1.795 -1.401,-1.751 -1.139,0 -2.321,0.393 -5.693,-0.439 0,0 -0.438,-0.13 -1.139,-0.306 v -2.408 l 0.263,-1.752 0.044,-13.751 c 0,0 0.613,-3.066 0.701,-3.066 0.087,0 0.043,14.058 0.043,14.058 l 0.613,-1.445 0.876,-20.276 -1.095,-3.504 0.219,-7.357 1.314,-4.16 -0.919,-4.555 -1.402,-0.525 -1.182,-3.11 -0.614,1.577 -2.364,-1.095 -0.701,-3.503 -0.92,4.248 -0.832,-7.226 -1.27,8.364 -1.926,2.321 -0.176,1.664 -0.832,2.278 0.35,2.583 -0.613,2.19 0.788,1.401 0.439,11.649 v 0.088 l 0.218,0.657 -0.044,1.095 -0.174,7.094 0.963,3.722 0.044,9.722 0.043,0.526 c -0.569,-0.219 -0.963,-0.394 -1.182,-0.526 -1.226,-0.876 -2.146,-2.671 -4.511,-2.846 -0.832,-0.394 -0.832,-0.832 -1.883,-1.226 -1.051,-0.394 -3.24,-1.665 -4.072,-1.577 -0.876,0.088 -1.928,0.307 -1.928,0.307 l -0.437,-0.132 0.219,-10.116 -0.614,-2.54 0.176,-9.284 0.569,-2.321 0.394,9.985 0.482,-13.926 0.963,-2.584 -0.219,-2.365 -0.087,-2.234 -0.175,-3.021 -0.482,-2.715 -0.832,-0.219 -0.613,-6.438 -0.964,5.343 -0.306,-4.949 -0.701,3.197 -0.613,-8.057 -2.059,8.32 -2.67,0.964 -3.767,0.963 -1.97,3.766 0.043,7.576 1.489,3.898 -0.087,6.744 1.839,4.992 -1.094,2.365 0.437,9.459 0.044,0.526 c -0.088,0 -0.175,-0.044 -0.219,-0.044 -1.226,-0.35 -1.007,-1.533 -1.752,-1.927 0,0 -1.838,1.139 -4.422,0.482 -2.584,-0.657 -7.839,-2.453 -7.839,-2.453 0,0 -0.219,-0.043 -0.57,-0.175 v -2.715 -2.671 l 1.007,-2.672 0.132,-5.43 0.35,-0.832 -0.131,-2.233 0.788,-1.489 0.613,-2.234 -1.445,-6.744 -0.569,2.803 -1.007,-11.386 -1.84,9.459 -0.963,-5.737 -0.964,4.029 -3.021,-0.175 -3.285,2.628 v 1.883 l -0.963,1.97 0.218,2.672 -0.218,1.97 0.043,4.117 -1.138,4.116 1.532,6.526 v 0.087 c -2.846,0.175 -8.408,-0.481 -9.896,-1.313 -1.49,-0.876 -2.059,-1.928 -3.723,-1.928 -1.664,0 -1.489,-0.481 -2.847,-1.401 -1.357,-0.963 -2.933,-1.927 -3.153,-1.971 -0.656,-0.087 -1.007,-0.569 -1.444,-0.832 -0.702,-0.394 -1.796,-0.525 -2.497,-0.657 -0.394,-0.087 -0.833,-0.175 -1.226,0 -0.307,0.132 -0.482,0.351 -0.701,0.57 -0.263,0.306 -0.57,0.569 -0.832,0.876 -0.307,0.306 -4.379,1.576 -4.73,3.678 -0.306,1.752 -2.54,2.934 1.708,8.014 3.022,3.635 11.562,2.759 12.131,3.81 0.569,1.095 2.934,0.438 3.591,0.876 0.657,0.438 4.073,3.548 5.387,3.591 1.313,0.044 1.489,-0.481 2.145,0 0.657,0.482 3.46,1.139 3.46,1.139 0,0 1.227,0.7 2.803,0.788 v 2.364 l 0.35,1.49 0.482,22.859 0.92,-18.611 0.525,1.795 0.131,15.591 1.052,4.641 -0.176,5.256 0.351,1.927 0.044,4.948 1.225,11.868 1.227,-11.868 -0.132,-6.263 0.833,-2.758 0.043,-8.846 0.701,14.495 1.051,-22.466 -0.175,-1.489 1.751,-5.079 -0.043,-5.036 0.656,-1.359 v -2.496 l 0.92,0.132 c 0,0 5.868,0.394 6,1.708 0.131,1.313 2.146,3.021 5.999,3.635 2.321,0.087 2.672,1.532 2.672,1.532 0,0 0.044,0.132 0.175,0.307 v 0.218 l -0.088,5.036 0.92,4.03 -0.088,4.729 0.438,2.584 0.526,18.962 0.613,-8.715 0.131,12.613 0.657,9.065 1.708,-20.276 -0.219,-5.955 1.051,-3.416 0.263,-13.663 0.657,-4.95 c 0.087,0 0.175,-0.044 0.263,-0.044 l 0.131,17.955 1.445,-18.086 c 0.701,-0.087 1.183,-0.174 1.183,-0.174 0,0 2.101,-0.745 2.758,0.525 0.658,1.27 1.271,2.759 1.796,2.583 0.57,-0.219 1.577,-0.7 2.014,0.395 0.482,1.094 0.789,1.138 -0.919,1.313 -0.132,0 -0.132,0.525 0.744,0.876 0.876,0.351 1.095,0.439 1.708,0 2.584,-1.752 4.204,-1.357 4.204,-1.357 0,0 2.102,-0.526 2.715,0.174 0.044,0.044 0.088,0.132 0.176,0.176 l 0.087,7.226 -0.656,3.109 1.532,13.839 0.569,-11.255 0.92,1.358 0.438,19.356 0.963,-8.233 v -4.248 l 1.007,-2.583 v -13.358 l 0.964,-3.24 c 0.57,0.175 1.051,0.437 1.27,0.744 0.657,1.008 4.161,-0.131 5.08,0 0.92,0.132 4.729,1.051 4.729,1.051 0,0 -0.306,0.789 0.614,0.657 0.919,-0.088 3.985,-2.059 5.168,-1.927 0.262,0.044 0.525,0.044 0.744,0.044 l 0.174,1.27 0.044,6.35 -0.612,5.343 1.27,2.803 0.788,18.787 1.051,-11.912 0.832,-2.54 0.35,-10.467 0.657,14.32 1.051,-19.531 -0.657,-3.766 c 4.073,0.701 10.423,1.97 11.168,3.109 1.095,1.708 2.408,1.533 2.058,0 -0.219,-1.007 -1.27,-1.883 -2.102,-2.408 -1.095,-0.658 4.555,0.657 4.555,0.657 2.452,0.744 6.087,1.664 6.787,1.576 0.964,-0.088 1.401,0.088 1.927,0.657 0.526,0.526 0.745,1.795 2.671,1.489 1.927,-0.307 2.759,-0.788 4.686,0 1.971,0.788 4.467,0.525 5.912,0.525 1.445,0.176 2.409,-0.744 0.964,-1.488 m -113.687,-18.394 -0.613,-22.334 -0.219,-2.277 -0.306,-2.496 c -0.044,-0.307 -0.482,-0.35 -0.57,-0.044 v 0.088 l 0.483,19.75 -1.446,-20.626 v -0.044 l -0.35,-1.576 c -0.044,-0.132 0.044,-0.307 0.219,-0.351 l 0.394,-0.087 c 0.131,-0.044 0.219,-0.132 0.219,-0.263 l 0.088,-0.833 c 0,-0.174 0.175,-0.306 0.349,-0.262 l 0.351,0.088 c 0.132,0.043 0.219,0.131 0.219,0.262 l 0.176,1.796 c 0,0.087 0.043,0.175 0.13,0.218 l 1.139,0.745 c 0.088,0.044 0.132,0.131 0.132,0.263 z m 5.343,-29.121 c -0.044,0 -0.088,0.044 -0.088,0.088 L 360,224.249 v 0.088 l -0.219,6.656 c 0,0.263 -0.394,0.263 -0.394,0 l -0.701,-6.525 v -0.044 l -0.525,-1.051 c -0.044,-0.087 -0.132,-0.131 -0.219,-0.131 l -0.439,0.087 c -0.086,0 -0.174,0.088 -0.174,0.176 l -0.132,2.233 c 0,0.219 -0.35,0.263 -0.394,0 l -0.35,-2.102 c 0,-0.044 0,-0.044 -0.044,-0.087 l -0.526,-0.658 -0.044,-0.043 -3.328,-2.891 c -0.088,-0.043 -0.175,-0.043 -0.262,0 l -0.131,0.088 c -0.088,0.044 -0.132,0.175 -0.044,0.263 l 0.349,0.569 c 0.044,0.088 0,0.263 -0.087,0.307 l -0.218,0.087 c -0.044,0.044 -0.132,0 -0.176,-0.044 l -1.051,-0.788 c -0.044,-0.044 -0.088,-0.088 -0.088,-0.175 l -0.044,-2.365 c 0,-0.044 0,-0.087 -0.043,-0.131 l -0.613,-0.657 c -0.044,-0.044 -0.088,-0.131 -0.044,-0.219 l 1.139,-2.496 v -0.088 l -0.044,-1.226 c 0,-0.088 0.044,-0.132 0.088,-0.175 l 2.189,-1.314 h 0.044 l 1.576,-0.482 h 0.088 l 2.803,0.526 c 0.044,0 0.044,0 0.087,0.043 l 2.672,1.84 c 0.044,0 0.044,0.044 0.044,0.044 l 1.445,2.408 c 0,0.044 0,0.044 0.043,0.088 l 0.307,2.146 v 0.087 l -0.263,1.402 c 0,0.044 0,0.044 -0.044,0.088 l -0.919,1.357 c 0,0.044 -0.044,0.044 -0.044,0.087 l -0.088,1.314 v 0.088 l 0.088,0.306 c 0.044,0.088 0,0.176 -0.088,0.219 z m 14.408,-15.766 0.57,-0.745 c 0.044,-0.087 0.174,-0.087 0.262,-0.044 0.131,0.044 0.175,0.176 0.087,0.307 l -0.218,0.438 -0.263,0.394 c -0.088,0.131 -0.219,0.131 -0.351,0.044 l -0.131,-0.131 c 0,-0.044 0,-0.175 0.044,-0.263 m 10.554,0.175 c -0.088,-0.131 -0.263,-0.088 -0.307,0.044 l -0.35,1.664 c -0.043,0.175 -0.306,0.175 -0.306,-0.044 l -0.132,-2.19 c 0,-0.131 -0.174,-0.218 -0.262,-0.131 l -0.57,0.438 c -0.044,0 -0.044,0.044 -0.088,0.044 l -0.174,0.044 c -0.088,0 -0.132,-0.044 -0.175,-0.088 l -0.439,-1.27 -0.088,0.219 v 0.044 l -0.043,0.35 v 0.044 l 0.219,1.095 v 0.043 l 0.263,0.526 v 0.088 l -0.088,0.876 v 0.043 l -0.351,0.789 v 0.044 l -0.525,31.136 -0.437,-17.692 c 0,-0.219 -0.307,-0.219 -0.307,0 0,0.219 -0.307,0.219 -0.307,0 l -0.132,-13.751 c 0,-0.044 -0.043,-0.131 -0.086,-0.131 l -0.483,-0.22 c -0.043,0 -0.043,-0.043 -0.087,-0.087 l -0.438,-0.569 c 0,-0.044 -0.043,-0.044 -0.087,-0.088 l -0.876,-0.306 c 0,0 0.262,0.394 0.262,0.438 0,0.043 0.219,0.481 0.307,0.612 v 0.088 l -0.219,5.036 c 0,0.219 -0.306,0.219 -0.306,0 l -0.307,-5.299 c 0,-0.087 -0.044,-0.131 -0.132,-0.131 l -1.138,-0.306 h -0.131 l -0.263,0.174 c -0.044,0.044 -0.088,0.044 -0.088,0.088 -0.044,0.307 -0.263,1.445 -0.263,1.489 0,0.044 -0.306,-0.569 -0.394,-0.832 -0.043,-0.044 -0.087,-0.087 -0.131,-0.087 h -0.788 l -0.745,0.043 -0.438,0.044 0.394,-0.613 c 0,-0.044 0.044,-0.044 0.088,-0.044 l 0.964,-0.35 c 0.044,0 0.087,-0.044 0.087,-0.132 l 0.131,-0.481 c 0.044,-0.131 0.219,-0.175 0.307,-0.044 l 0.219,0.307 c 0.044,0.043 0.088,0.087 0.132,0.087 l 0.656,-0.044 c 0.088,0 0.132,-0.087 0.132,-0.175 l -0.044,-1.314 c 0,-0.044 -0.044,-0.087 -0.044,-0.131 l -0.219,-0.175 c -0.088,-0.044 -0.088,-0.176 0,-0.263 l 0.657,-0.657 v -0.044 l 0.35,-0.569 c 0.044,-0.087 0.176,-0.087 0.263,-0.044 l 0.92,0.876 c 0.043,0.044 0.043,0.131 0,0.219 l -0.395,0.526 v 0.044 l -0.043,0.131 c 0,0.043 0,0.131 0.043,0.175 l 0.876,0.964 c 0.044,0.043 0.044,0.043 0.088,0.043 l 1.489,0.219 c 0.044,0 0.087,0 0.131,-0.044 l 0.525,-0.525 c 0.044,-0.044 0.044,-0.088 0.044,-0.131 l -0.218,-1.49 c 0,-0.043 0,-0.043 -0.044,-0.087 l -1.139,-1.445 c -0.044,-0.044 -0.087,-0.044 -0.131,-0.044 l -1.796,-0.132 c -0.088,0 -1.007,-0.174 -1.007,-0.218 0,-0.044 0.219,-0.614 0.263,-0.832 0,-0.044 0.087,-0.088 0.131,-0.088 l 1.27,-0.175 c 0.044,0 0.087,-0.044 0.131,-0.088 l 0.263,-0.525 c 0.044,-0.044 0.088,-0.088 0.132,-0.088 l 2.277,-0.394 h 0.087 l 2.103,0.657 h 0.044 l 1.488,0.832 c 0.044,0 0.044,0.044 0.044,0.044 l 1.533,2.452 c 0,0.044 0.044,0.044 0.044,0.088 l -0.263,6.525 -0.132,1.576 -0.393,-5.08 c 0,-0.044 0,-0.044 -0.044,-0.087 z m 22.773,9.986 0.043,1.752 v 0.044 l -0.306,0.963 v 0.043 l -0.395,18.7 -0.656,-21.721 c 0,-0.044 0.043,-0.131 0.087,-0.131 l 1.095,-0.526 c 0.044,-0.044 0.088,-0.088 0.088,-0.131 v -0.438 c 0,-0.044 -0.044,-0.132 -0.088,-0.132 l -0.963,-0.525 c -0.044,-0.044 -0.088,-0.088 -0.088,-0.132 l -0.131,-1.313 -0.307,0.613 h -0.175 l -0.131,-3.767 c 0,-0.218 -0.307,-0.218 -0.307,0 l -0.263,3.986 c 0,0.043 -0.044,0.087 -0.044,0.131 l -0.394,0.307 c -0.087,0.043 -0.175,0.043 -0.219,-0.044 l -0.481,-0.613 -0.044,-0.044 -0.263,-0.832 c 0,-0.088 -0.088,-0.132 -0.175,-0.132 h -0.044 c -0.088,0 -0.175,0.088 -0.175,0.176 v 0.569 c 0,0.088 -0.087,0.175 -0.175,0.175 l -0.482,-0.044 c -0.044,0 -0.088,-0.043 -0.088,-0.043 l -0.262,-0.307 c -0.044,-0.044 -0.088,-0.044 -0.132,-0.044 l -1.971,-0.087 c -0.087,0 -0.175,0.043 -0.175,0.131 l -0.13,0.832 c 0,0.044 0,0.131 0.043,0.131 l 1.051,0.876 c 0.043,0.044 0.087,0.044 0.131,0.044 l 0.788,-0.044 h 0.044 l 1.139,-0.525 h 0.088 l 0.569,0.087 c 0.044,0 0.087,0.044 0.131,0.088 l 0.657,1.314 c 0.044,0.043 0.088,0.087 0.131,0.087 l 0.832,0.132 c 0.088,0 0.132,0.087 0.132,0.175 -0.044,1.971 -0.482,24.524 -0.526,30.743 -0.087,-5.256 -0.438,-22.072 -0.569,-27.502 0,-0.176 -0.306,-0.22 -0.306,0 l -0.175,0.963 c -0.044,0.175 -0.307,0.175 -0.307,0 l -0.307,-2.189 c 0,-0.044 0,-0.044 -0.044,-0.044 l -0.394,-0.614 c 0,-0.043 -0.043,-0.043 -0.043,-0.087 v -0.307 c 0,-0.131 0.131,-0.175 0.219,-0.131 l 0.569,0.263 c 0.087,0.044 0.175,0 0.219,-0.088 l 0.263,-0.569 v -0.131 l -0.614,-1.314 c -0.044,-0.088 -0.175,-0.132 -0.262,-0.044 l -0.658,0.569 c -0.043,0.044 -0.043,0.044 -0.043,0.088 l -0.262,1.533 c 0,0.043 -0.044,0.087 -0.044,0.087 l -0.526,0.482 c -0.044,0.043 -0.044,0.087 -0.044,0.131 l -0.306,9.153 c 0,0.175 -0.263,0.219 -0.307,0.044 l -0.307,-1.489 v -0.044 l -0.044,-9.547 c 0,-0.087 -0.087,-0.175 -0.174,-0.175 h -0.395 c -0.088,0 -0.131,-0.044 -0.175,-0.132 l -0.131,-0.875 c 0,-0.044 0,-0.088 -0.044,-0.088 l -0.963,-0.92 c -0.044,-0.043 -0.044,-0.087 -0.044,-0.131 l 0.132,-2.627 c 0,-0.088 0.043,-0.132 0.13,-0.132 l 0.307,-0.044 c 0.088,0 0.175,0.044 0.175,0.132 l 0.132,0.569 c 0,0.087 0.088,0.131 0.175,0.131 l 0.788,-0.131 c 0.131,-0.044 0.175,-0.175 0.087,-0.263 l -0.832,-0.832 c -0.043,-0.044 -0.043,-0.088 -0.043,-0.131 l 0.087,-0.657 c 0,-0.044 0,-0.088 -0.044,-0.132 l -0.481,-0.569 c -0.044,-0.043 -0.044,-0.087 -0.044,-0.087 l 0.044,-2.496 c 0,-0.044 0,-0.088 0.044,-0.088 l 1.488,-2.014 c 0,-0.044 0.044,-0.044 0.088,-0.044 l 2.059,-0.701 c 0.087,-0.044 0.131,-0.087 0.087,-0.175 v -0.263 c 0,-0.087 0.088,-0.175 0.175,-0.175 l 3.022,0.088 c 0.044,0 0.088,0 0.088,0.043 l 1.225,0.964 1.534,1.751 0.044,0.044 0.744,2.321 v 0.044 1.007 c 0,0.044 0,0.088 -0.044,0.132 l -0.963,0.963 -1.008,1.051 c -0.044,0.044 -0.044,0.088 -0.044,0.131 l -0.043,1.752 c 0,0.044 0,0.088 -0.044,0.131 l -0.481,0.482 c -0.088,0.088 -0.044,0.175 0,0.263 l 0.525,0.35 c 0,0 0.044,0 0.044,0.044 l 0.656,0.175 c 0.088,0.044 0.132,0.132 0.088,0.175 l -0.263,0.964 c 0,0.044 -0.043,0.088 -0.087,0.088 l -0.876,0.481 c 0.131,-0.22 0.088,-0.176 0.088,-0.131 m 15.502,39.588 0.263,-2.714 0.482,-5.518 0.35,8.67 c -0.35,-0.131 -0.701,-0.264 -1.095,-0.438 m 4.73,-28.815 c 0,0.044 0,0.087 -0.044,0.131 l -0.219,0.219 c -0.044,0.044 -0.044,0.088 -0.044,0.132 l -0.044,2.014 c 0,0.263 -0.35,0.263 -0.394,0.044 l -0.263,-1.577 c 0,-0.087 -0.087,-0.175 -0.175,-0.175 -0.132,0 -0.218,0.088 -0.218,0.175 l -0.088,1.84 v 0.043 l -0.175,0.614 v 0.043 l -0.351,23.911 -0.613,-25.881 c 0,-0.088 -0.044,-0.176 -0.131,-0.176 l -0.22,-0.087 c -0.086,-0.044 -0.13,-0.088 -0.13,-0.175 v -0.526 c 0,-0.044 -0.044,-0.087 -0.044,-0.131 l -0.044,-0.044 c -0.088,-0.088 -0.088,-0.219 0,-0.307 l 0.525,-0.438 c 0.044,0 0.044,-0.043 0.044,-0.087 l 0.263,-0.569 c 0.044,-0.088 0.088,-0.132 0.175,-0.132 h 1.314 c 0.088,0 0.175,0.044 0.175,0.132 l 0.044,0.131 c 0,0.044 0.088,0.087 0.132,0.131 l 0.262,0.088 c 0.043,0 0.087,0.044 0.131,0.131 l 0.132,0.351 v 0.087 z m 1.664,-3.811 -0.395,-0.351 c -0.087,-0.043 -0.174,-0.087 -0.262,-0.043 l -0.57,0.306 c -0.087,0.044 -0.13,0.175 -0.087,0.307 l 0.263,0.438 c 0,0.044 0.043,0.087 0.043,0.131 l -0.087,0.92 c 0,0.131 -0.088,0.219 -0.219,0.175 h -0.087 c -0.088,0 -0.176,-0.044 -0.176,-0.132 l -0.263,-0.876 c -0.044,-0.087 -0.087,-0.131 -0.175,-0.131 l -1.796,-0.043 c -0.043,0 -0.086,0 -0.13,0.043 l -0.395,0.263 c -0.044,0.044 -0.044,0.044 -0.088,0.088 l -0.087,0.218 c -0.044,0.088 -0.088,0.132 -0.176,0.132 h -0.042 c -0.132,0 -0.22,-0.088 -0.22,-0.219 v -0.394 c 0,-0.044 0.044,-0.088 0.044,-0.131 l 0.613,-0.614 c 0.044,-0.044 0.044,-0.087 0.044,-0.131 l 0.088,-0.613 c 0,-0.088 0.087,-0.175 0.175,-0.175 l 0.35,-0.044 c 0.087,0 0.131,-0.044 0.175,-0.131 l 0.132,-0.351 c 0.043,-0.087 0.087,-0.131 0.175,-0.131 h 0.088 c 0.086,0 0.174,0.044 0.218,0.131 l 0.131,0.307 c 0.044,0.088 0.088,0.131 0.176,0.131 h 0.131 c 0.132,0 0.22,-0.131 0.22,-0.263 l -0.044,-0.394 c 0,-0.044 0,-0.044 -0.044,-0.087 l -0.526,-0.701 c -0.044,-0.044 -0.088,-0.088 -0.132,-0.088 h -0.13 c -0.088,0 -0.176,0.044 -0.22,0.132 l -0.175,0.394 c -0.044,0.088 -0.131,0.132 -0.219,0.132 h -0.132 c -0.086,0 -0.174,-0.088 -0.174,-0.22 v -1.182 -0.088 l -0.132,-0.306 c -0.043,-0.088 -0.131,-0.132 -0.263,-0.132 l -0.919,0.22 c -0.044,0 -0.044,0 -0.044,0.043 l -1.051,0.701 c -0.043,0.044 -0.087,0.088 -0.087,0.131 l -0.307,1.007 v 0.044 c 0,0.088 -0.088,0.482 0,0.482 0.088,0 0.92,-0.044 1.183,-0.088 0.043,0 0.086,-0.044 0.13,-0.087 l 0.176,-0.175 c 0.044,-0.044 0.131,-0.088 0.175,-0.088 l 0.307,0.044 c 0.13,0 0.174,0.131 0.174,0.219 l -0.043,0.263 c 0,0.044 -0.043,0.131 -0.087,0.131 l -0.57,0.482 c -0.044,0.043 -0.088,0.087 -0.088,0.175 l 0.044,0.788 v 0.044 l -0.437,3.679 v 0.043 l -0.351,1.577 0.044,-5.343 c 0,-0.044 0,-0.088 -0.044,-0.131 l -0.306,-0.395 c -0.132,-0.131 -0.351,-0.087 -0.351,0.088 -0.088,0.307 -0.175,0.657 -0.175,0.657 0,-0.044 -0.219,-1.007 -0.263,-1.314 0,-0.043 -0.043,-0.131 -0.087,-0.131 -0.175,-0.088 -0.614,-0.306 -0.614,-0.394 0,-0.088 0.044,-1.095 0.044,-1.358 0,-0.044 0,-0.087 0.044,-0.131 l 0.744,-0.963 c 0.044,-0.044 0.088,-0.044 0.132,-0.088 l 0.57,-0.132 c 0.043,0 0.086,-0.043 0.086,-0.043 l 0.789,-0.832 c 0.087,-0.088 0.087,-0.175 0.043,-0.263 l -0.043,-0.088 c -0.087,-0.087 -0.043,-0.218 0.087,-0.306 l 1.227,-0.745 c 0.044,0 0.044,-0.043 0.088,-0.043 l 3.021,-0.132 c 0.044,0 0.088,0 0.131,0.044 l 1.095,0.7 0.088,0.088 0.438,1.008 c 0,0.043 0.043,0.043 0.043,0.087 l 1.708,1.577 c 0.044,0.043 0.044,0.043 0.044,0.087 l 0.263,0.701 v 0.088 l -0.044,0.788 c 0,0.087 -0.087,0.175 -0.175,0.175 l -0.175,0.043 c -0.131,0 -0.219,0.132 -0.175,0.263 l 0.131,0.351 v 0.131 l -0.394,1.095 -0.219,0.657 v 0.043 l -0.175,8.54 c 0,0.263 -0.394,0.263 -0.438,0 l -0.656,-7.488 -0.264,-2.672 c 0,-0.044 -0.043,-0.087 -0.087,-0.131"
							id="path1130" />
					</g>
				</g>
			</g>
			<use x="0" y="0" xlink:href="#g1594" id="use1600" />
		</g>
	</g>
</svg>
