<?xml version="1.0" encoding="UTF-8" standalone="no"?>
<svg
   viewBox="0 0 600.00055 179.24908"
   fill="#ffffff"
   version="1.1"
   id="svg2390"
   sodipodi:docname="killer.svg"
   inkscape:version="1.2 (dc2aeda, 2022-05-15)"
   width="600.00055"
   height="179.24908"
   xmlns:inkscape="http://www.inkscape.org/namespaces/inkscape"
   xmlns:sodipodi="http://sodipodi.sourceforge.net/DTD/sodipodi-0.dtd"
   xmlns="http://www.w3.org/2000/svg"
   xmlns:svg="http://www.w3.org/2000/svg">
  <defs
     id="defs2394" />
  <sodipodi:namedview
     id="namedview2392"
     pagecolor="#505050"
     bordercolor="#ffffff"
     borderopacity="1"
     inkscape:showpageshadow="0"
     inkscape:pageopacity="0"
     inkscape:pagecheckerboard="1"
     inkscape:deskcolor="#505050"
     showgrid="false"
     inkscape:zoom="1.6496388"
     inkscape:cx="291.27589"
     inkscape:cy="133.66563"
     inkscape:window-width="1536"
     inkscape:window-height="850"
     inkscape:window-x="0"
     inkscape:window-y="25"
     inkscape:window-maximized="1"
     inkscape:current-layer="svg2390" />
  <path
     d="m 597.1642,173.1759 c -5.73523,-2.78228 -12.51433,1.38519 -16.8604,-4.52072 -4.34608,-5.90987 -17.20969,-9.90668 -17.20969,-9.90668 0,0 -6.60444,-4.34607 -13.03426,-2.433 -6.42982,1.90909 -11.29981,-5.04464 -11.29981,-5.04464 0,0 -6.42982,1.91705 -9.73204,-2.42904 -3.30223,-4.35004 -26.76708,-8.69613 -26.76708,-8.69613 0,0 -11.81975,1.91705 -13.03427,-2.77831 -1.04386,-4.69138 -2.9609,-7.12836 -4.69536,-6.0845 -1.90909,1.04385 -1.04385,3.13155 -5.73523,2.433 -4.69535,-0.69061 -10.25595,-1.38915 -14.77667,-3.9968 -4.52072,-2.60765 -8.6882,-2.60765 -12.16506,-1.73844 -1.91306,0.52392 -5.38992,-0.69458 -8.16824,-1.73843 l -29.37473,-8.51355 c -1.56776,-0.87319 -3.30223,-1.91307 -4.69536,-2.95692 0,0 -3.82217,0.52391 -8.51753,-2.43301 -4.69137,-2.95692 -4.86601,0.69458 -9.90666,-1.04385 -5.04066,-1.73843 -1.03989,-7.1244 -5.56061,-6.94976 -4.52071,0 -9.2121,1.55982 -22.59564,-1.7424 0,0 -1.73843,-0.51597 -4.52071,-1.21452 l -32.33166,-9.906679 c -2.25838,-0.86922 -3.82217,-1.5638 -4.69139,-2.0877 -4.86601,-3.47687 -8.51752,-10.60126 -17.90425,-11.29584 -3.30223,-1.5638 -3.30223,-3.30223 -7.47367,-4.86603 -4.17144,-1.56379 -12.85963,-6.60842 -16.16186,-6.25914 -3.47686,0.34927 -7.65227,1.21849 -7.65227,1.21849 l -1.73446,-0.52391 -42.0637,-10.60126 c -0.34927,0 -0.69457,-0.17464 -0.86922,-0.17464 -4.86602,-1.38916 -3.9968,-6.08451 -6.95372,-7.6483 0,0 -7.29507,4.52072 -17.55103,1.91306 -10.25594,-2.60764 -31.11315,-9.73601 -31.11315,-9.73601 0,0 -0.86921,-0.17067 -2.26235,-0.69458 l -43.10754,-8.16824 c -11.29585,0.69457 -33.371536,-1.90911 -39.277447,-5.21133 -5.913842,-3.47687 -8.172211,-7.65227 -14.776667,-7.65227 -6.60445,0 -5.909876,-1.90911 -11.299803,-5.5606 -5.385964,-3.82217 -11.641143,-7.6483203 -12.514328,-7.8229503 -2.603678,-0.34531 -3.996805,-2.25837 -5.731268,-3.30223 -2.786253,-1.56378 -7.128363,-2.08372999 -9.910647,-2.60763999 -1.563795,-0.3453 -3.306196,-0.69458 -4.866021,0 -1.21849,0.52391 -1.913069,1.39312999 -2.782285,2.26233999 -1.043853,1.21452 -2.262343,2.25837 -3.302226,3.47686 -1.21849,1.21452 -17.3803477,6.2551903 -18.7734744,14.5980703 -1.2145208,6.95372 -10.0813159,11.64511 6.7790894,31.80773 11.994385,14.42741 45.889833,10.95054 48.148207,15.12199 2.258373,4.34607 11.645108,1.73843 14.252756,3.47686 2.607648,1.73843 16.165827,14.08209 21.381123,14.25275 5.211324,0.17464 5.90987,-1.90909 8.513551,0 2.60765,1.91308 13.73282,4.52072 13.73282,4.52072 0,0 4.86998,2.77832 11.12517,3.12759 l 42.92893,3.82217 3.65151,0.52392 c 0,0 23.29022,1.56379 23.81413,6.779079 0.51994,5.21133 8.51752,11.99041 23.81016,14.4274 9.2121,0.34531 10.60523,6.08054 10.60523,6.08054 l 26.76709,2.25837 c 0.3453,0 0.69458,-0.17464 1.04385,-0.17464 l 6.25518,-0.51994 c 2.78228,-0.3453 4.69535,-0.69061 4.69535,-0.69061 0,0 8.33891,-2.95692 10.94657,2.08374 2.61161,5.04066 5.04462,10.95053 7.12835,10.25198 2.26235,-0.86921 6.25915,-2.77831 7.99362,1.56777 1.91307,4.34211 3.13155,4.51675 -3.64753,5.21133 -0.52391,0 -0.52391,2.08373 2.95295,3.47686 3.47685,1.39312 4.34607,1.74239 6.77909,0 10.25596,-6.95373 16.68576,-5.38596 16.68576,-5.38596 0,0 8.34289,-2.08771 10.7759,0.69061 0.17463,0.17463 0.34927,0.52391 0.69855,0.69854 l 23.11558,7.82295 c 2.26234,0.69458 4.17145,1.73446 5.04066,2.95295 2.60765,4.00077 16.5151,-0.51994 20.16264,0 3.65149,0.52391 18.7695,4.17144 18.7695,4.17144 0,0 -1.21452,3.13155 2.43697,2.60764 3.64754,-0.34927 15.81656,-8.17221 20.51191,-7.64829 1.03988,0.17463 2.08374,0.17463 2.95296,0.17463 l 19.63872,2.60764 c 16.16583,2.78229 41.36911,7.81898 44.32603,12.33969 4.34609,6.7791 9.55741,6.08452 8.16825,0 -0.86922,-3.9968 -5.04065,-7.47367 -8.34288,-9.5574 -4.34608,-2.61162 18.07889,2.60764 18.07889,2.60764 9.73205,2.95296 24.15944,6.60446 26.93775,6.25519 3.82615,-0.34928 5.56061,0.34927 7.64831,2.60764 2.0877,2.08771 2.95692,7.1244 10.60126,5.90988 7.64831,-1.21849 10.95053,-3.12759 18.59884,0 7.82295,3.12759 17.72961,2.08374 23.46485,2.08374 5.73525,0.69854 9.56141,-2.95296 3.82614,-5.90591"
     style="fill:#000000;fill-opacity:1;stroke-width:3.96902"
     id="path2388"
     sodipodi:nodetypes="ccccccccccscccccsccccccsccccccsccccsccccccccccscccccccccccccccccscccccccccccccccccccccc" />
</svg>
