<?xml version="1.0" encoding="UTF-8" standalone="no"?>
<svg
   viewBox="0 0 51.450439 367.27344"
   fill="#ffffff"
   version="1.1"
   id="svg18"
   sodipodi:docname="surv_4.svg"
   inkscape:version="1.2 (dc2aeda, 2022-05-15)"
   width="51.450439"
   height="367.27344"
   xmlns:inkscape="http://www.inkscape.org/namespaces/inkscape"
   xmlns:sodipodi="http://sodipodi.sourceforge.net/DTD/sodipodi-0.dtd"
   xmlns="http://www.w3.org/2000/svg"
   xmlns:svg="http://www.w3.org/2000/svg">
  <defs
     id="defs22">
    <inkscape:path-effect
       effect="bspline"
       id="path-effect1091"
       is_visible="true"
       lpeversion="1"
       weight="33.333333"
       steps="2"
       helper_size="0"
       apply_no_weight="true"
       apply_with_weight="true"
       only_selected="false" />
  </defs>
  <sodipodi:namedview
     id="namedview20"
     pagecolor="#505050"
     bordercolor="#ffffff"
     borderopacity="1"
     inkscape:showpageshadow="0"
     inkscape:pageopacity="0"
     inkscape:pagecheckerboard="1"
     inkscape:deskcolor="#505050"
     showgrid="false"
     inkscape:zoom="0.97878227"
     inkscape:cx="-166.53346"
     inkscape:cy="130.2639"
     inkscape:window-width="1536"
     inkscape:window-height="850"
     inkscape:window-x="0"
     inkscape:window-y="25"
     inkscape:window-maximized="0"
     inkscape:current-layer="svg18" />
  <path
     d="m 42.21274,60.142589 0.17464,-1.38916 c 0,-0.17464 0,-0.34927 -0.17464,-0.52391 l -2.95294,-4.86602 c -0.17464,-0.17463 -0.17464,-0.3453 -0.52392,-0.3453 l -7.12439,-2.43698 h -1.5638 c -0.51994,0 -0.86921,0.34927 -0.86921,0.87318 v 2.95296 c 0,0.17464 0,0.34927 0.17463,0.34927 l 1.73447,2.95295 1.39312,2.0877 c 0.17464,0.17067 0.17464,0.17067 0.34927,0.34531 l 2.08374,0.69458 h 0.34927 l 5.90591,-0.17464 c 0.52391,0.34927 0.86922,0 1.04385,-0.51994"
     style="fill:#000000;fill-opacity:1;stroke-width:3.96902"
     id="path12" />
  <path
     d="m 30.39696,43.802129 c -0.17463,0 -0.34927,-0.17067 -0.34927,-0.17067 l -9.73204,-0.17464 c -0.17464,0 -0.52391,0.17464 -0.69458,0.34531 l -2.43301,2.60765 c -0.52391,0.5239 -0.17463,1.21848 0.51994,1.38915 l 1.91307,0.34928 h 0.34531 l 2.95692,-0.34928 3.64752,-0.69458 c 0.34929,0 0.69856,-0.3453 0.69856,-0.86921 v -0.17464 c 0,-0.51994 0.3453,-0.86525 0.86922,-0.86525 h 2.08373 c 0.52391,0 0.86921,-1.04385 0.17463,-1.39312"
     style="fill:#000000;fill-opacity:1;stroke-width:3.96902"
     id="path14" />
  <path
     d="m 36.32846,202.14626 0.17067,-7.64433 3.30222,-8.69216 0.34928,-47.10436 4.00077,-9.03745 2.42904,40.67056 4.00078,-90.207931 -3.30223,-5.73524 4.17145,-7.82294 -2.08771,-2.43301 0.51995,-9.90668 L 42.409,38.241519 32.67696,33.200869 29.37473,29.898641 25.89786,0 20.85721,30.767858 19.11878,32.331653 17.72566,30.593221 14.94733,12.688963 12.68896,35.979182 10.60523,28.854789 7.47367,40.329229 3.12759,43.976769 0,60.142589 l 0.51994,3.1276 2.26234,7.29902 v 18.59884 l -2.60765,8.16825 v 28.160211 l 4.16748,25.20329 1.91704,-18.07889 2.77832,8.34289 -2.77832,34.24074 1.78573,50.46839 5.68794,-62.97477 1.81361,47.49871 0.31593,12.38126 1.68866,12.59436 0.17464,25.20329 -2.42906,21.20649 5.04067,11.12517 3.12759,74.56601 4.17144,-47.27898 3.30223,-10.08132 1.38916,-41.54375 2.60764,56.83639 4.17145,-77.51897 -2.60765,-14.94734 M 29.54937,81.003769 c 0,0.17464 0,0.34531 -0.17464,0.51994 l -0.86921,0.86922 c -0.17464,0.17463 -0.17464,0.34927 -0.17464,0.52391 l -0.17463,7.99361 c 0,1.04385 -1.38917,1.04385 -1.56381,0.17463 l -1.04385,-6.25913 c 0,-0.34532 -0.3453,-0.69459 -0.69458,-0.69459 -0.52391,0 -0.86524,0.34927 -0.86524,0.69459 l -0.34928,7.30299 v 0.17067 l -0.69457,2.43697 v 0.17067 L 21.55179,189.81054 19.11878,87.088289 c 0,-0.34928 -0.17463,-0.69856 -0.51994,-0.69856 l -0.87318,-0.3453 c -0.34134,-0.17463 -0.51598,-0.34927 -0.51598,-0.69457 v -2.08772 c 0,-0.17463 -0.17463,-0.3453 -0.17463,-0.51994 l -0.17464,-0.17464 c -0.34927,-0.34927 -0.34927,-0.86921 0,-1.21848 l 2.08374,-1.73844 c 0.17463,0 0.17463,-0.17067 0.17463,-0.3453 l 1.04385,-2.25838 c 0.17464,-0.34927 0.34928,-0.5239 0.69458,-0.5239 h 5.21529 c 0.34928,0 0.69458,0.17463 0.69458,0.5239 l 0.17465,0.51995 c 0,0.17463 0.34927,0.3453 0.52391,0.51994 l 1.03988,0.34927 c 0.17067,0 0.3453,0.17464 0.51994,0.51995 l 0.52391,1.39312 v 0.34531 z m 6.60445,-15.12594 -1.56776,-1.39313 c -0.34531,-0.17066 -0.69061,-0.3453 -1.03989,-0.17066 l -2.26234,1.21451 c -0.3453,0.17464 -0.51597,0.69458 -0.3453,1.2185 l 1.04385,1.73842 c 0,0.17464 0.17067,0.34531 0.17067,0.51995 l -0.34531,3.65149 c 0,0.51995 -0.34927,0.86922 -0.86921,0.69458 h -0.34531 c -0.34927,0 -0.69854,-0.17463 -0.69854,-0.52391 l -1.04386,-3.47686 c -0.17463,-0.3453 -0.3453,-0.51994 -0.69457,-0.51994 l -7.12837,-0.17067 c -0.17067,0 -0.34134,0 -0.51597,0.17067 l -1.56776,1.04385 -0.34928,0.34927 -0.3453,0.86525 c -0.17464,0.34927 -0.34928,0.52391 -0.69855,0.52391 h -0.1667 c -0.52391,0 -0.87318,-0.34927 -0.87318,-0.86921 v -1.5638 c 0,-0.17463 0.17463,-0.34927 0.17463,-0.51994 l 2.43301,-2.43698 c 0.17464,-0.17463 0.17464,-0.3453 0.17464,-0.51994 l 0.34927,-2.433 c 0,-0.34928 0.34531,-0.69459 0.69458,-0.69459 l 1.38916,-0.17464 c 0.3453,0 0.51994,-0.17463 0.69458,-0.51994 l 0.52391,-1.39313 c 0.17066,-0.3453 0.3453,-0.51994 0.69457,-0.51994 h 0.34928 c 0.34133,0 0.6906,0.17464 0.86524,0.51994 l 0.51994,1.21849 c 0.17464,0.34927 0.34928,0.51995 0.69855,0.51995 h 0.51994 c 0.52393,0 0.8732,-0.51995 0.8732,-1.04386 L 27.291,59.618679 c 0,-0.17464 0,-0.17464 -0.17463,-0.34531 l -2.08772,-2.78228 c -0.17464,-0.17464 -0.34928,-0.34927 -0.52391,-0.34927 h -0.51597 c -0.34928,0 -0.69855,0.17463 -0.87319,0.52391 l -0.69457,1.56379 c -0.17464,0.34927 -0.51995,0.52391 -0.86922,0.52391 h -0.52391 c -0.34134,0 -0.69061,-0.34927 -0.69061,-0.87318 v -5.04066 l -0.52391,-1.21451 c -0.17067,-0.34929 -0.51994,-0.52393 -1.04385,-0.52393 l -3.64754,0.8732 c -0.17464,0 -0.17464,0 -0.17464,0.17066 l -4.17144,2.78229 c -0.17066,0.17463 -0.3453,0.34927 -0.3453,0.51994 l -1.21849,3.9968 v 0.17464 c 0,0.34927 -0.34928,1.91307 0,1.91307 0.34928,0 3.6515,-0.17464 4.69535,-0.34928 0.17067,0 0.34134,-0.17464 0.51597,-0.3453 l 0.69855,-0.69458 c 0.17463,-0.17464 0.51994,-0.34927 0.69459,-0.34927 l 1.21849,0.17463 c 0.51597,0 0.69061,0.51994 0.69061,0.86922 l -0.17067,1.04385 c 0,0.17463 -0.17067,0.51994 -0.34531,0.51994 l -2.26235,1.91308 c -0.17463,0.17066 -0.34927,0.3453 -0.34927,0.69458 l 0.17464,3.12758 v 0.17464 l -1.73446,14.60203 v 0.17066 l -1.39313,6.25916 0.17464,-21.20649 c 0,-0.17464 0,-0.34927 -0.17464,-0.51994 l -1.21452,-1.56776 c -0.52391,-0.51995 -1.39312,-0.34531 -1.39312,0.34927 -0.34928,1.21849 -0.69458,2.60765 -0.69458,2.60765 0,-0.17464 -0.86922,-3.9968 -1.04385,-5.2153 0,-0.17066 -0.17067,-0.51993 -0.34531,-0.51993 -0.69458,-0.34928 -2.43699,-1.21454 -2.43699,-1.56381 0,-0.34927 0.17464,-4.34607 0.17464,-5.38993 0,-0.17463 0,-0.3453 0.17465,-0.51994 l 2.95294,-3.82216 c 0.17465,-0.17464 0.34928,-0.17464 0.52392,-0.34927 l 2.26234,-0.52393 c 0.17066,0 0.34133,-0.17066 0.34133,-0.17066 l 3.13156,-3.30223 c 0.3453,-0.34927 0.3453,-0.69458 0.17067,-1.04385 l -0.17067,-0.34927 c -0.3453,-0.34531 -0.17067,-0.86525 0.3453,-1.21452 l 4.87,-2.95692 c 0.17463,0 0.17463,-0.17067 0.34927,-0.17067 l 11.99042,-0.52391 c 0.17463,0 0.34927,0 0.51994,0.17464 l 4.34608,2.77831 0.34927,0.34928 1.73844,4.00076 c 0,0.17068 0.17066,0.17068 0.17066,0.34531 l 6.77909,6.25915 c 0.17464,0.17067 0.17464,0.17067 0.17464,0.34531 l 1.04385,2.78228 v 0.34927 l -0.17464,3.12759 c 0,0.34531 -0.34531,0.69458 -0.69458,0.69458 l -0.69458,0.17067 c -0.51994,0 -0.86921,0.52392 -0.69458,1.04385 l 0.51995,1.39313 v 0.51994 l -1.5638,4.34608 -0.86921,2.60764 v 0.17067 l -0.69458,33.895461 c 0,1.04385 -1.56379,1.04385 -1.73843,0 L 37.54694,77.002999 36.49913,66.397769 c 0,-0.17464 -0.17067,-0.3453 -0.34531,-0.51994"
     style="fill:#000000;fill-opacity:1;stroke-width:3.96902"
     id="path16"
     sodipodi:nodetypes="ccccccccccccccccccccccccccccccccccccccccccccccccsssccccscccccccccsscsccccsscccccccscccccccccsccccccccssssccccccccssccssccccssccsssccccccccssccccccccccccccccccccccssccccccccccccccccccccccccccccccccccc" />
</svg>
