<?xml version="1.0" encoding="UTF-8" standalone="no"?>
<svg
   viewBox="0 0 61.353142 458.17199"
   fill="#000"
   version="1.1"
   id="svg18"
   sodipodi:docname="surv_2.svg"
   width="61.353142"
   height="458.172"
   inkscape:version="1.2 (dc2aeda, 2022-05-15)"
   xmlns:inkscape="http://www.inkscape.org/namespaces/inkscape"
   xmlns:sodipodi="http://sodipodi.sourceforge.net/DTD/sodipodi-0.dtd"
   xmlns="http://www.w3.org/2000/svg"
   xmlns:svg="http://www.w3.org/2000/svg">
  <defs
     id="defs22" />
  <sodipodi:namedview
     id="namedview20"
     pagecolor="#505050"
     bordercolor="#ffffff"
     borderopacity="1"
     inkscape:showpageshadow="0"
     inkscape:pageopacity="0"
     inkscape:pagecheckerboard="1"
     inkscape:deskcolor="#505050"
     showgrid="false"
     inkscape:zoom="1.0442849"
     inkscape:cx="146.51174"
     inkscape:cy="225.99196"
     inkscape:window-width="1536"
     inkscape:window-height="853"
     inkscape:window-x="0"
     inkscape:window-y="25"
     inkscape:window-maximized="1"
     inkscape:current-layer="svg18" />
  <g
     id="g349"
     transform="translate(-217.90108,-5.7686523e-4)">
    <path
       d="m 260.48472,46.581022 -0.17464,-0.174642 -8.16824,-3.127586 h -0.34531 l -5.38994,0.174637 c -0.34927,0 -0.69458,0.345307 -0.69458,0.694579 v 2.25837 c 0,0.349279 0.17067,0.519943 0.51995,0.69458 l 4.34608,1.218488 h 0.17464 l 1.9091,0.869217 c 0.17464,0 0.17464,0.174642 0.17464,0.174642 l 1.74239,2.603676 c 0.17067,0.174636 0.51994,0.349273 0.69458,0.174636 l 3.64754,-1.214523 h 0.51994 l 1.7424,1.214523 h 0.17067 l 2.95691,0.869216 h 0.51995 l 1.03988,-0.694579 c 0.34928,-0.174637 0.34928,-0.69458 0,-1.03988 z"
       style="stroke-width:3.96902"
       id="path10" />
    <path
       d="m 270.71022,237.1886 -0.14418,-29.83043 0.86922,-40.15063 -2.43699,-10.08132 0.69856,-36.8484 2.25836,-9.2121 1.5638,39.63069 1.91306,-55.272605 3.82217,-10.255951 -0.86921,-9.38674 -0.34531,-8.866797 -0.69458,-11.990413 -1.91307,-10.775894 -3.30222,-0.869216 -2.433,-25.552567 -3.82615,21.206486 -1.21452,-19.64269 -2.78228,12.688962 L 259.44087,5.7686523e-4 251.26865,33.022838 l -10.59729,3.826137 -14.9513,3.822171 -7.81898,14.947337 0.17067,30.069308 5.90987,15.471249 -0.3453,26.76709 7.29903,19.81335 -4.34211,9.38674 1.73446,37.54298 0.17464,2.08771 c -0.34927,0 3.6515,67.61229 3.6515,67.61229 0,0 0.17463,0.52391 0.69458,1.21849 v 0.86524 l -0.34928,19.988 3.6515,15.99516 -0.34927,18.7695 1.73844,10.25596 2.0877,75.2606 2.43301,-34.59003 0.51994,50.06127 2.60764,35.97919 6.7791,-80.4759 -0.86922,-23.63552 4.17144,-13.55818 1.04386,-54.22875 2.60765,-19.64666 c 0.3453,0 0.69458,-0.17464 1.04385,-0.17464 l 0.51994,71.2638 5.73524,-71.78374 c 0.95851,-1.81835 1.74198,-3.30321 1.74198,-3.30321 M 224.3309,61.702992 l 2.26234,-2.95692 c 0.17464,-0.345305 0.69061,-0.345305 1.03988,-0.174637 0.51995,0.174637 0.69458,0.698548 0.34531,1.218489 l -0.86524,1.738432 -1.04385,1.563795 c -0.34928,0.519944 -0.86923,0.519944 -1.39314,0.174637 l -0.51994,-0.519943 c 0,-0.174637 0,-0.694581 0.17464,-1.043853 m 41.88906,0.69458 c -0.34928,-0.519944 -1.04386,-0.349274 -1.21849,0.174636 l -1.38916,6.604456 c -0.17067,0.694574 -1.21452,0.694574 -1.21452,-0.174636 l -0.52391,-8.692161 c 0,-0.519943 -0.69061,-0.865247 -1.03989,-0.519943 l -2.26234,1.738432 c -0.17463,0 -0.17463,0.174636 -0.34928,0.174636 l -0.69061,0.174636 c -0.34927,0 -0.52391,-0.174636 -0.69457,-0.349272 l -1.74241,-5.040658 -0.34927,0.869216 v 0.174637 l -0.17066,1.389159 v 0.174637 l 0.86921,4.346078 v 0.17067 l 1.04385,2.087705 v 0.349272 l -0.34928,3.476865 v 0.170664 l -1.39312,3.131563 v 0.174637 l -2.08373,123.579469 -1.73447,-70.21994 c 0,-0.86922 -1.21848,-0.86922 -1.21848,0 0,0.86922 -1.21849,0.86922 -1.21849,0 l -0.52391,-54.578024 c 0,-0.174636 -0.17067,-0.519937 -0.34134,-0.519937 l -1.91704,-0.873188 c -0.17067,0 -0.17067,-0.170664 -0.34531,-0.345301 l -1.73843,-2.258375 c 0,-0.174636 -0.17066,-0.174636 -0.3453,-0.349274 l -3.47686,-1.214522 c 0,0 1.03988,1.563796 1.03988,1.738432 0,0.17067 0.86921,1.909097 1.21849,2.42904 v 0.349272 l -0.86921,19.987999 c 0,0.869215 -1.21453,0.869215 -1.21453,0 L 238.7583,69.696601 c 0,-0.345301 -0.17464,-0.519937 -0.52391,-0.519937 l -4.51676,-1.214523 h -0.51994 l -1.04385,0.690607 c -0.17464,0.174637 -0.34928,0.174637 -0.34928,0.34928 -0.17463,1.218489 -1.04385,5.735233 -1.04385,5.909869 0,0.174637 -1.21452,-2.258375 -1.56379,-3.302227 -0.17067,-0.174637 -0.3453,-0.345301 -0.51994,-0.345301 h -3.12759 l -2.95693,0.170664 -1.73843,0.174637 1.5638,-2.433006 c 0,-0.174636 0.17463,-0.174636 0.34927,-0.174636 l 3.82614,-1.389159 c 0.17464,0 0.34531,-0.174638 0.34531,-0.52391 l 0.51994,-1.909103 c 0.17463,-0.519943 0.86921,-0.694579 1.21849,-0.174636 l 0.86921,1.218489 c 0.17464,0.17067 0.34928,0.345307 0.52392,0.345307 l 2.60367,-0.174637 c 0.34927,0 0.52391,-0.345307 0.52391,-0.694579 l -0.17464,-5.215297 c 0,-0.174636 -0.17463,-0.345306 -0.17463,-0.519941 l -0.86922,-0.694579 c -0.34927,-0.174636 -0.34927,-0.698548 0,-1.043853 l 2.60765,-2.607647 v -0.174638 l 1.38915,-2.258373 c 0.17464,-0.345307 0.69856,-0.345307 1.04387,-0.174637 l 3.65149,3.476863 c 0.17067,0.174638 0.17067,0.519942 0,0.869216 l -1.56776,2.087706 v 0.174636 l -0.17067,0.519941 c 0,0.17067 0,0.519942 0.17067,0.694579 l 3.47686,3.826137 c 0.17463,0.170671 0.17463,0.170671 0.34927,0.170671 l 5.90988,0.869216 c 0.17464,0 0.34531,0 0.51994,-0.174636 l 2.08374,-2.083739 c 0.17464,-0.174637 0.17464,-0.349274 0.17464,-0.519944 l -0.86525,-5.913841 c 0,-0.170667 0,-0.170667 -0.17464,-0.345304 l -4.52072,-5.73524 c -0.17464,-0.174636 -0.34531,-0.174636 -0.51994,-0.174636 l -7.12836,-0.523909 c -0.34927,0 -3.99681,-0.690608 -3.99681,-0.865244 0,-0.174642 0.86922,-2.436984 1.04385,-3.302228 0,-0.174636 0.34531,-0.349272 0.51994,-0.349272 l 5.04066,-0.694581 c 0.17465,0 0.34531,-0.174636 0.51995,-0.349272 l 1.04385,-2.083739 c 0.17463,-0.174636 0.34927,-0.349274 0.52391,-0.349274 l 9.03747,-1.563795 h 0.3453 l 8.34685,2.607648 h 0.17465 l 5.90589,3.302228 c 0.17464,0 0.17464,0.174637 0.17464,0.174637 l 6.08451,9.732039 c 0,0.174638 0.17464,0.174638 0.17464,0.349275 l -1.04385,25.897869 -0.52391,6.255177 -1.55982,-20.162634 c 0,-0.174637 0,-0.174637 -0.17464,-0.345301 z"
       style="stroke-width:3.96902"
       id="path16"
       sodipodi:nodetypes="ccccccccccccccccccccccccccccccccccccccccccccccccccccccccccccccccccccccccccccccccccccsccccccccsccccccccccscsccccccccccccccccccccccccccccccssccccccsccccccccccccccccccc" />
  </g>
</svg>
