<?xml version="1.0" encoding="UTF-8" standalone="no"?>
<svg
   viewBox="0 0 53.188869 405.85631"
   fill="#000"
   version="1.1"
   id="svg18"
   sodipodi:docname="surv_3.svg"
   width="53.188869"
   height="405.85632"
   inkscape:version="1.2 (dc2aeda, 2022-05-15)"
   xmlns:inkscape="http://www.inkscape.org/namespaces/inkscape"
   xmlns:sodipodi="http://sodipodi.sourceforge.net/DTD/sodipodi-0.dtd"
   xmlns="http://www.w3.org/2000/svg"
   xmlns:svg="http://www.w3.org/2000/svg">
  <defs
     id="defs22" />
  <sodipodi:namedview
     id="namedview20"
     pagecolor="#505050"
     bordercolor="#ffffff"
     borderopacity="1"
     inkscape:showpageshadow="0"
     inkscape:pageopacity="0"
     inkscape:pagecheckerboard="1"
     inkscape:deskcolor="#505050"
     showgrid="false"
     inkscape:zoom="1.0003725"
     inkscape:cx="461.82797"
     inkscape:cy="238.91101"
     inkscape:window-width="1536"
     inkscape:window-height="853"
     inkscape:window-x="0"
     inkscape:window-y="25"
     inkscape:window-maximized="1"
     inkscape:current-layer="svg18" />
  <g
     id="g403"
     transform="translate(-317.14648,-11.47105)">
    <path
       d="M 359.38481,58.051493 355.388,53.534745 c -0.17463,-0.174636 -0.17463,-0.174636 -0.34927,-0.174636 l -12.16505,-1.393126 h -0.34927 l -6.77512,2.782284 c 0,0 -0.17464,0 -0.17464,0.174637 l -3.30223,3.476863 c -0.34928,0.345305 -0.17464,1.043853 0.3453,1.043853 h 1.38916 c 0.17464,0 0.34927,0 0.34927,0.174636 l 1.56381,1.563793 c 0.17463,0.17067 0.34927,0.17067 0.5239,0.17067 l 10.4306,-1.389157 c 0.51994,0 0.69061,-0.869215 0.3453,-1.21849 -0.51994,-0.345305 -0.17464,-1.039883 0.34531,-1.214521 l 5.91383,-0.349274 h 0.17464 l 5.0367,1.738433 c 0.52391,0.349273 1.04385,-0.349275 0.69457,-0.869217"
       style="stroke-width:3.96902"
       id="path2" />
    <path
       d="m 358.5156,241.07898 v -9.55741 l 1.04385,-6.95373 0.17464,-54.57802 c 0,0 2.433,-12.16903 2.78228,-12.16903 0.3453,0 0.17067,55.79652 0.17067,55.79652 l 2.43301,-5.73523 3.47687,-80.47589 -4.34609,-13.90746 0.86922,-29.200092 5.2153,-16.511133 -3.64754,-18.078898 -5.56457,-2.083733 -4.69139,-12.343661 -2.43697,6.259149 -9.38277,-4.34608 -2.78228,-13.903486 -3.6515,16.860407 -3.30224,-28.680153 -5.04065,33.196904 -7.64434,9.212098 -0.69855,6.604451 -3.30222,9.041434 1.38916,10.251985 -2.43301,8.692154 3.12759,5.560604 1.74239,46.23514 v 0.34927 l 0.86525,2.60765 -0.17463,4.34607 -0.69062,28.15625 3.82218,14.7727 0.17464,38.58684 0.17066,2.0877 c -0.69893,2.52583 1.91307,49.18809 4.34608,51.96641 0.17463,0.17463 0.34927,0.52391 0.69855,0.69854 l 0.3453,28.68015 -2.60367,12.3397 6.08053,54.9273 2.25838,-44.67136 3.6515,5.38994 1.73843,76.82439 3.82217,-32.67696 V 367.79 l 3.99681,-10.25197 v -53.0182 l 3.82613,-12.85963 m 2.26234,-189.62798 0.17067,6.95374 v 0.17463 l -1.21452,3.82216 v 0.17067 l -1.56776,74.22072 -2.60368,-86.21113 c 0,-0.17464 0.17067,-0.51994 0.34531,-0.51994 l 4.34607,-2.087708 c 0.17464,-0.174636 0.34927,-0.349273 0.34927,-0.519943 v -1.738432 c 0,-0.174637 -0.17463,-0.52391 -0.34927,-0.52391 l -3.82217,-2.083733 c -0.17463,-0.174642 -0.34927,-0.349278 -0.34927,-0.523915 l -0.51994,-5.211324 -1.21849,2.433011 h -0.69458 l -0.51994,-14.951309 c 0,-0.865244 -1.21849,-0.865244 -1.21849,0 l -1.04385,15.820526 c 0,0.170664 -0.17464,0.3453 -0.17464,0.519943 l -1.5638,1.218489 c -0.3453,0.170664 -0.69458,0.170664 -0.86922,-0.174637 l -1.90909,-2.433012 -0.17464,-0.174636 -1.04385,-3.302228 c 0,-0.349272 -0.34927,-0.523909 -0.69458,-0.523909 h -0.17463 c -0.34928,0 -0.69458,0.349273 -0.69458,0.698545 v 2.258376 c 0,0.349273 -0.34531,0.69458 -0.69458,0.69458 l -1.91307,-0.174636 c -0.17463,0 -0.34927,-0.170671 -0.34927,-0.170671 l -1.03989,-1.218489 c -0.17463,-0.174637 -0.34928,-0.174637 -0.52392,-0.174637 l -7.82293,-0.345306 c -0.3453,0 -0.69458,0.17067 -0.69458,0.519943 l -0.51597,3.302228 c 0,0.174637 0,0.519937 0.17067,0.519937 l 4.17144,3.476864 c 0.17066,0.174637 0.3453,0.174637 0.51993,0.174637 l 3.12759,-0.174637 h 0.17464 l 4.52072,-2.083733 h 0.34927 l 2.25838,0.345302 c 0.17463,0 0.3453,0.174636 0.51994,0.349272 l 2.60764,5.215297 c 0.17464,0.17067 0.34928,0.345306 0.51994,0.345306 l 3.30224,0.523909 c 0.34927,0 0.52391,0.34531 0.52391,0.69458 -0.17464,7.82295 -1.91307,97.3363 -2.08771,122.01964 -0.34531,-20.86118 -1.73844,-87.60425 -2.25838,-109.15604 0,-0.69855 -1.21452,-0.87319 -1.21452,0 l -0.69457,3.82217 c -0.17464,0.69458 -1.21849,0.69458 -1.21849,0 l -1.21849,-8.68819 c 0,-0.17463 0,-0.17463 -0.17464,-0.17463 l -1.56379,-2.43699 c 0,-0.17066 -0.17067,-0.17066 -0.17067,-0.3453 v -1.21848 c 0,-0.51995 0.51994,-0.69459 0.86921,-0.51995 l 2.25838,1.04385 c 0.3453,0.17464 0.69458,0 0.86921,-0.34927 l 1.04385,-2.25838 v -0.51994 l -2.43697,-5.215298 c -0.17464,-0.349272 -0.69458,-0.523908 -1.03989,-0.174636 l -2.61161,2.258375 c -0.17067,0.174637 -0.17067,0.174637 -0.17067,0.349274 l -1.03988,6.084515 c 0,0.17067 -0.17464,0.34531 -0.17464,0.34531 l -2.08771,1.91306 c -0.17464,0.17067 -0.17464,0.3453 -0.17464,0.51994 l -1.21452,36.32846 c 0,0.69458 -1.04385,0.86921 -1.21849,0.17464 l -1.21849,-5.90987 v -0.17464 l -0.17463,-37.89226 c 0,-0.3453 -0.3453,-0.69458 -0.69061,-0.69458 h -1.56777 c -0.34927,0 -0.51993,-0.17463 -0.69457,-0.523905 l -0.51994,-3.472898 c 0,-0.174637 0,-0.349273 -0.17464,-0.349273 l -3.82218,-3.651501 c -0.17463,-0.170664 -0.17463,-0.3453 -0.17463,-0.519937 l 0.52391,-10.426621 c 0,-0.349279 0.17067,-0.523915 0.51597,-0.523915 l 1.21849,-0.174637 c 0.34928,0 0.69459,0.174637 0.69459,0.52391 l 0.52391,2.258375 c 0,0.345307 0.34927,0.519943 0.69458,0.519943 l 3.12759,-0.519943 c 0.51993,-0.174636 0.69457,-0.69458 0.3453,-1.043852 l -3.30223,-3.302228 c -0.17066,-0.174637 -0.17066,-0.349273 -0.17066,-0.519938 l 0.3453,-2.607648 c 0,-0.174636 0,-0.349272 -0.17464,-0.523915 l -1.90909,-2.258369 C 324.1002,73.006767 324.1002,72.83213 324.1002,72.83213 l 0.17465,-9.906677 c 0,-0.174636 0,-0.349273 0.17463,-0.349273 l 5.9059,-7.993612 c 0,-0.174635 0.17464,-0.174635 0.34927,-0.174635 l 8.17222,-2.782285 c 0.34531,-0.174636 0.51995,-0.345306 0.34531,-0.69458 v -1.043852 c 0,-0.345307 0.34927,-0.694579 0.69458,-0.694579 l 11.99438,0.349272 c 0.17464,0 0.34927,0 0.34927,0.17067 l 4.86205,3.826138 6.08848,6.949758 0.17465,0.174636 2.95294,9.212099 v 4.171443 c 0,0.174637 0,0.349274 -0.17463,0.52391 l -3.82216,3.822165 -4.00078,4.171444 c -0.17464,0.174636 -0.17464,0.349272 -0.17464,0.519944 l -0.17066,6.953728 c 0,0.174636 0,0.349272 -0.17464,0.519937 l -1.90911,1.913068 c -0.34927,0.349279 -0.17463,0.69458 0,1.043853 l 2.08375,1.389159 c 0,0 0.17464,0 0.17464,0.174637 l 2.60367,0.694579 c 0.34927,0.174637 0.52391,0.52391 0.34927,0.69458 l -1.04385,3.826133 c 0,0.17464 -0.17066,0.34928 -0.3453,0.34928 l -3.47687,1.9091 c 0.51994,-0.87319 0.34927,-0.69855 0.34927,-0.51995"
       style="stroke-width:3.96902"
       id="path16"
       sodipodi:nodetypes="ccccscccccccccccccccccccccccccccccccccccccccccccccccccccsscccccccccccccccsssscccccccccccccccccccccccccccccssccccccccccccccccccssccccccccccccsccccccccccccscccccccscccccccccccccccc" />
  </g>
</svg>
