<?xml version="1.0" encoding="UTF-8" standalone="no"?>
<svg viewBox="0 0 60.138611 408.46395" fill="#000" version="1.1" id="svg1401" sodipodi:docname="surv_1.svg"
	width="60.138611" height="408.46396" inkscape:version="1.2 (dc2aeda, 2022-05-15)"
	xmlns:inkscape="http://www.inkscape.org/namespaces/inkscape"
	xmlns:sodipodi="http://sodipodi.sourceforge.net/DTD/sodipodi-0.dtd" xmlns="http://www.w3.org/2000/svg"
	xmlns:svg="http://www.w3.org/2000/svg">
	<defs id="defs1405" />
	<sodipodi:namedview id="namedview1403" pagecolor="#505050" bordercolor="#ffffff" borderopacity="1"
		inkscape:showpageshadow="0" inkscape:pageopacity="0" inkscape:pagecheckerboard="1" inkscape:deskcolor="#505050"
		showgrid="false" inkscape:zoom="0.896901" inkscape:cx="154.97808" inkscape:cy="245.28906"
		inkscape:window-width="1536" inkscape:window-height="853" inkscape:window-x="0" inkscape:window-y="25"
		inkscape:window-maximized="1" inkscape:current-layer="svg1401" />
	<g id="g1411" transform="translate(-120.56479,-39.107351)">
		<path
			d="m 167.8398,111.58963 -5.04065,0.69458 c -0.17067,0 -0.3453,0.17463 -0.3453,0.17463 l -4.34609,4.17146 c -0.3453,0.3453 -0.3453,0.86921 0,1.21848 l 1.5638,1.21452 c 0.17464,0.17464 0.34928,0.17464 0.69458,0.17464 l 3.82614,-0.52391 c 0.17463,0 0.17463,0 0.3453,-0.17067 l 3.13156,-1.91306 c 0.17066,-0.17464 0.3453,-0.34531 0.3453,-0.51995 l 0.87319,-3.47687 c 0,-0.69458 -0.34928,-1.21849 -1.04783,-1.04385"
			style="stroke-width:3.96902" id="path1387" />
		<path
			d="m 159.15161,107.58886 v -0.17067 c -0.17464,-0.34927 -0.51994,-0.52391 -0.86921,-0.34927 l -4.51675,0.69458 c -0.34927,0 -0.51994,0.17463 -0.51994,0.51994 l -1.56776,3.47686 c -0.17463,0.34927 -0.69458,0.52391 -1.04385,0.34927 l -8.68819,-3.82613 c -0.69855,-0.34531 -1.39313,0.34927 -1.04385,1.04385 v 0.17464 c 0,0.17463 0.17463,0.17463 0.17463,0.3453 l 10.08132,7.99758 c 0.17067,0.17464 0.69458,0.17464 0.86921,0 l 2.43301,-1.56379 c 0.17067,-0.17464 0.3453,-0.34928 0.3453,-0.69458 l 0.17465,-4.00078 c 0,-0.17464 0.17463,-0.51994 0.34927,-0.69458 l 3.47686,-2.433 c 0.3453,0 0.51994,-0.51995 0.3453,-0.86922"
			style="stroke-width:3.96902" id="path1389" />
		<path
			d="m 141.24736,87.60086 15.29661,0.174637 c 0.51994,0 0.86921,-0.345301 0.86921,-0.869217 v -1.563789 c 0,-0.523916 0.69458,-1.043853 1.21849,-0.69458 l 3.47687,1.73446 c 0.17067,0.174637 0.34531,0.174637 0.51994,0 l 0.69458,-0.170665 c 0.51994,-0.174636 0.86922,-0.869215 0.34531,-1.393131 l -5.0367,-4.691381 c -0.17464,-0.174636 -0.34927,-0.174636 -0.52391,-0.174636 l -6.42981,-0.869216 c -0.34927,0 -0.69458,-0.345307 -0.69458,-0.869217 0,-0.345306 -0.34927,-0.694579 -0.69854,-0.86525 l -5.56061,-0.349272 c -0.17464,0 -0.34531,0 -0.34531,0.174636 l -8.34288,4.342114 c -0.17464,0.174637 -0.34927,0.349273 -0.34927,0.52391 l -0.69458,3.127591 c -0.17464,0.523909 0.34927,1.043852 0.86921,1.043852 l 1.73844,-0.174636 c 0.17067,0 0.34531,0 0.34531,-0.174642 l 1.21849,-1.043853 c 0.51994,-0.3453 1.21451,0 1.21451,0.523916 v 1.03988 c 0.17464,0.873188 0.52392,1.218489 0.86922,1.218489"
			style="stroke-width:3.96902" id="path1391" />
		<path
			d="m 171.09631,201.23507 c 0,0 -1.11065,-17.67564 -1.34344,-20.81863 v -21.37715 l 3.99681,-10.60522 0.52391,-21.55179 1.38916,-3.30223 -0.51994,-8.86283 3.12759,-5.90987 2.433,-8.866801 -5.73523,-26.767083 -2.25837,11.125172 -3.99681,-45.191287 -7.303,37.542979 -3.82217,-22.770278 -3.82614,15.991186 -11.99041,-0.694574 -13.03824,10.430586 v 7.473672 l -3.82217,7.818973 0.86525,10.605225 -0.86525,7.81897 0.17067,16.34047 -4.51674,16.33649 6.08054,25.90184 c 0,0 -1.43834,57.92522 0.69855,60.8332 v 9.38277 l 1.38915,5.91385 1.91307,90.72787 3.6515,-73.86747 2.08374,7.1244 0.51994,61.88101 4.17541,18.42024 -0.69855,20.86118 1.39313,7.64831 0.17464,19.63871 4.86205,47.10436 4.86999,-47.10436 -0.52391,-24.85798 3.30619,-10.94656 0.17067,-35.10997 2.78228,57.53097 4.17145,-89.16805 -0.69458,-5.90986 6.94975,-20.15867 -0.17066,-19.988 2.60367,-5.3939 v -9.90668 l 0.61912,-17.9461 m -24.95319,21.24833 -2.43301,-88.64414 -0.86921,-9.03746 -1.21453,-9.90669 c -0.17463,-1.21849 -1.91306,-1.38915 -2.26233,-0.17463 v 0.34927 l 1.91703,78.38819 -5.73921,-81.86505 v -0.17463 l -1.38915,-6.25519 c -0.17464,-0.52391 0.17463,-1.21849 0.86921,-1.39312 l 1.5638,-0.34531 c 0.51994,-0.17464 0.86921,-0.52391 0.86921,-1.04385 l 0.34928,-3.30619 c 0,-0.69061 0.69458,-1.21453 1.38519,-1.03988 l 1.39312,0.34927 c 0.52392,0.17066 0.86922,0.51994 0.86922,1.03988 l 0.69855,7.12836 c 0,0.3453 0.17066,0.69458 0.51597,0.86524 l 4.52071,2.95694 c 0.34928,0.17463 0.52391,0.51993 0.52391,1.04385 z m 21.20648,-115.5819 c -0.17463,0 -0.34927,0.17464 -0.34927,0.34927 l -1.03988,2.25442 v 0.34927 l -0.86921,26.41781 c 0,1.04385 -1.5638,1.04385 -1.5638,0 l -2.78228,-25.89786 v -0.17465 l -2.08375,-4.17144 c -0.17463,-0.34531 -0.52391,-0.51994 -0.86921,-0.51994 l -1.7424,0.3453 c -0.34133,0 -0.69061,0.34928 -0.69061,0.69855 l -0.52391,8.86283 c 0,0.86921 -1.38915,1.04385 -1.56379,0 l -1.38916,-8.34289 c 0,-0.17464 0,-0.17464 -0.17463,-0.34531 l -2.08771,-2.61161 -0.17463,-0.17067 -13.20892,-11.47444 c -0.34928,-0.17067 -0.69458,-0.17067 -1.03988,0 l -0.51995,0.34928 c -0.34927,0.17463 -0.5239,0.69457 -0.17463,1.04385 l 1.38518,2.25837 c 0.17464,0.34927 0,1.04385 -0.3453,1.21849 l -0.86525,0.3453 c -0.17463,0.17464 -0.5239,0 -0.69854,-0.17464 l -4.17144,-3.12758 c -0.17464,-0.17464 -0.34927,-0.34928 -0.34927,-0.69458 l -0.17464,-9.38674 c 0,-0.17464 0,-0.3453 -0.17067,-0.51994 l -2.433,-2.607644 c -0.17466,-0.174636 -0.34929,-0.519943 -0.17466,-0.869216 l 4.52073,-9.906683 v -0.349273 l -0.17464,-4.866018 c 0,-0.349273 0.17464,-0.523915 0.34927,-0.69458 l 8.6882,-5.215296 h 0.17464 l 6.25517,-1.913069 h 0.34927 l 11.12517,2.087705 c 0.17464,0 0.17464,0 0.3453,0.170671 l 10.60523,7.303001 c 0.17464,0 0.17464,0.174637 0.17464,0.174637 l 5.73524,9.557405 c 0,0.174636 0,0.174636 0.17067,0.349272 l 1.21849,8.517518 v 0.3453 l -1.04386,5.56458 c 0,0.17463 0,0.17463 -0.17463,0.34927 l -3.64753,5.38596 c 0,0.17464 -0.17464,0.17464 -0.17464,0.3453 l -0.34927,5.2153 v 0.34928 l 0.34927,1.21452 c 0.17464,0.34927 0,0.69854 -0.34927,0.86921 z"
			style="stroke-width:3.96902" id="path1399"
			sodipodi:nodetypes="ccccccccccccccccccccccccccccccccccccccccccccccccccccccccccccccccccccccccccccccccccccccccccccccccccccccccccccccccccccccccccccccc" />
	</g>
</svg>
