<?xml version="1.0" encoding="UTF-8" standalone="no"?>
<svg
   viewBox="0 0 61.353142 458.17199"
   version="1.1"
   id="svg2390"
   sodipodi:docname="surv_2.svg"
   inkscape:version="1.2 (dc2aeda, 2022-05-15)"
   width="61.353142"
   height="458.172"
   xmlns:inkscape="http://www.inkscape.org/namespaces/inkscape"
   xmlns:sodipodi="http://sodipodi.sourceforge.net/DTD/sodipodi-0.dtd"
   xmlns="http://www.w3.org/2000/svg"
   xmlns:svg="http://www.w3.org/2000/svg">
  <defs
     id="defs2394" />
  <sodipodi:namedview
     id="namedview2392"
     pagecolor="#505050"
     bordercolor="#ffffff"
     borderopacity="1"
     inkscape:showpageshadow="0"
     inkscape:pageopacity="0"
     inkscape:pagecheckerboard="1"
     inkscape:deskcolor="#505050"
     showgrid="false"
     inkscape:zoom="0.94695942"
     inkscape:cx="58.08063"
     inkscape:cy="304.65931"
     inkscape:window-width="1536"
     inkscape:window-height="850"
     inkscape:window-x="0"
     inkscape:window-y="25"
     inkscape:window-maximized="0"
     inkscape:current-layer="svg2390" />
  <path
     d="M 42.58364,46.580445 42.409,46.405803 34.24076,43.278217 h -0.34531 l -5.38994,0.174637 c -0.34927,0 -0.69458,0.345307 -0.69458,0.694579 v 2.25837 c 0,0.349279 0.17067,0.519943 0.51995,0.69458 l 4.34608,1.218488 h 0.17464 l 1.9091,0.869217 c 0.17464,0 0.17464,0.174642 0.17464,0.174642 l 1.74239,2.603676 c 0.17067,0.174636 0.51994,0.349273 0.69458,0.174636 l 3.64754,-1.214523 h 0.51994 l 1.7424,1.214523 h 0.17067 l 2.95691,0.869216 h 0.51995 l 1.03988,-0.694579 c 0.34928,-0.174637 0.34928,-0.69458 0,-1.03988 z"
     style="fill:#000000;fill-opacity:1;stroke-width:3.96902"
     id="path2382"
     sodipodi:nodetypes="cccccsscccccccccccccccc" />
  <path
     d="m 52.66496,207.35759 0.86922,-40.15063 -2.43699,-10.08132 0.69856,-36.8484 2.25836,-9.2121 1.5638,39.63069 1.91306,-55.272602 3.82217,-10.255951 -0.86921,-9.38674 L 60.13862,66.91374 59.44404,54.923327 57.53097,44.147433 54.22875,43.278217 51.79575,17.72565 47.9696,38.932136 46.75508,19.289446 43.9728,31.978408 41.53979,0 33.36757,33.022261 22.77028,36.848398 7.81898,40.670569 0,55.617906 l 0.17067,30.069308 5.90987,15.471246 -0.3453,26.76709 7.29903,19.81335 -4.34211,9.38674 1.73446,37.54298 0.17464,2.08771 c -0.34927,0 3.6515,67.61229 3.6515,67.61229 0,0 0.17463,0.52391 0.69458,1.21849 v 0.86524 l -0.34928,19.988 3.6515,15.99516 -0.34927,18.7695 1.73844,10.25596 2.0877,75.2606 2.43301,-34.59003 0.51994,50.06127 2.60764,35.97919 6.7791,-80.4759 -0.86922,-23.63552 4.17144,-13.55818 1.04386,-54.22875 2.60765,-19.64666 c 0.3453,0 0.69458,-0.17464 1.04385,-0.17464 l 0.51994,71.2638 5.73524,-71.78374 M 6.42982,61.702415 8.69216,58.745495 C 8.8668,58.40019 9.38277,58.40019 9.73204,58.570858 c 0.51995,0.174637 0.69458,0.698548 0.34531,1.218489 L 9.21211,61.527779 8.16826,63.091574 C 7.81898,63.611518 7.29903,63.611518 6.77512,63.266211 L 6.25518,62.746268 c 0,-0.174637 0,-0.694581 0.17464,-1.043853 m 41.88906,0.69458 c -0.34928,-0.519944 -1.04386,-0.349274 -1.21849,0.174636 l -1.38916,6.604456 c -0.17067,0.694574 -1.21452,0.694574 -1.21452,-0.174636 L 43.9728,60.30929 c 0,-0.519943 -0.69061,-0.865247 -1.03989,-0.519943 l -2.26234,1.738432 c -0.17463,0 -0.17463,0.174636 -0.34928,0.174636 l -0.69061,0.174636 c -0.34927,0 -0.52391,-0.174636 -0.69457,-0.349272 l -1.74241,-5.040658 -0.34927,0.869216 v 0.174637 l -0.17066,1.389159 v 0.174637 l 0.86921,4.346078 v 0.17067 l 1.04385,2.087705 v 0.349272 l -0.34928,3.476865 v 0.170664 l -1.39312,3.131563 v 0.174637 L 34.7607,196.58169 33.02623,126.36175 c 0,-0.86922 -1.21848,-0.86922 -1.21848,0 0,0.86922 -1.21849,0.86922 -1.21849,0 L 30.06535,71.783729 c 0,-0.174636 -0.17067,-0.519937 -0.34134,-0.519937 l -1.91704,-0.873188 c -0.17067,0 -0.17067,-0.170664 -0.34531,-0.345301 l -1.73843,-2.258375 c 0,-0.174636 -0.17066,-0.174636 -0.3453,-0.349274 l -3.47686,-1.214522 c 0,0 1.03988,1.563796 1.03988,1.738432 0,0.17067 0.86921,1.909097 1.21849,2.42904 v 0.349272 l -0.86921,19.987999 c 0,0.869215 -1.21453,0.869215 -1.21453,0 L 20.85722,69.696024 c 0,-0.345301 -0.17464,-0.519937 -0.52391,-0.519937 l -4.51676,-1.214523 h -0.51994 l -1.04385,0.690607 c -0.17464,0.174637 -0.34928,0.174637 -0.34928,0.34928 -0.17463,1.218489 -1.04385,5.735233 -1.04385,5.909869 0,0.174637 -1.21452,-2.258375 -1.56379,-3.302227 -0.17067,-0.174637 -0.3453,-0.345301 -0.51994,-0.345301 H 7.64831 l -2.95693,0.170664 -1.73843,0.174637 1.5638,-2.433006 c 0,-0.174636 0.17463,-0.174636 0.34927,-0.174636 l 3.82614,-1.389159 c 0.17464,0 0.34531,-0.174638 0.34531,-0.52391 L 9.55741,65.179279 C 9.73204,64.659336 10.42662,64.4847 10.7759,65.004643 l 0.86921,1.218489 c 0.17464,0.17067 0.34928,0.345307 0.52392,0.345307 l 2.60367,-0.174637 c 0.34927,0 0.52391,-0.345307 0.52391,-0.694579 l -0.17464,-5.215297 c 0,-0.174636 -0.17463,-0.345306 -0.17463,-0.519941 l -0.86922,-0.694579 c -0.34927,-0.174636 -0.34927,-0.698548 0,-1.043853 l 2.60765,-2.607647 v -0.174638 l 1.38915,-2.258373 c 0.17464,-0.345307 0.69856,-0.345307 1.04387,-0.174637 l 3.65149,3.476863 c 0.17067,0.174638 0.17067,0.519942 0,0.869216 l -1.56776,2.087706 v 0.174636 l -0.17067,0.519941 c 0,0.17067 0,0.519942 0.17067,0.694579 l 3.47686,3.826137 c 0.17463,0.170671 0.17463,0.170671 0.34927,0.170671 l 5.90988,0.869216 c 0.17464,0 0.34531,0 0.51994,-0.174636 l 2.08374,-2.083739 c 0.17464,-0.174637 0.17464,-0.349274 0.17464,-0.519944 L 32.8516,57.007063 c 0,-0.170667 0,-0.170667 -0.17464,-0.345304 l -4.52072,-5.73524 C 27.9816,50.751883 27.81093,50.751883 27.6363,50.751883 l -7.12836,-0.523909 c -0.34927,0 -3.99681,-0.690608 -3.99681,-0.865244 0,-0.174642 0.86922,-2.436984 1.04385,-3.302228 0,-0.174636 0.34531,-0.349272 0.51994,-0.349272 l 5.04066,-0.694581 c 0.17465,0 0.34531,-0.174636 0.51995,-0.349272 l 1.04385,-2.083739 c 0.17463,-0.174636 0.34927,-0.349274 0.52391,-0.349274 l 9.03747,-1.563795 h 0.3453 l 8.34685,2.607648 h 0.17465 l 5.90589,3.302228 c 0.17464,0 0.17464,0.174637 0.17464,0.174637 l 6.08451,9.732039 c 0,0.174638 0.17464,0.174638 0.17464,0.349275 l -1.04385,25.897869 -0.52391,6.255177 -1.55982,-20.162634 c 0,-0.174637 0,-0.174637 -0.17464,-0.345301 z"
     style="fill:#000000;fill-opacity:1;stroke-width:3.96902"
     id="path2388"
     sodipodi:nodetypes="ccccccccccccccccccccccccccccccccccccccccccccccccccccccccccccccccccccccccccccccccccsccccccccsccccccccccscsccccccccccccccccccccccccccccccssccccccsccccccccccccccccccc" />
</svg>
