<?xml version="1.0" encoding="UTF-8" standalone="no"?>
<svg
   viewBox="0 0 53.188869 405.85631"
   version="1.1"
   id="svg2390"
   sodipodi:docname="surv_3.svg"
   inkscape:version="1.2 (dc2aeda, 2022-05-15)"
   fill="#ffffff"
   width="53.188869"
   height="405.85632"
   xmlns:inkscape="http://www.inkscape.org/namespaces/inkscape"
   xmlns:sodipodi="http://sodipodi.sourceforge.net/DTD/sodipodi-0.dtd"
   xmlns="http://www.w3.org/2000/svg"
   xmlns:svg="http://www.w3.org/2000/svg">
  <defs
     id="defs2394" />
  <sodipodi:namedview
     id="namedview2392"
     pagecolor="#505050"
     bordercolor="#ffffff"
     borderopacity="1"
     inkscape:showpageshadow="0"
     inkscape:pageopacity="0"
     inkscape:pagecheckerboard="1"
     inkscape:deskcolor="#505050"
     showgrid="false"
     inkscape:zoom="1.2886699"
     inkscape:cx="112.51912"
     inkscape:cy="197.49046"
     inkscape:window-width="1536"
     inkscape:window-height="850"
     inkscape:window-x="0"
     inkscape:window-y="25"
     inkscape:window-maximized="0"
     inkscape:current-layer="svg2390" />
  <path
     d="M 42.23833,46.580443 38.24152,42.063695 C 38.06689,41.889059 38.06689,41.889059 37.89225,41.889059 L 25.7272,40.495933 h -0.34927 l -6.77512,2.782284 c 0,0 -0.17464,0 -0.17464,0.174637 l -3.30223,3.476863 c -0.34928,0.345305 -0.17464,1.043853 0.3453,1.043853 h 1.38916 c 0.17464,0 0.34927,0 0.34927,0.174636 l 1.56381,1.563793 c 0.17463,0.17067 0.34927,0.17067 0.5239,0.17067 l 10.4306,-1.389157 c 0.51994,0 0.69061,-0.869215 0.3453,-1.21849 -0.51994,-0.345305 -0.17464,-1.039883 0.34531,-1.214521 l 5.91383,-0.349274 h 0.17464 l 5.0367,1.738433 c 0.52391,0.349273 1.04385,-0.349275 0.69457,-0.869217"
     style="fill:#000000;fill-opacity:1;stroke-width:3.96902"
     id="path2374" />
  <path
     d="m 41.36912,229.60793 v -9.55741 l 1.04385,-6.95373 0.17464,-54.57802 c 0,0 2.433,-12.16903 2.78228,-12.16903 0.3453,0 0.17067,55.79652 0.17067,55.79652 l 2.43301,-5.73523 3.47687,-80.47589 -4.34609,-13.90746 0.86922,-29.200092 5.2153,-16.511133 L 49.54133,38.237557 43.97676,36.153824 39.28537,23.810163 36.8484,30.069312 27.46563,25.723232 24.68335,11.819746 21.03185,28.680153 17.72961,0 12.68896,33.196904 5.04462,42.409002 4.34607,49.013453 1.04385,58.054887 2.43301,68.306872 0,76.999026 3.12759,82.55963 4.86998,128.79477 v 0.34927 l 0.86525,2.60765 -0.17463,4.34607 -0.69062,28.15625 3.82218,14.7727 0.17464,38.58684 0.17066,2.0877 c 0.26154,6.18656 1.91307,49.18809 4.34608,51.96641 0.17463,0.17463 0.34927,0.52391 0.69855,0.69854 l 0.3453,28.68015 -2.60367,12.3397 6.08053,54.9273 2.25838,-44.67136 3.6515,5.38994 1.73843,76.82439 3.82217,-32.67696 v -16.86041 l 3.99681,-10.25197 v -53.0182 l 3.82613,-12.85963 m 2.26234,-189.62798 0.17067,6.95374 v 0.17463 l -1.21452,3.82216 v 0.17067 L 36.8484,175.90309 34.24472,89.69196 c 0,-0.17464 0.17067,-0.51994 0.34531,-0.51994 l 4.34607,-2.087708 c 0.17464,-0.174636 0.34927,-0.349273 0.34927,-0.519943 v -1.738432 c 0,-0.174637 -0.17463,-0.52391 -0.34927,-0.52391 L 35.11393,82.218294 C 34.9393,82.043652 34.76466,81.869016 34.76466,81.694379 l -0.51994,-5.211324 -1.21849,2.433011 H 32.33165 L 31.81171,63.964757 c 0,-0.865244 -1.21849,-0.865244 -1.21849,0 l -1.04385,15.820526 c 0,0.170664 -0.17464,0.3453 -0.17464,0.519943 l -1.5638,1.218489 c -0.3453,0.170664 -0.69458,0.170664 -0.86922,-0.174637 L 25.03262,78.916066 24.85798,78.74143 23.81413,75.439202 c 0,-0.349272 -0.34927,-0.523909 -0.69458,-0.523909 h -0.17463 c -0.34928,0 -0.69458,0.349273 -0.69458,0.698545 v 2.258376 c 0,0.349273 -0.34531,0.69458 -0.69458,0.69458 l -1.91307,-0.174636 c -0.17463,0 -0.34927,-0.170671 -0.34927,-0.170671 L 18.25353,77.002998 C 18.0789,76.828361 17.90425,76.828361 17.72961,76.828361 L 9.90668,76.483055 c -0.3453,0 -0.69458,0.17067 -0.69458,0.519943 l -0.51597,3.302228 c 0,0.174637 0,0.519937 0.17067,0.519937 l 4.17144,3.476864 c 0.17066,0.174637 0.3453,0.174637 0.51993,0.174637 l 3.12759,-0.174637 h 0.17464 l 4.52072,-2.083733 h 0.34927 l 2.25838,0.345302 c 0.17463,0 0.3453,0.174636 0.51994,0.349272 l 2.60764,5.215297 c 0.17464,0.17067 0.34928,0.345306 0.51994,0.345306 l 3.30224,0.523909 c 0.34927,0 0.52391,0.34531 0.52391,0.69458 -0.17464,7.82295 -1.91307,97.3363 -2.08771,122.01964 -0.34531,-20.86118 -1.73844,-87.60425 -2.25838,-109.15604 0,-0.69855 -1.21452,-0.87319 -1.21452,0 l -0.69457,3.82217 c -0.17464,0.69458 -1.21849,0.69458 -1.21849,0 l -1.21849,-8.68819 c 0,-0.17463 0,-0.17463 -0.17464,-0.17463 l -1.56379,-2.43699 c 0,-0.17066 -0.17067,-0.17066 -0.17067,-0.3453 v -1.21848 c 0,-0.51995 0.51994,-0.69459 0.86921,-0.51995 l 2.25838,1.04385 c 0.3453,0.17464 0.69458,0 0.86921,-0.34927 l 1.04385,-2.25838 V 90.91045 L 23.46486,85.695152 C 23.29022,85.34588 22.77028,85.171244 22.42497,85.520516 l -2.61161,2.258375 c -0.17067,0.174637 -0.17067,0.174637 -0.17067,0.349274 l -1.03988,6.084515 c 0,0.17067 -0.17464,0.34531 -0.17464,0.34531 l -2.08771,1.91306 c -0.17464,0.17067 -0.17464,0.3453 -0.17464,0.51994 l -1.21452,36.32846 c 0,0.69458 -1.04385,0.86921 -1.21849,0.17464 l -1.21849,-5.90987 v -0.17464 L 12.33969,89.51732 c 0,-0.3453 -0.3453,-0.69458 -0.69061,-0.69458 h -1.56777 c -0.34927,0 -0.51993,-0.17463 -0.69457,-0.523905 L 8.8668,84.825937 c 0,-0.174637 0,-0.349273 -0.17464,-0.349273 L 4.86998,80.825163 C 4.69535,80.654499 4.69535,80.479863 4.69535,80.305226 L 5.21926,69.878605 c 0,-0.349279 0.17067,-0.523915 0.51597,-0.523915 l 1.21849,-0.174637 c 0.34928,0 0.69459,0.174637 0.69459,0.52391 l 0.52391,2.258375 c 0,0.345307 0.34927,0.519943 0.69458,0.519943 l 3.12759,-0.519943 c 0.51993,-0.174636 0.69457,-0.69458 0.3453,-1.043852 L 9.03746,67.616258 C 8.8668,67.441621 8.8668,67.266985 8.8668,67.09632 l 0.3453,-2.607648 c 0,-0.174636 0,-0.349272 -0.17464,-0.523915 L 7.12837,61.706388 C 6.95372,61.535717 6.95372,61.36108 6.95372,61.36108 l 0.17465,-9.906677 c 0,-0.174636 0,-0.349273 0.17463,-0.349273 l 5.9059,-7.993612 c 0,-0.174635 0.17464,-0.174635 0.34927,-0.174635 l 8.17222,-2.782285 c 0.34531,-0.174636 0.51995,-0.345306 0.34531,-0.69458 v -1.043852 c 0,-0.345307 0.34927,-0.694579 0.69458,-0.694579 l 11.99438,0.349272 c 0.17464,0 0.34927,0 0.34927,0.17067 l 4.86205,3.826138 6.08848,6.949758 0.17465,0.174636 2.95294,9.212099 v 4.171443 c 0,0.174637 0,0.349274 -0.17463,0.52391 l -3.82216,3.822165 -4.00078,4.171444 c -0.17464,0.174636 -0.17464,0.349272 -0.17464,0.519944 l -0.17066,6.953728 c 0,0.174636 0,0.349272 -0.17464,0.519937 l -1.90911,1.913068 c -0.34927,0.349279 -0.17463,0.69458 0,1.043853 l 2.08375,1.389159 c 0,0 0.17464,0 0.17464,0.174637 l 2.60367,0.694579 c 0.34927,0.174637 0.52391,0.52391 0.34927,0.69458 l -1.04385,3.826133 c 0,0.17464 -0.17066,0.34928 -0.3453,0.34928 l -3.47687,1.9091 c 0.51994,-0.87319 0.34927,-0.69855 0.34927,-0.51995"
     style="fill:#000000;fill-opacity:1;stroke-width:3.96902"
     id="path2388"
     sodipodi:nodetypes="ccccscccccccccccccccccccccccccccccccccccccccccccccccccccsscccccccccccccccsssscccccccccccccccccccccccccccccssccccccccccccccccccssccccccccccccsccccccccccccscccccccscccccccccccccccc" />
</svg>
