<?xml version="1.0" encoding="UTF-8" standalone="no"?>
<svg viewBox="0 0 600 458.17159" fill="white" version="1.1" id="svg2390"
	sodipodi:docname="Dead by Daylight Logo 4x1 (optimazed).svg" inkscape:version="1.2 (dc2aeda, 2022-05-15)"
	xmlns:inkscape="http://www.inkscape.org/namespaces/inkscape"
	xmlns:sodipodi="http://sodipodi.sourceforge.net/DTD/sodipodi-0.dtd" xmlns="http://www.w3.org/2000/svg"
	xmlns:svg="http://www.w3.org/2000/svg">
	<defs id="defs2394" />
	<sodipodi:namedview id="namedview2392" pagecolor="#505050" bordercolor="#ffffff" borderopacity="1"
		inkscape:showpageshadow="0" inkscape:pageopacity="0" inkscape:pagecheckerboard="1" inkscape:deskcolor="#505050"
		showgrid="false" inkscape:zoom="0.74520333" inkscape:cx="241.54481" inkscape:cy="275.09271"
		inkscape:window-width="1536" inkscape:window-height="853" inkscape:window-x="0" inkscape:window-y="25"
		inkscape:window-maximized="1" inkscape:current-layer="svg2390" />
	<path
		d="M 359.38481,58.051493 355.388,53.534745 c -0.17463,-0.174636 -0.17463,-0.174636 -0.34927,-0.174636 l -12.16505,-1.393126 h -0.34927 l -6.77512,2.782284 c 0,0 -0.17464,0 -0.17464,0.174637 l -3.30223,3.476863 c -0.34928,0.345305 -0.17464,1.043853 0.3453,1.043853 h 1.38916 c 0.17464,0 0.34927,0 0.34927,0.174636 l 1.56381,1.563793 c 0.17463,0.17067 0.34927,0.17067 0.5239,0.17067 l 10.4306,-1.389157 c 0.51994,0 0.69061,-0.869215 0.3453,-1.21849 -0.51994,-0.345305 -0.17464,-1.039883 0.34531,-1.214521 l 5.91383,-0.349274 h 0.17464 l 5.0367,1.738433 c 0.52391,0.349273 1.04385,-0.349275 0.69457,-0.869217"
		style="stroke-width:3.96902;fill:#000000;fill-opacity:1" id="path2374" />
	<path
		d="m 167.8398,111.58963 -5.04065,0.69458 c -0.17067,0 -0.3453,0.17463 -0.3453,0.17463 l -4.34609,4.17146 c -0.3453,0.3453 -0.3453,0.86921 0,1.21848 l 1.5638,1.21452 c 0.17464,0.17464 0.34928,0.17464 0.69458,0.17464 l 3.82614,-0.52391 c 0.17463,0 0.17463,0 0.3453,-0.17067 l 3.13156,-1.91306 c 0.17066,-0.17464 0.3453,-0.34531 0.3453,-0.51995 l 0.87319,-3.47687 c 0,-0.69458 -0.34928,-1.21849 -1.04783,-1.04385"
		style="stroke-width:3.96902;fill:#000000;fill-opacity:1" id="path2376" />
	<path
		d="m 159.15161,107.58886 v -0.17067 c -0.17464,-0.34927 -0.51994,-0.52391 -0.86921,-0.34927 l -4.51675,0.69458 c -0.34927,0 -0.51994,0.17463 -0.51994,0.51994 l -1.56776,3.47686 c -0.17463,0.34927 -0.69458,0.52391 -1.04385,0.34927 l -8.68819,-3.82613 c -0.69855,-0.34531 -1.39313,0.34927 -1.04385,1.04385 v 0.17464 c 0,0.17463 0.17463,0.17463 0.17463,0.3453 l 10.08132,7.99758 c 0.17067,0.17464 0.69458,0.17464 0.86921,0 l 2.43301,-1.56379 c 0.17067,-0.17464 0.3453,-0.34928 0.3453,-0.69458 l 0.17465,-4.00078 c 0,-0.17464 0.17463,-0.51994 0.34927,-0.69458 l 3.47686,-2.433 c 0.3453,0 0.51994,-0.51995 0.3453,-0.86922"
		style="stroke-width:3.96902;fill:#000000;fill-opacity:1" id="path2378" />
	<path
		d="m 141.24736,87.60086 15.29661,0.174637 c 0.51994,0 0.86921,-0.345301 0.86921,-0.869217 v -1.563789 c 0,-0.523916 0.69458,-1.043853 1.21849,-0.69458 l 3.47687,1.73446 c 0.17067,0.174637 0.34531,0.174637 0.51994,0 l 0.69458,-0.170665 c 0.51994,-0.174636 0.86922,-0.869215 0.34531,-1.393131 l -5.0367,-4.691381 c -0.17464,-0.174636 -0.34927,-0.174636 -0.52391,-0.174636 l -6.42981,-0.869216 c -0.34927,0 -0.69458,-0.345307 -0.69458,-0.869217 0,-0.345306 -0.34927,-0.694579 -0.69854,-0.86525 l -5.56061,-0.349272 c -0.17464,0 -0.34531,0 -0.34531,0.174636 l -8.34288,4.342114 c -0.17464,0.174637 -0.34927,0.349273 -0.34927,0.52391 l -0.69458,3.127591 c -0.17464,0.523909 0.34927,1.043852 0.86921,1.043852 l 1.73844,-0.174636 c 0.17067,0 0.34531,0 0.34531,-0.174642 l 1.21849,-1.043853 c 0.51994,-0.3453 1.21451,0 1.21451,0.523916 v 1.03988 c 0.17464,0.873188 0.52392,1.218489 0.86922,1.218489"
		style="stroke-width:3.96902;fill:#000000;fill-opacity:1" id="path2380" />
	<path
		d="m 260.48472,46.581022 -0.17464,-0.174642 -8.16824,-3.127586 h -0.34531 l -5.38994,0.174637 c -0.34927,0 -0.69458,0.345307 -0.69458,0.694579 v 2.25837 c 0,0.349279 0.17067,0.519943 0.51995,0.69458 l 4.34608,1.218488 h 0.17464 l 1.9091,0.869217 c 0.17464,0 0.17464,0.174642 0.17464,0.174642 l 1.74239,2.603676 c 0.17067,0.174636 0.51994,0.349273 0.69458,0.174636 l 3.64754,-1.214523 h 0.51994 l 1.7424,1.214523 h 0.17067 l 2.95691,0.869216 h 0.51995 l 1.03988,-0.694579 c 0.34928,-0.174637 0.34928,-0.69458 0,-1.03988 z"
		style="stroke-width:3.96902;fill:#000000;fill-opacity:1" id="path2382" />
	<path
		d="m 449.59274,123.92932 0.17464,-1.38916 c 0,-0.17464 0,-0.34927 -0.17464,-0.52391 l -2.95294,-4.86602 c -0.17464,-0.17463 -0.17464,-0.3453 -0.52392,-0.3453 l -7.12439,-2.43698 h -1.5638 c -0.51994,0 -0.86921,0.34927 -0.86921,0.87318 v 2.95296 c 0,0.17464 0,0.34927 0.17463,0.34927 l 1.73447,2.95295 1.39312,2.0877 c 0.17464,0.17067 0.17464,0.17067 0.34927,0.34531 l 2.08374,0.69458 h 0.34927 l 5.90591,-0.17464 c 0.52391,0.34927 0.86922,0 1.04385,-0.51994"
		style="stroke-width:3.96902;fill:#000000;fill-opacity:1" id="path2384" />
	<path
		d="m 437.77696,107.58886 c -0.17463,0 -0.34927,-0.17067 -0.34927,-0.17067 l -9.73204,-0.17464 c -0.17464,0 -0.52391,0.17464 -0.69458,0.34531 l -2.43301,2.60765 c -0.52391,0.5239 -0.17463,1.21848 0.51994,1.38915 l 1.91307,0.34928 h 0.34531 l 2.95692,-0.34928 3.64752,-0.69458 c 0.34929,0 0.69856,-0.3453 0.69856,-0.86921 v -0.17464 c 0,-0.51994 0.3453,-0.86525 0.86922,-0.86525 h 2.08373 c 0.52391,0 0.86921,-1.04385 0.17463,-1.39312"
		style="stroke-width:3.96902;fill:#000000;fill-opacity:1" id="path2386" />
	<path
		d="m 597.16495,312.86668 c -5.73523,-2.78228 -12.51433,1.38519 -16.8604,-4.52072 -4.34608,-5.90987 -17.20969,-9.90668 -17.20969,-9.90668 0,0 -6.60444,-4.34607 -13.03426,-2.433 -6.42982,1.90909 -11.29981,-5.04464 -11.29981,-5.04464 0,0 -6.42982,1.91705 -9.73204,-2.42904 -3.30223,-4.35004 -26.76708,-8.69613 -26.76708,-8.69613 0,0 -11.81975,1.91705 -13.03427,-2.77831 -1.04386,-4.69138 -2.9609,-7.12836 -4.69536,-6.0845 -1.90909,1.04385 -1.04385,3.13155 -5.73523,2.433 -4.69535,-0.69061 -10.25595,-1.38915 -14.77667,-3.9968 -4.52072,-2.60765 -8.6882,-2.60765 -12.16506,-1.73844 -1.91306,0.52392 -5.38992,-0.69458 -8.16824,-1.73843 l 0.17067,-7.64433 3.30222,-8.69216 0.34928,-47.10436 4.00077,-9.03745 2.42904,40.67056 4.00078,-90.20793 -3.30223,-5.73524 4.17145,-7.82294 -2.08771,-2.43301 0.51995,-9.90668 -7.47368,-15.9912 -9.73204,-5.04065 -3.30223,-3.302228 -3.47687,-29.898641 -5.04065,30.767858 -1.73843,1.563795 -1.39312,-1.738432 -2.77833,-17.904258 -2.25837,23.290219 -2.08373,-7.124393 -3.13156,11.47444 -4.34608,3.64754 -3.12759,16.16582 0.51994,3.1276 2.26234,7.29902 v 18.59884 l -2.60765,8.16825 v 28.16021 l 4.16748,25.20329 1.91704,-18.07889 2.77832,8.34289 -2.77832,34.24074 0.69458,18.42817 c -1.56776,-0.87319 -3.30223,-1.91307 -4.69536,-2.95692 0,0 -3.82217,0.52391 -8.51753,-2.43301 -4.69137,-2.95692 -4.86601,0.69458 -9.90666,-1.04385 -5.04066,-1.73843 -1.03989,-7.1244 -5.56061,-6.94976 -4.52071,0 -9.2121,1.55982 -22.59564,-1.7424 0,0 -1.73843,-0.51597 -4.52071,-1.21452 v -9.55741 l 1.04385,-6.95373 0.17464,-54.57802 c 0,0 2.433,-12.16903 2.78228,-12.16903 0.3453,0 0.17067,55.79652 0.17067,55.79652 l 2.43301,-5.73523 3.47687,-80.47589 -4.34609,-13.90746 0.86922,-29.200092 5.2153,-16.511133 -3.64754,-18.078898 -5.56457,-2.083733 -4.69139,-12.343661 -2.43697,6.259149 -9.38277,-4.34608 -2.78228,-13.903486 -3.6515,16.860407 -3.30224,-28.680153 -5.04065,33.196904 -7.64434,9.212098 -0.69855,6.604451 -3.30222,9.041434 1.38916,10.251985 -2.43301,8.692154 3.12759,5.560604 1.74239,46.23514 v 0.34927 l 0.86525,2.60765 -0.17463,4.34607 -0.69062,28.15625 3.82218,14.7727 0.17464,38.58684 0.17066,2.0877 c -2.25838,-0.86922 -3.82217,-1.5638 -4.69139,-2.0877 -4.86601,-3.47687 -8.51752,-10.60126 -17.90425,-11.29584 -3.30223,-1.5638 -3.30223,-3.30223 -7.47367,-4.86603 -4.17144,-1.56379 -12.85963,-6.60842 -16.16186,-6.25914 -3.47686,0.34927 -7.65227,1.21849 -7.65227,1.21849 l -1.73446,-0.52391 0.86922,-40.15063 -2.43699,-10.08132 0.69856,-36.8484 2.25836,-9.2121 1.5638,39.63069 1.91306,-55.272605 3.82217,-10.255951 -0.86921,-9.38674 -0.34531,-8.866797 -0.69458,-11.990413 -1.91307,-10.775894 -3.30222,-0.869216 -2.433,-25.552567 -3.82615,21.206486 -1.21452,-19.64269 -2.78228,12.688962 L 259.44087,5.7686523e-4 251.26865,33.022838 l -10.59729,3.826137 -14.9513,3.822171 -7.81898,14.947337 0.17067,30.069308 5.90987,15.471249 -0.3453,26.76709 7.29903,19.81335 -4.34211,9.38674 1.73446,37.54298 0.17464,2.08771 c -0.34927,0 -0.69457,-0.17464 -0.86922,-0.17464 -4.86602,-1.38916 -3.9968,-6.08451 -6.95372,-7.6483 0,0 -7.29507,4.52072 -17.55103,1.91306 -10.25594,-2.60764 -31.11315,-9.73601 -31.11315,-9.73601 0,0 -0.86921,-0.17067 -2.26235,-0.69458 v -21.37715 l 3.99681,-10.60522 0.52391,-21.55179 1.38916,-3.30223 -0.51994,-8.86283 3.12759,-5.90987 2.433,-8.866801 -5.73523,-26.767083 -2.25837,11.125172 -3.99681,-45.191287 -7.303,37.542979 -3.82217,-22.770278 -3.82614,15.991186 -11.99041,-0.694574 -13.03824,10.430586 v 7.473672 l -3.82217,7.818973 0.86525,10.605225 -0.86525,7.81897 0.17067,16.34047 -4.51674,16.33649 6.08054,25.90184 v 0.34531 c -11.29585,0.69457 -33.371537,-1.90911 -39.277448,-5.21133 -5.913842,-3.47687 -8.172211,-7.65227 -14.776667,-7.65227 -6.60445,0 -5.909876,-1.90911 -11.299803,-5.5606 -5.385964,-3.82217 -11.641143,-7.64832 -12.514328,-7.82295 -2.603678,-0.34531 -3.996805,-2.25837 -5.731268,-3.30223 -2.786253,-1.56378 -7.128363,-2.08373 -9.910647,-2.60764 -1.563795,-0.3453 -3.306196,-0.69458 -4.866021,0 -1.21849,0.52391 -1.913069,1.39313 -2.782285,2.26234 -1.043853,1.21452 -2.262343,2.25837 -3.302226,3.47686 -1.21849,1.21452 -17.3803477,6.25519 -18.7734744,14.59807 -1.2145208,6.95372 -10.0813159,11.64511 6.7790894,31.80773 11.994385,14.42741 45.889833,10.95054 48.148207,15.12199 2.258373,4.34607 11.645108,1.73843 14.252756,3.47686 2.607648,1.73843 16.165827,14.08209 21.381123,14.25275 5.211324,0.17464 5.90987,-1.90909 8.513552,0 2.60765,1.91308 13.73282,4.52072 13.73282,4.52072 0,0 4.86998,2.77832 11.12517,3.12759 v 9.38277 l 1.38915,5.91385 1.91307,90.72787 3.6515,-73.86747 2.08374,7.1244 0.51994,61.88101 4.17541,18.42024 -0.69855,20.86118 1.39313,7.64831 0.17464,19.63871 4.86205,47.10436 4.86999,-47.10436 -0.52391,-24.85798 3.30619,-10.94656 0.17067,-35.10997 2.78228,57.53097 4.17145,-89.16805 -0.69458,-5.90986 6.94975,-20.15867 -0.17066,-19.988 2.60367,-5.3939 v -9.90668 l 3.65151,0.52392 c 0,0 23.29022,1.56379 23.81413,6.77908 0.51994,5.21133 8.51752,11.99041 23.81016,14.4274 9.2121,0.34531 10.60523,6.08054 10.60523,6.08054 0,0 0.17463,0.52391 0.69458,1.21849 v 0.86524 l -0.34928,19.988 3.6515,15.99516 -0.34927,18.7695 1.73844,10.25596 2.0877,75.2606 2.43301,-34.59003 0.51994,50.06127 2.60764,35.97919 6.7791,-80.4759 -0.86922,-23.63552 4.17144,-13.55818 1.04386,-54.22875 2.60765,-19.64666 c 0.3453,0 0.69458,-0.17464 1.04385,-0.17464 l 0.51994,71.2638 5.73524,-71.78374 c 2.78228,-0.3453 4.69535,-0.69061 4.69535,-0.69061 0,0 8.33891,-2.95692 10.94657,2.08374 2.61161,5.04066 5.04462,10.95053 7.12835,10.25198 2.26235,-0.86921 6.25915,-2.77831 7.99362,1.56777 1.91307,4.34211 3.13155,4.51675 -3.64753,5.21133 -0.52391,0 -0.52391,2.08373 2.95295,3.47686 3.47685,1.39312 4.34607,1.74239 6.77909,0 10.25596,-6.95373 16.68576,-5.38596 16.68576,-5.38596 0,0 8.34289,-2.08771 10.7759,0.69061 0.17463,0.17463 0.34927,0.52391 0.69855,0.69854 l 0.3453,28.68015 -2.60367,12.3397 6.08053,54.9273 2.25838,-44.67136 3.6515,5.38994 1.73843,76.82439 3.82217,-32.67696 V 367.79 l 3.99681,-10.25197 v -53.0182 l 3.82613,-12.85963 c 2.26234,0.69458 4.17145,1.73446 5.04066,2.95295 2.60765,4.00077 16.5151,-0.51994 20.16264,0 3.65149,0.52391 18.7695,4.17144 18.7695,4.17144 0,0 -1.21452,3.13155 2.43697,2.60764 3.64754,-0.34927 15.81656,-8.17221 20.51191,-7.64829 1.03988,0.17463 2.08374,0.17463 2.95296,0.17463 l 0.69061,5.04065 0.17464,25.20329 -2.42906,21.20649 5.04067,11.12517 3.12759,74.56601 4.17144,-47.27898 3.30223,-10.08132 1.38916,-41.54375 2.60764,56.83639 4.17145,-77.51897 -2.60765,-14.94734 c 16.16583,2.78229 41.36911,7.81898 44.32603,12.33969 4.34609,6.7791 9.55741,6.08452 8.16825,0 -0.86922,-3.9968 -5.04065,-7.47367 -8.34288,-9.5574 -4.34608,-2.61162 18.07889,2.60764 18.07889,2.60764 9.73205,2.95296 24.15944,6.60446 26.93775,6.25519 3.82615,-0.34928 5.56061,0.34927 7.64831,2.60764 2.0877,2.08771 2.95692,7.1244 10.60126,5.90988 7.64831,-1.21849 10.95053,-3.12759 18.59884,0 7.82295,3.12759 17.72961,2.08374 23.46485,2.08374 5.73525,0.69854 9.56141,-2.95296 3.82614,-5.90591 m -451.22621,-73.00619 -2.43301,-88.64414 -0.86921,-9.03746 -1.21453,-9.90669 c -0.17463,-1.21849 -1.91306,-1.38915 -2.26233,-0.17463 v 0.34927 l 1.91703,78.38819 -5.73921,-81.86505 v -0.17463 l -1.38915,-6.25519 c -0.17464,-0.52391 0.17463,-1.21849 0.86921,-1.39312 l 1.5638,-0.34531 c 0.51994,-0.17464 0.86921,-0.52391 0.86921,-1.04385 l 0.34928,-3.30619 c 0,-0.69061 0.69458,-1.21453 1.38519,-1.03988 l 1.39312,0.34927 c 0.52392,0.17066 0.86922,0.51994 0.86922,1.03988 l 0.69855,7.12836 c 0,0.3453 0.17066,0.69458 0.51597,0.86524 l 4.52071,2.95694 c 0.34928,0.17463 0.52391,0.51993 0.52391,1.04385 z m 21.20648,-115.5819 c -0.17463,0 -0.34927,0.17464 -0.34927,0.34927 l -1.03988,2.25442 v 0.34927 l -0.86921,26.41781 c 0,1.04385 -1.5638,1.04385 -1.5638,0 l -2.78228,-25.89786 v -0.17465 l -2.08375,-4.17144 c -0.17463,-0.34531 -0.52391,-0.51994 -0.86921,-0.51994 l -1.7424,0.3453 c -0.34133,0 -0.69061,0.34928 -0.69061,0.69855 l -0.52391,8.86283 c 0,0.86921 -1.38915,1.04385 -1.56379,0 l -1.38916,-8.34289 c 0,-0.17464 0,-0.17464 -0.17463,-0.34531 l -2.08771,-2.61161 -0.17463,-0.17067 -13.20892,-11.47444 c -0.34928,-0.17067 -0.69458,-0.17067 -1.03988,0 l -0.51995,0.34928 c -0.34927,0.17463 -0.5239,0.69457 -0.17463,1.04385 l 1.38518,2.25837 c 0.17464,0.34927 0,1.04385 -0.3453,1.21849 l -0.86525,0.3453 c -0.17463,0.17464 -0.5239,0 -0.69854,-0.17464 l -4.17144,-3.12758 c -0.17464,-0.17464 -0.34927,-0.34928 -0.34927,-0.69458 l -0.17464,-9.38674 c 0,-0.17464 0,-0.3453 -0.17067,-0.51994 l -2.433,-2.607644 c -0.17466,-0.174636 -0.34929,-0.519943 -0.17466,-0.869216 l 4.52073,-9.906683 v -0.349273 l -0.17464,-4.866018 c 0,-0.349273 0.17464,-0.523915 0.34927,-0.69458 l 8.6882,-5.215296 h 0.17464 l 6.25517,-1.913069 h 0.34927 l 11.12517,2.087705 c 0.17464,0 0.17464,0 0.3453,0.170671 l 10.60523,7.303001 c 0.17464,0 0.17464,0.174637 0.17464,0.174637 l 5.73524,9.557405 c 0,0.174636 0,0.174636 0.17067,0.349272 l 1.21849,8.517518 v 0.3453 l -1.04386,5.56458 c 0,0.17463 0,0.17463 -0.17463,0.34927 l -3.64753,5.38596 c 0,0.17464 -0.17464,0.17464 -0.17464,0.3453 l -0.34927,5.2153 v 0.34928 l 0.34927,1.21452 c 0.17464,0.34927 0,0.69854 -0.34927,0.86921 z m 57.18568,-62.575598 2.26234,-2.95692 c 0.17464,-0.345305 0.69061,-0.345305 1.03988,-0.174637 0.51995,0.174637 0.69458,0.698548 0.34531,1.218489 l -0.86524,1.738432 -1.04385,1.563795 c -0.34928,0.519944 -0.86923,0.519944 -1.39314,0.174637 l -0.51994,-0.519943 c 0,-0.174637 0,-0.694581 0.17464,-1.043853 m 41.88906,0.69458 c -0.34928,-0.519944 -1.04386,-0.349274 -1.21849,0.174636 l -1.38916,6.604456 c -0.17067,0.694574 -1.21452,0.694574 -1.21452,-0.174636 l -0.52391,-8.692161 c 0,-0.519943 -0.69061,-0.865247 -1.03989,-0.519943 l -2.26234,1.738432 c -0.17463,0 -0.17463,0.174636 -0.34928,0.174636 l -0.69061,0.174636 c -0.34927,0 -0.52391,-0.174636 -0.69457,-0.349272 l -1.74241,-5.040658 -0.34927,0.869216 v 0.174637 l -0.17066,1.389159 v 0.174637 l 0.86921,4.346078 v 0.17067 l 1.04385,2.087705 v 0.349272 l -0.34928,3.476865 v 0.170664 l -1.39312,3.131563 v 0.174637 l -2.08373,123.579469 -1.73447,-70.21994 c 0,-0.86922 -1.21848,-0.86922 -1.21848,0 0,0.86922 -1.21849,0.86922 -1.21849,0 l -0.52391,-54.578024 c 0,-0.174636 -0.17067,-0.519937 -0.34134,-0.519937 l -1.91704,-0.873188 c -0.17067,0 -0.17067,-0.170664 -0.34531,-0.345301 l -1.73843,-2.258375 c 0,-0.174636 -0.17066,-0.174636 -0.3453,-0.349274 l -3.47686,-1.214522 c 0,0 1.03988,1.563796 1.03988,1.738432 0,0.17067 0.86921,1.909097 1.21849,2.42904 v 0.349272 l -0.86921,19.987999 c 0,0.869215 -1.21453,0.869215 -1.21453,0 L 238.7583,69.696601 c 0,-0.345301 -0.17464,-0.519937 -0.52391,-0.519937 l -4.51676,-1.214523 h -0.51994 l -1.04385,0.690607 c -0.17464,0.174637 -0.34928,0.174637 -0.34928,0.34928 -0.17463,1.218489 -1.04385,5.735233 -1.04385,5.909869 0,0.174637 -1.21452,-2.258375 -1.56379,-3.302227 -0.17067,-0.174637 -0.3453,-0.345301 -0.51994,-0.345301 h -3.12759 l -2.95693,0.170664 -1.73843,0.174637 1.5638,-2.433006 c 0,-0.174636 0.17463,-0.174636 0.34927,-0.174636 l 3.82614,-1.389159 c 0.17464,0 0.34531,-0.174638 0.34531,-0.52391 l 0.51994,-1.909103 c 0.17463,-0.519943 0.86921,-0.694579 1.21849,-0.174636 l 0.86921,1.218489 c 0.17464,0.17067 0.34928,0.345307 0.52392,0.345307 l 2.60367,-0.174637 c 0.34927,0 0.52391,-0.345307 0.52391,-0.694579 l -0.17464,-5.215297 c 0,-0.174636 -0.17463,-0.345306 -0.17463,-0.519941 l -0.86922,-0.694579 c -0.34927,-0.174636 -0.34927,-0.698548 0,-1.043853 l 2.60765,-2.607647 v -0.174638 l 1.38915,-2.258373 c 0.17464,-0.345307 0.69856,-0.345307 1.04387,-0.174637 l 3.65149,3.476863 c 0.17067,0.174638 0.17067,0.519942 0,0.869216 l -1.56776,2.087706 v 0.174636 l -0.17067,0.519941 c 0,0.17067 0,0.519942 0.17067,0.694579 l 3.47686,3.826137 c 0.17463,0.170671 0.17463,0.170671 0.34927,0.170671 l 5.90988,0.869216 c 0.17464,0 0.34531,0 0.51994,-0.174636 l 2.08374,-2.083739 c 0.17464,-0.174637 0.17464,-0.349274 0.17464,-0.519944 l -0.86525,-5.913841 c 0,-0.170667 0,-0.170667 -0.17464,-0.345304 l -4.52072,-5.73524 c -0.17464,-0.174636 -0.34531,-0.174636 -0.51994,-0.174636 l -7.12836,-0.523909 c -0.34927,0 -3.99681,-0.690608 -3.99681,-0.865244 0,-0.174642 0.86922,-2.436984 1.04385,-3.302228 0,-0.174636 0.34531,-0.349272 0.51994,-0.349272 l 5.04066,-0.694581 c 0.17465,0 0.34531,-0.174636 0.51995,-0.349272 l 1.04385,-2.083739 c 0.17463,-0.174636 0.34927,-0.349274 0.52391,-0.349274 l 9.03747,-1.563795 h 0.3453 l 8.34685,2.607648 h 0.17465 l 5.90589,3.302228 c 0.17464,0 0.17464,0.174637 0.17464,0.174637 l 6.08451,9.732039 c 0,0.174638 0.17464,0.174638 0.17464,0.349275 l -1.04385,25.897869 -0.52391,6.255177 -1.55982,-20.162634 c 0,-0.174637 0,-0.174637 -0.17464,-0.345301 z m 90.38653,39.634648 0.17067,6.95374 v 0.17463 l -1.21452,3.82216 v 0.17067 l -1.56776,74.22072 -2.60368,-86.21113 c 0,-0.17464 0.17067,-0.51994 0.34531,-0.51994 l 4.34607,-2.087708 c 0.17464,-0.174636 0.34927,-0.349273 0.34927,-0.519943 v -1.738432 c 0,-0.174637 -0.17463,-0.52391 -0.34927,-0.52391 l -3.82217,-2.083733 c -0.17463,-0.174642 -0.34927,-0.349278 -0.34927,-0.523915 l -0.51994,-5.211324 -1.21849,2.433011 h -0.69458 l -0.51994,-14.951309 c 0,-0.865244 -1.21849,-0.865244 -1.21849,0 l -1.04385,15.820526 c 0,0.170664 -0.17464,0.3453 -0.17464,0.519943 l -1.5638,1.218489 c -0.3453,0.170664 -0.69458,0.170664 -0.86922,-0.174637 l -1.90909,-2.433012 -0.17464,-0.174636 -1.04385,-3.302228 c 0,-0.349272 -0.34927,-0.523909 -0.69458,-0.523909 h -0.17463 c -0.34928,0 -0.69458,0.349273 -0.69458,0.698545 v 2.258376 c 0,0.349273 -0.34531,0.69458 -0.69458,0.69458 l -1.91307,-0.174636 c -0.17463,0 -0.34927,-0.170671 -0.34927,-0.170671 l -1.03989,-1.218489 c -0.17463,-0.174637 -0.34928,-0.174637 -0.52392,-0.174637 l -7.82293,-0.345306 c -0.3453,0 -0.69458,0.17067 -0.69458,0.519943 l -0.51597,3.302228 c 0,0.174637 0,0.519937 0.17067,0.519937 l 4.17144,3.476864 c 0.17066,0.174637 0.3453,0.174637 0.51993,0.174637 l 3.12759,-0.174637 h 0.17464 l 4.52072,-2.083733 h 0.34927 l 2.25838,0.345302 c 0.17463,0 0.3453,0.174636 0.51994,0.349272 l 2.60764,5.215297 c 0.17464,0.17067 0.34928,0.345306 0.51994,0.345306 l 3.30224,0.523909 c 0.34927,0 0.52391,0.34531 0.52391,0.69458 -0.17464,7.82295 -1.91307,97.3363 -2.08771,122.01964 -0.34531,-20.86118 -1.73844,-87.60425 -2.25838,-109.15604 0,-0.69855 -1.21452,-0.87319 -1.21452,0 l -0.69457,3.82217 c -0.17464,0.69458 -1.21849,0.69458 -1.21849,0 l -1.21849,-8.68819 c 0,-0.17463 0,-0.17463 -0.17464,-0.17463 l -1.56379,-2.43699 c 0,-0.17066 -0.17067,-0.17066 -0.17067,-0.3453 v -1.21848 c 0,-0.51995 0.51994,-0.69459 0.86921,-0.51995 l 2.25838,1.04385 c 0.3453,0.17464 0.69458,0 0.86921,-0.34927 l 1.04385,-2.25838 v -0.51994 l -2.43697,-5.215298 c -0.17464,-0.349272 -0.69458,-0.523908 -1.03989,-0.174636 l -2.61161,2.258375 c -0.17067,0.174637 -0.17067,0.174637 -0.17067,0.349274 l -1.03988,6.084515 c 0,0.17067 -0.17464,0.34531 -0.17464,0.34531 l -2.08771,1.91306 c -0.17464,0.17067 -0.17464,0.3453 -0.17464,0.51994 l -1.21452,36.32846 c 0,0.69458 -1.04385,0.86921 -1.21849,0.17464 l -1.21849,-5.90987 v -0.17464 l -0.17463,-37.89226 c 0,-0.3453 -0.3453,-0.69458 -0.69061,-0.69458 h -1.56777 c -0.34927,0 -0.51993,-0.17463 -0.69457,-0.523905 l -0.51994,-3.472898 c 0,-0.174637 0,-0.349273 -0.17464,-0.349273 l -3.82218,-3.651501 c -0.17463,-0.170664 -0.17463,-0.3453 -0.17463,-0.519937 l 0.52391,-10.426621 c 0,-0.349279 0.17067,-0.523915 0.51597,-0.523915 l 1.21849,-0.174637 c 0.34928,0 0.69459,0.174637 0.69459,0.52391 l 0.52391,2.258375 c 0,0.345307 0.34927,0.519943 0.69458,0.519943 l 3.12759,-0.519943 c 0.51993,-0.174636 0.69457,-0.69458 0.3453,-1.043852 l -3.30223,-3.302228 c -0.17066,-0.174637 -0.17066,-0.349273 -0.17066,-0.519938 l 0.3453,-2.607648 c 0,-0.174636 0,-0.349272 -0.17464,-0.523915 l -1.90909,-2.258369 C 324.1002,73.006767 324.1002,72.83213 324.1002,72.83213 l 0.17465,-9.906677 c 0,-0.174636 0,-0.349273 0.17463,-0.349273 l 5.9059,-7.993612 c 0,-0.174635 0.17464,-0.174635 0.34927,-0.174635 l 8.17222,-2.782285 c 0.34531,-0.174636 0.51995,-0.345306 0.34531,-0.69458 v -1.043852 c 0,-0.345307 0.34927,-0.694579 0.69458,-0.694579 l 11.99438,0.349272 c 0.17464,0 0.34927,0 0.34927,0.17067 l 4.86205,3.826138 6.08848,6.949758 0.17465,0.174636 2.95294,9.212099 v 4.171443 c 0,0.174637 0,0.349274 -0.17463,0.52391 l -3.82216,3.822165 -4.00078,4.171444 c -0.17464,0.174636 -0.17464,0.349272 -0.17464,0.519944 l -0.17066,6.953728 c 0,0.174636 0,0.349272 -0.17464,0.519937 l -1.90911,1.913068 c -0.34927,0.349279 -0.17463,0.69458 0,1.043853 l 2.08375,1.389159 c 0,0 0.17464,0 0.17464,0.174637 l 2.60367,0.694579 c 0.34927,0.174637 0.52391,0.52391 0.34927,0.69458 l -1.04385,3.826133 c 0,0.17464 -0.17066,0.34928 -0.3453,0.34928 l -3.47687,1.9091 c 0.51994,-0.87319 0.34927,-0.69855 0.34927,-0.51995 m 61.52778,157.12566 1.04386,-10.77193 1.91307,-21.90106 1.38915,34.41142 c -1.38915,-0.51995 -2.78228,-1.04782 -4.34608,-1.73843 M 436.90775,144.7905 c 0,0.17464 0,0.34531 -0.17464,0.51994 l -0.86921,0.86922 c -0.17464,0.17463 -0.17464,0.34927 -0.17464,0.52391 l -0.17463,7.99361 c 0,1.04385 -1.38917,1.04385 -1.56381,0.17463 l -1.04385,-6.25913 c 0,-0.34532 -0.3453,-0.69459 -0.69458,-0.69459 -0.52391,0 -0.86524,0.34927 -0.86524,0.69459 l -0.34928,7.30299 v 0.17067 l -0.69457,2.43697 v 0.17067 l -1.39313,94.90329 -2.43301,-102.72225 c 0,-0.34928 -0.17463,-0.69856 -0.51994,-0.69856 l -0.87318,-0.3453 c -0.34134,-0.17463 -0.51598,-0.34927 -0.51598,-0.69457 v -2.08772 c 0,-0.17463 -0.17463,-0.3453 -0.17463,-0.51994 l -0.17464,-0.17464 c -0.34927,-0.34927 -0.34927,-0.86921 0,-1.21848 l 2.08374,-1.73844 c 0.17463,0 0.17463,-0.17067 0.17463,-0.3453 l 1.04385,-2.25838 c 0.17464,-0.34927 0.34928,-0.5239 0.69458,-0.5239 h 5.21529 c 0.34928,0 0.69458,0.17463 0.69458,0.5239 l 0.17465,0.51995 c 0,0.17463 0.34927,0.3453 0.52391,0.51994 l 1.03988,0.34927 c 0.17067,0 0.3453,0.17464 0.51994,0.51995 l 0.52391,1.39312 v 0.34531 z m 6.60445,-15.12594 -1.56776,-1.39313 c -0.34531,-0.17066 -0.69061,-0.3453 -1.03989,-0.17066 l -2.26234,1.21451 c -0.3453,0.17464 -0.51597,0.69458 -0.3453,1.2185 l 1.04385,1.73842 c 0,0.17464 0.17067,0.34531 0.17067,0.51995 l -0.34531,3.65149 c 0,0.51995 -0.34927,0.86922 -0.86921,0.69458 h -0.34531 c -0.34927,0 -0.69854,-0.17463 -0.69854,-0.52391 l -1.04386,-3.47686 c -0.17463,-0.3453 -0.3453,-0.51994 -0.69457,-0.51994 l -7.12837,-0.17067 c -0.17067,0 -0.34134,0 -0.51597,0.17067 l -1.56776,1.04385 -0.34928,0.34927 -0.3453,0.86525 c -0.17464,0.34927 -0.34928,0.52391 -0.69855,0.52391 h -0.1667 c -0.52391,0 -0.87318,-0.34927 -0.87318,-0.86921 v -1.5638 c 0,-0.17463 0.17463,-0.34927 0.17463,-0.51994 l 2.43301,-2.43698 c 0.17464,-0.17463 0.17464,-0.3453 0.17464,-0.51994 l 0.34927,-2.433 c 0,-0.34928 0.34531,-0.69459 0.69458,-0.69459 l 1.38916,-0.17464 c 0.3453,0 0.51994,-0.17463 0.69458,-0.51994 l 0.52391,-1.39313 c 0.17066,-0.3453 0.3453,-0.51994 0.69457,-0.51994 h 0.34928 c 0.34133,0 0.6906,0.17464 0.86524,0.51994 l 0.51994,1.21849 c 0.17464,0.34927 0.34928,0.51995 0.69855,0.51995 h 0.51994 c 0.52393,0 0.8732,-0.51995 0.8732,-1.04386 l -0.17464,-1.56379 c 0,-0.17464 0,-0.17464 -0.17463,-0.34531 l -2.08772,-2.78228 c -0.17464,-0.17464 -0.34928,-0.34927 -0.52391,-0.34927 h -0.51597 c -0.34928,0 -0.69855,0.17463 -0.87319,0.52391 l -0.69457,1.56379 c -0.17464,0.34927 -0.51995,0.52391 -0.86922,0.52391 h -0.52391 c -0.34134,0 -0.69061,-0.34927 -0.69061,-0.87318 v -5.04066 l -0.52391,-1.21451 c -0.17067,-0.34929 -0.51994,-0.52393 -1.04385,-0.52393 l -3.64754,0.8732 c -0.17464,0 -0.17464,0 -0.17464,0.17066 l -4.17144,2.78229 c -0.17066,0.17463 -0.3453,0.34927 -0.3453,0.51994 l -1.21849,3.9968 v 0.17464 c 0,0.34927 -0.34928,1.91307 0,1.91307 0.34928,0 3.6515,-0.17464 4.69535,-0.34928 0.17067,0 0.34134,-0.17464 0.51597,-0.3453 l 0.69855,-0.69458 c 0.17463,-0.17464 0.51994,-0.34927 0.69459,-0.34927 l 1.21849,0.17463 c 0.51597,0 0.69061,0.51994 0.69061,0.86922 l -0.17067,1.04385 c 0,0.17463 -0.17067,0.51994 -0.34531,0.51994 l -2.26235,1.91308 c -0.17463,0.17066 -0.34927,0.3453 -0.34927,0.69458 l 0.17464,3.12758 v 0.17464 l -1.73446,14.60203 v 0.17066 l -1.39313,6.25916 0.17464,-21.20649 c 0,-0.17464 0,-0.34927 -0.17464,-0.51994 l -1.21452,-1.56776 c -0.52391,-0.51995 -1.39312,-0.34531 -1.39312,0.34927 -0.34928,1.21849 -0.69458,2.60765 -0.69458,2.60765 0,-0.17464 -0.86922,-3.9968 -1.04385,-5.2153 0,-0.17066 -0.17067,-0.51993 -0.34531,-0.51993 -0.69458,-0.34928 -2.43699,-1.21454 -2.43699,-1.56381 0,-0.34927 0.17464,-4.34607 0.17464,-5.38993 0,-0.17463 0,-0.3453 0.17465,-0.51994 l 2.95294,-3.82216 c 0.17465,-0.17464 0.34928,-0.17464 0.52392,-0.34927 l 2.26234,-0.52393 c 0.17066,0 0.34133,-0.17066 0.34133,-0.17066 l 3.13156,-3.30223 c 0.3453,-0.34927 0.3453,-0.69458 0.17067,-1.04385 l -0.17067,-0.34927 c -0.3453,-0.34531 -0.17067,-0.86525 0.3453,-1.21452 l 4.87,-2.95692 c 0.17463,0 0.17463,-0.17067 0.34927,-0.17067 l 11.99042,-0.52391 c 0.17463,0 0.34927,0 0.51994,0.17464 l 4.34608,2.77831 0.34927,0.34928 1.73844,4.00076 c 0,0.17068 0.17066,0.17068 0.17066,0.34531 l 6.77909,6.25915 c 0.17464,0.17067 0.17464,0.17067 0.17464,0.34531 l 1.04385,2.78228 v 0.34927 l -0.17464,3.12759 c 0,0.34531 -0.34531,0.69458 -0.69458,0.69458 l -0.69458,0.17067 c -0.51994,0 -0.86921,0.52392 -0.69458,1.04385 l 0.51995,1.39313 v 0.51994 l -1.5638,4.34608 -0.86921,2.60764 v 0.17067 l -0.69458,33.89546 c 0,1.04385 -1.56379,1.04385 -1.73843,0 l -2.60369,-29.72004 -1.04781,-10.60523 c 0,-0.17464 -0.17067,-0.3453 -0.34531,-0.51994"
		style="stroke-width:3.96902;fill:#000000;fill-opacity:1" id="path2388" />
</svg>
